<svg width="14" height="14" viewBox="0 0 14 14" fill="none" xmlns="http://www.w3.org/2000/svg">
<path d="M7.00016 1.91667C7.96683 1.91667 8.75016 2.7 8.75016 3.66667C8.75016 4.63333 7.96683 5.41667 7.00016 5.41667C6.0335 5.41667 5.25016 4.63333 5.25016 3.66667C5.25016 2.7 6.0335 1.91667 7.00016 1.91667ZM7.00016 9.41666C9.47516 9.41666 12.0835 10.6333 12.0835 11.1667V12.0833H1.91683V11.1667C1.91683 10.6333 4.52516 9.41666 7.00016 9.41666ZM7.00016 0.333332C5.1585 0.333332 3.66683 1.825 3.66683 3.66667C3.66683 5.50833 5.1585 7 7.00016 7C8.84183 7 10.3335 5.50833 10.3335 3.66667C10.3335 1.825 8.84183 0.333332 7.00016 0.333332ZM7.00016 7.83333C4.77516 7.83333 0.333496 8.95 0.333496 11.1667V13.6667H13.6668V11.1667C13.6668 8.95 9.22516 7.83333 7.00016 7.83333Z" fill="black"/>
</svg>
