<svg width="42" height="34" viewBox="0 0 42 34" fill="none" xmlns="http://www.w3.org/2000/svg">
<path d="M38.2 9.21858H3.8C2.2536 9.21858 1 10.6007 1 12.3056V30.313C1 32.0179 2.2536 33.4 3.8 33.4H38.2C39.7464 33.4 41 32.0179 41 30.313V12.3056C41 10.6007 39.7464 9.21858 38.2 9.21858Z" fill="#66B3FF" stroke="black" stroke-miterlimit="10"/>
<path d="M33 24.1511C34.1046 24.1511 35 23.1639 35 21.9461C35 20.7283 34.1046 19.7411 33 19.7411H9C7.89543 19.7411 6.99999 20.7283 6.99999 21.9461C6.99999 23.1639 7.89543 24.1511 9 24.1511H33Z" fill="white" stroke="black" stroke-miterlimit="10"/>
<path d="M24.7834 1.40002H17.2084C15.5883 1.40002 14.275 2.84794 14.275 4.63402V12.9854C14.275 14.7715 15.5883 16.2194 17.2084 16.2194H24.7834C26.4034 16.2194 27.7167 14.7715 27.7167 12.9854V4.63402C27.7167 2.84794 26.4034 1.40002 24.7834 1.40002Z" fill="#0080FF" stroke="black" stroke-miterlimit="10"/>
<path d="M22.9666 11.2213C22.6046 11.5703 22.159 11.7968 21.6832 11.8737V12.2963C21.6855 12.3782 21.671 12.4596 21.6407 12.5344C21.6104 12.6091 21.5651 12.6754 21.5082 12.7281C21.3889 12.8434 21.2334 12.9028 21.0749 12.8935C20.9169 12.8991 20.7626 12.8402 20.6416 12.7281C20.5876 12.6733 20.5448 12.6065 20.516 12.532C20.4873 12.4575 20.4733 12.3772 20.4749 12.2963V11.9012C19.8888 11.8514 19.3198 11.6601 18.8082 11.3408C18.718 11.2928 18.6405 11.22 18.5832 11.1295C18.5324 11.004 18.5141 10.8656 18.5303 10.7293C18.5464 10.5931 18.5965 10.4645 18.6749 10.3577C18.7172 10.2974 18.7715 10.2486 18.8336 10.2151C18.8958 10.1816 18.9641 10.1644 19.0332 10.1648C19.0997 10.1559 19.1668 10.1559 19.2332 10.1648C19.3253 10.199 19.4146 10.242 19.4999 10.2934C19.7255 10.4199 19.963 10.5185 20.2082 10.5874C20.4369 10.6519 20.6722 10.6827 20.9082 10.6793C21.1471 10.6928 21.3851 10.6391 21.5999 10.5231C21.674 10.4808 21.7354 10.4158 21.7768 10.3359C21.8182 10.2561 21.8378 10.1648 21.8332 10.0729C21.8343 10.0134 21.8219 9.95448 21.7972 9.90154C21.7725 9.84861 21.7362 9.8033 21.6916 9.76972C21.5852 9.68692 21.4669 9.62478 21.3416 9.58598L20.7249 9.41141C20.3665 9.32441 20.0131 9.21396 19.6666 9.08066C19.3928 8.97249 19.1469 8.79281 18.9499 8.55698C18.7409 8.29002 18.6335 7.94445 18.6499 7.59229C18.653 7.36263 18.7008 7.13638 18.7899 6.92878C18.879 6.72117 19.0075 6.53702 19.1666 6.38874C19.5242 6.03468 19.9669 5.80183 20.4416 5.71805V5.28624C20.4404 5.20455 20.4555 5.12358 20.4857 5.04898C20.5159 4.97439 20.5606 4.90799 20.6166 4.85443C20.7334 4.74051 20.8858 4.68119 21.0416 4.68905C21.1998 4.68165 21.3547 4.74076 21.4749 4.85443C21.5312 4.90715 21.5756 4.97363 21.6046 5.04859C21.6335 5.12355 21.6462 5.20493 21.6416 5.28624V5.69049C22.1353 5.77118 22.6105 5.95517 23.0416 6.23255C23.1291 6.2894 23.2033 6.36806 23.2582 6.46224C23.3047 6.55819 23.3277 6.66586 23.3249 6.77461C23.3272 6.94165 23.2704 7.10311 23.1666 7.2248C23.1219 7.28153 23.067 7.32723 23.0052 7.35889C22.9435 7.39056 22.8763 7.40748 22.8082 7.40855C22.7421 7.42182 22.6744 7.42182 22.6082 7.40855L22.3332 7.30748L22.0666 7.16968C21.9251 7.09504 21.7771 7.03655 21.6249 6.99511C21.4587 6.94947 21.2878 6.92784 21.1166 6.93079C20.8982 6.91981 20.6816 6.97715 20.4916 7.09618C20.4184 7.14277 20.3575 7.20971 20.3151 7.29031C20.2727 7.37092 20.2502 7.46237 20.2499 7.55555C20.2509 7.64747 20.278 7.73672 20.3273 7.81085C20.3766 7.88498 20.4457 7.94027 20.5249 7.96898C20.8074 8.0931 21.1006 8.18545 21.3999 8.24461C21.7528 8.32437 22.1007 8.4287 22.4416 8.55698C22.7128 8.66548 22.9559 8.84523 23.1499 9.08066C23.3527 9.35451 23.4566 9.70137 23.4416 10.0545C23.4405 10.2748 23.3977 10.4924 23.3159 10.6933C23.2341 10.8942 23.1151 11.0741 22.9666 11.2213Z" fill="white"/>
</svg>
