<svg width="42" height="30" viewBox="0 0 42 30" fill="none" xmlns="http://www.w3.org/2000/svg">
<path d="M6.15 29.4H35.85C36.7245 29.3963 37.5625 29.0432 38.1833 28.417L40.0333 26.5356C40.6491 25.9042 40.9963 25.052 41 24.1627V6.63731C40.9963 5.74802 40.6491 4.89582 40.0333 4.26443L38.1833 2.38307C37.5625 1.75682 36.7245 1.40377 35.85 1.40002H6.15C5.27553 1.40377 4.43754 1.75682 3.81667 2.38307L1.96667 4.26443C1.35085 4.89582 1.00368 5.74802 1 6.63731L1 24.1627C1.00368 25.052 1.35085 25.9042 1.96667 26.5356L3.81667 28.417C4.43754 29.0432 5.27553 29.3963 6.15 29.4Z" fill="#66B3FF"/>
<path d="M21 5.27292H34.4C34.6227 5.27049 34.8437 5.31349 35.0498 5.39937C35.2559 5.48524 35.443 5.61226 35.6 5.77292L36.6917 6.88309C36.8497 7.04277 36.9746 7.23303 37.059 7.44263C37.1435 7.65224 37.1857 7.87693 37.1833 8.10343V11.1289L35.4583 12.2729C35.2045 12.4354 34.9951 12.6604 34.8494 12.927C34.7037 13.1936 34.6266 13.4933 34.625 13.7983V17.3238C34.6281 17.6285 34.7059 17.9276 34.8514 18.194C34.997 18.4603 35.2056 18.6856 35.4583 18.8492L37.1917 20.0017V22.7136C37.193 22.9387 37.1501 23.1618 37.0657 23.3698C36.9813 23.5779 36.857 23.7668 36.7 23.9255L35.6167 25.0272C35.4604 25.1893 35.2736 25.3179 35.0674 25.4053C34.8613 25.4926 34.64 25.537 34.4167 25.5356H7.59168C7.36836 25.537 7.14706 25.4926 6.94092 25.4053C6.73478 25.3179 6.548 25.1893 6.39168 25.0272L5.30835 23.9255C5.15137 23.7668 5.02705 23.5779 4.94263 23.3698C4.85822 23.1618 4.8154 22.9387 4.81668 22.7136V20.0017L6.55001 18.8492C6.80279 18.6856 7.0114 18.4603 7.15692 18.194C7.30244 17.9276 7.38027 17.6285 7.38334 17.3238V13.7983C7.38179 13.4933 7.30461 13.1936 7.15895 12.927C7.01329 12.6604 6.80385 12.4354 6.55001 12.2729L4.82501 11.1289V8.10343C4.82262 7.87693 4.8649 7.65224 4.94935 7.44263C5.03379 7.23303 5.1587 7.04277 5.31668 6.88309L6.40834 5.77292C6.56536 5.61226 6.75245 5.48524 6.95856 5.39937C7.16467 5.31349 7.38562 5.27049 7.60834 5.27292H21Z" fill="#0080FF" stroke="black" stroke-linejoin="round"/>
<path d="M18.6499 17.9508H23.3499C24.5125 17.9508 25.6274 18.4204 26.4494 19.2564C27.2715 20.0924 27.7333 21.2262 27.7333 22.4084V25.5356H14.2666V22.4084C14.2666 21.2262 14.7284 20.0924 15.5505 19.2564C16.3725 18.4204 17.4874 17.9508 18.6499 17.9508V17.9508Z" fill="white" stroke="black" stroke-miterlimit="10"/>
<path d="M21.0333 17.9424C23.2562 17.9424 25.0583 16.1098 25.0583 13.8492C25.0583 11.5886 23.2562 9.75598 21.0333 9.75598C18.8104 9.75598 17.0083 11.5886 17.0083 13.8492C17.0083 16.1098 18.8104 17.9424 21.0333 17.9424Z" fill="white" stroke="black" stroke-miterlimit="10"/>
<path d="M6.15 29.4H35.85C36.7245 29.3963 37.5625 29.0432 38.1833 28.417L40.0333 26.5356C40.6491 25.9042 40.9963 25.052 41 24.1627V6.63731C40.9963 5.74802 40.6491 4.89582 40.0333 4.26443L38.1833 2.38307C37.5625 1.75682 36.7245 1.40377 35.85 1.40002H6.15C5.27553 1.40377 4.43754 1.75682 3.81667 2.38307L1.96667 4.26443C1.35085 4.89582 1.00368 5.74802 1 6.63731L1 24.1627C1.00368 25.052 1.35085 25.9042 1.96667 26.5356L3.81667 28.417C4.43754 29.0432 5.27553 29.3963 6.15 29.4Z" stroke="black" stroke-miterlimit="10"/>
</svg>
