<svg width="42" height="38" viewBox="0 0 42 38" fill="none" xmlns="http://www.w3.org/2000/svg">
<path d="M36 17.6211C34.6739 17.6211 33.4021 17.0992 32.4644 16.1701C31.5268 15.241 31 13.9809 31 12.667C31 13.9809 30.4732 15.241 29.5355 16.1701C28.5978 17.0992 27.326 17.6211 26 17.6211C24.6739 17.6211 23.4021 17.0992 22.4644 16.1701C21.5268 15.241 21 13.9809 21 12.667C21 13.9809 20.4732 15.241 19.5355 16.1701C18.5978 17.0992 17.326 17.6211 16 17.6211C14.6739 17.6211 13.4021 17.0992 12.4644 16.1701C11.5268 15.241 11 13.9809 11 12.667C11 13.9809 10.4732 15.241 9.5355 16.1701C8.59782 17.0992 7.32605 17.6211 5.99997 17.6211C5.17318 17.6233 4.35919 17.4188 3.6333 17.0266V33.078C3.6333 34.1182 4.05034 35.1158 4.79267 35.8513C5.535 36.5868 6.54182 37 7.59163 37H25.925V23.1285C25.9272 22.6087 26.1371 22.111 26.5088 21.7442C26.8805 21.3775 27.3837 21.1716 27.9083 21.1716H31C31.2614 21.1683 31.5209 21.2165 31.7634 21.3134C32.006 21.4102 32.2266 21.5539 32.4127 21.7359C32.5987 21.918 32.7465 22.1348 32.8473 22.3738C32.9481 22.6129 33 22.8694 33 23.1285V37H34.4C35.4506 37 36.4582 36.5871 37.2019 35.8518C37.9455 35.1165 38.3644 34.1189 38.3666 33.078V17.0266C37.6407 17.4188 36.8268 17.6233 36 17.6211V17.6211ZM21.4583 29.2386C21.4583 29.7583 21.2505 30.2569 20.8803 30.6252C20.5102 30.9935 20.0079 31.2015 19.4833 31.2037H10.9333C10.4087 31.2015 9.9064 30.9935 9.53626 30.6252C9.16611 30.2569 8.9583 29.7583 8.9583 29.2386V23.1285C8.9583 22.6095 9.16638 22.1117 9.53676 21.7447C9.90715 21.3778 10.4095 21.1716 10.9333 21.1716H19.4833C20.0071 21.1716 20.5095 21.3778 20.8798 21.7447C21.2502 22.1117 21.4583 22.6095 21.4583 23.1285V29.2386Z" fill="#66B3FF" stroke="black" stroke-miterlimit="10"/>
<path d="M11 12.667C11 13.9809 10.4732 15.241 9.53553 16.1701C8.59785 17.0992 7.32608 17.6211 6 17.6211C5.17321 17.6233 4.35923 17.4188 3.63333 17.0266C2.83805 16.6032 2.17331 15.9743 1.70967 15.2068C1.24603 14.4392 1.0008 13.5615 1 12.667H11Z" fill="#0080FF" stroke="black" stroke-linejoin="round"/>
<path d="M21 12.667C21 13.9809 20.4732 15.241 19.5355 16.1701C18.5979 17.0992 17.3261 17.6211 16 17.6211C14.6739 17.6211 13.4021 17.0992 12.4645 16.1701C11.5268 15.241 11 13.9809 11 12.667H21Z" fill="#0080FF" stroke="black" stroke-linejoin="round"/>
<path d="M31 12.667C31 13.9809 30.4732 15.241 29.5355 16.1701C28.5979 17.0992 27.3261 17.6211 26 17.6211C24.6739 17.6211 23.4021 17.0992 22.4645 16.1701C21.5268 15.241 21 13.9809 21 12.667H31Z" fill="#0080FF" stroke="black" stroke-linejoin="round"/>
<path d="M41 12.667C40.9992 13.5615 40.754 14.4392 40.2903 15.2068C39.8267 15.9743 39.162 16.6032 38.3667 17.0266C37.6408 17.4188 36.8268 17.6233 36 17.6211C34.6739 17.6211 33.4021 17.0992 32.4645 16.1701C31.5268 15.241 31 13.9809 31 12.667H41Z" fill="#0080FF" stroke="black" stroke-linejoin="round"/>
<path d="M41 12.667H1L6.56667 1H35.4333L41 12.667Z" fill="#66B3FF" stroke="black" stroke-linejoin="round"/>
<path d="M21.4583 23.1284V29.2385C21.4583 29.7582 21.2504 30.2568 20.8803 30.6251C20.5101 30.9934 20.0078 31.2014 19.4833 31.2036H10.9333C10.4087 31.2014 9.90635 30.9934 9.53621 30.6251C9.16606 30.2568 8.95825 29.7582 8.95825 29.2385V23.1284C8.95825 22.6094 9.16633 22.1116 9.53672 21.7447C9.9071 21.3777 10.4094 21.1715 10.9333 21.1715H19.4833C20.0071 21.1715 20.5094 21.3777 20.8798 21.7447C21.2502 22.1116 21.4583 22.6094 21.4583 23.1284V23.1284Z" fill="white" stroke="black" stroke-miterlimit="10"/>
<path d="M33 23.1284V37H25.9333V23.1284C25.9356 22.6087 26.1455 22.1109 26.5172 21.7442C26.8889 21.3774 27.3921 21.1715 27.9167 21.1715H31C31.2615 21.1683 31.521 21.2165 31.7635 21.3133C32.006 21.4102 32.2267 21.5538 32.4127 21.7359C32.5988 21.9179 32.7465 22.1347 32.8473 22.3738C32.9481 22.6128 33 22.8693 33 23.1284Z" fill="#0080FF" stroke="black" stroke-linejoin="round"/>
</svg>
