<svg xmlns="http://www.w3.org/2000/svg" viewBox="0 0 48 48"><defs><style>.cls-1{fill:#a9d8ff;}.cls-1,.cls-2,.cls-3,.cls-4{stroke:#000;}.cls-1,.cls-2{stroke-miterlimit:10;}.cls-1,.cls-2,.cls-3{stroke-width:0.81px;}.cls-2{fill:#66b3ff;}.cls-3{fill:#0080ff;}.cls-3,.cls-4{stroke-linecap:round;stroke-linejoin:round;}.cls-4{fill:#fff;stroke-width:0.81px;}</style></defs><g id="color"><rect class="cls-1" y="0.31" width="39.03" height="39.03" rx="4.55"/><rect class="cls-2" x="21.24" y="6.54" width="11.52" height="11.52" rx="2.28"/><rect class="cls-2" x="6.27" y="6.54" width="11.52" height="11.52" rx="2.28"/><rect class="cls-2" x="21.24" y="21.58" width="11.52" height="11.52" rx="2.28"/><rect class="cls-2" x="6.27" y="21.58" width="11.52" height="11.52" rx="2.28"/><rect class="cls-3" x="23.27" y="29.77" width="21.95" height="10.43" transform="translate(-14.71 34.46) rotate(-45)"/><polygon class="cls-4" points="30.17 46.43 21.53 47.7 22.8 39.06 30.17 46.43"/><path class="cls-3" d="M47.31,29.29l-1.62,1.62-7.37-7.37,1.61-1.62a2.38,2.38,0,0,1,3.35,0l4,4A2.37,2.37,0,0,1,47.31,29.29Z"/></g></svg>