<svg width="24" height="24" viewBox="0 0 24 24" fill="none" xmlns="http://www.w3.org/2000/svg">
<path d="M10.6348 4.15495L10.1398 3.35995C9.58479 2.48245 8.62479 1.94995 7.59729 1.94995H3.02979C1.37979 1.94995 0.0297852 3.29995 0.0297852 4.94995V19.0499C0.0297852 20.7074 1.37229 22.0499 3.02979 22.0499H20.9698C22.6273 22.0499 23.9698 20.7074 23.9698 19.0499V8.56495C23.9698 6.90745 22.6273 5.56495 20.9698 5.56495H13.1773C12.2623 5.56495 11.1223 4.92745 10.6348 4.15495Z" fill="#FFDC77"/>
<path d="M18.7123 16.3574H15.7798C14.9548 16.3574 14.2798 15.6824 14.2798 14.8574V5.56494H20.2123V14.8649C20.2123 15.6899 19.5373 16.3574 18.7123 16.3574Z" fill="#333333"/>
<path d="M17.2422 21.27C16.2522 21.27 15.4497 20.4675 15.4497 19.4775V16.725C15.4497 15.735 16.2522 14.9325 17.2422 14.9325C18.2322 14.9325 19.0347 15.735 19.0347 16.725V19.4775C19.0422 20.46 18.2397 21.27 17.2422 21.27Z" fill="#666666"/>
<path d="M16.9648 8.20496H16.2148C16.0048 8.20496 15.8398 8.03996 15.8398 7.82996V7.07996C15.8398 6.86996 16.0048 6.70496 16.2148 6.70496H16.9648C17.1748 6.70496 17.3398 6.86996 17.3398 7.07996V7.82996C17.3398 8.03996 17.1748 8.20496 16.9648 8.20496Z" fill="#CCCCCC"/>
<path d="M18.27 10.08H17.52C17.31 10.08 17.145 9.91496 17.145 9.70496V8.95496C17.145 8.74496 17.31 8.57996 17.52 8.57996H18.27C18.48 8.57996 18.645 8.74496 18.645 8.95496V9.70496C18.645 9.91496 18.48 10.08 18.27 10.08Z" fill="#CCCCCC"/>
<path d="M16.9648 11.9624H16.2148C16.0048 11.9624 15.8398 11.7974 15.8398 11.5874V10.8374C15.8398 10.6274 16.0048 10.4624 16.2148 10.4624H16.9648C17.1748 10.4624 17.3398 10.6274 17.3398 10.8374V11.5874C17.3398 11.7899 17.1748 11.9624 16.9648 11.9624Z" fill="#CCCCCC"/>
<path d="M18.27 13.8374H17.52C17.31 13.8374 17.145 13.6724 17.145 13.4624V12.7124C17.145 12.5024 17.31 12.3374 17.52 12.3374H18.27C18.48 12.3374 18.645 12.5024 18.645 12.7124V13.4624C18.645 13.6724 18.48 13.8374 18.27 13.8374Z" fill="#CCCCCC"/>
<path d="M17.2421 19.83C17.7226 19.83 18.1121 19.4405 18.1121 18.96C18.1121 18.4795 17.7226 18.09 17.2421 18.09C16.7616 18.09 16.3721 18.4795 16.3721 18.96C16.3721 19.4405 16.7616 19.83 17.2421 19.83Z" fill="#CCCCCC"/>
</svg>
