<svg width="240" height="240" viewBox="0 0 240 240" fill="none" xmlns="http://www.w3.org/2000/svg">
<path d="M48.0001 158.35C47.7108 158.326 47.4319 158.232 47.1877 158.075C46.9436 157.918 46.7418 157.703 46.6001 157.45C46.3072 156.949 46.1445 156.383 46.1271 155.803C46.1096 155.223 46.2379 154.648 46.5001 154.13L53.3801 139.46L53.1501 138.86C50.9794 133.037 50.2419 126.778 51.0001 120.61C53.0901 102.07 67.4501 85.4199 84.4001 81.8999C86.65 81.4302 88.9417 81.1889 91.2401 81.1799C95.333 81.1425 99.3856 81.9898 103.121 83.664C106.856 85.3382 110.185 87.7997 112.88 90.8799C119.21 98.0799 121.88 108.17 120.43 119.28C117.65 140.58 99.7101 157.91 80.4301 157.91H79.8101C73.7965 157.844 67.9566 155.884 63.1201 152.31L62.4001 151.77L48.7201 158.19C48.4933 158.291 48.2484 158.345 48.0001 158.35Z" fill="#DCAA13"/>
<path d="M91.1901 82.6796C95.0791 82.6411 98.9305 83.4433 102.481 85.0312C106.031 86.6191 109.196 88.9551 111.76 91.8796C117.76 98.7496 120.34 108.42 118.95 119.1C116.26 139.68 98.9501 156.42 80.4401 156.42H79.8501C74.1336 156.359 68.5838 154.486 64.0001 151.07L62.5601 150L60.9301 150.76L48.0701 156.76H47.9701C47.8292 156.637 47.7252 156.478 47.6701 156.3C47.5005 155.768 47.5435 155.191 47.7901 154.69L54.4101 140.6L54.9601 139.43L54.4901 138.24C52.3975 132.645 51.6841 126.629 52.4101 120.7C54.4101 102.77 68.2801 86.6996 84.6301 83.2896C86.778 82.8403 88.9658 82.6091 91.1601 82.5996M91.1601 79.5996C88.7609 79.6073 86.3686 79.8586 84.0201 80.3496C66.1001 84.0796 51.5601 101.52 49.4301 120.35C48.6375 126.756 49.4131 133.259 51.6901 139.3L45.0801 153.39C43.6501 156.39 45.4101 159.75 47.9401 159.75C48.4251 159.742 48.9027 159.629 49.3401 159.42L62.2001 153.42C67.2823 157.194 73.4302 159.259 79.7601 159.32H80.4101C99.9701 159.32 118.94 141.96 121.89 119.39C124.89 96.2896 110.35 79.6096 91.1601 79.6096V79.5996Z" fill="black"/>
<path d="M205.11 218.08C203.136 218.066 201.199 217.55 199.48 216.58L167.81 199.01L167.16 199.25C159.086 202.298 150.529 203.867 141.9 203.88C137.912 203.886 133.931 203.552 130 202.88C100.11 197.64 79.3897 172.64 80.7497 143.43C82.2697 110.53 110.75 81.9302 145.57 78.3302C148.008 78.0792 150.458 77.9524 152.91 77.9502C170.58 77.9502 187.25 84.7802 198.62 96.6802C203.872 102.225 207.934 108.786 210.556 115.959C213.179 123.132 214.306 130.765 213.87 138.39C213.15 152.215 208.039 165.45 199.28 176.17L198.71 176.88L212.82 208.59C213.304 209.527 213.534 210.574 213.485 211.628C213.435 212.681 213.11 213.703 212.54 214.59C211.682 215.736 210.555 216.653 209.26 217.262C207.964 217.87 206.539 218.151 205.11 218.08Z" fill="#FFE973"/>
<path d="M152.88 79.4099C170.15 79.4099 186.42 86.0699 197.51 97.6799C202.619 103.079 206.57 109.466 209.12 116.448C211.67 123.43 212.766 130.859 212.34 138.28C211.637 151.788 206.642 164.718 198.08 175.19L196.94 176.61L197.68 178.28L211.42 209.16C211.796 209.864 211.979 210.655 211.949 211.453C211.919 212.251 211.678 213.026 211.25 213.7C210.534 214.639 209.602 215.391 208.533 215.893C207.464 216.394 206.29 216.63 205.11 216.58C203.392 216.568 201.705 216.117 200.21 215.27L169.14 198.03L167.93 197.36L166.64 197.85C158.731 200.826 150.351 202.357 141.9 202.37C137.989 202.373 134.084 202.039 130.23 201.37C116.229 199.017 103.55 191.683 94.5303 180.72C85.9942 170.235 81.6127 156.977 82.2203 143.47C82.9203 128.29 89.7003 113.36 101.32 101.47C113.122 89.2727 128.826 81.5978 145.7 79.7799C148.08 79.5399 150.5 79.4099 152.88 79.4099ZM152.88 76.4099C150.379 76.4112 147.879 76.5413 145.39 76.7999C108.86 80.5799 80.7203 110.92 79.2203 143.32C77.8803 172.23 98.3503 198.82 129.71 204.32C133.735 205.025 137.814 205.38 141.9 205.38C150.709 205.359 159.443 203.764 167.69 200.67L198.75 217.88C200.694 218.97 202.882 219.548 205.11 219.56C211.69 219.56 217 214.29 214.16 207.92L200.42 177.04C209.372 166.072 214.598 152.538 215.34 138.4C216.99 102.02 187.88 76.3999 152.88 76.3999V76.4099Z" fill="black"/>
<path d="M167.07 149.75C165.795 149.749 164.535 149.488 163.364 148.985C162.193 148.481 161.137 147.745 160.26 146.82C159.58 146.073 159.062 145.194 158.738 144.237C158.415 143.28 158.293 142.266 158.38 141.26C158.77 136.57 163.38 132.66 168.75 132.55H169C170.301 132.522 171.594 132.763 172.799 133.256C174.003 133.75 175.093 134.487 176 135.42C176.696 136.168 177.228 137.054 177.56 138.02C177.893 138.986 178.019 140.012 177.93 141.03C177.53 145.84 172.77 149.76 167.32 149.76L167.07 149.75Z" fill="white"/>
<path d="M169 134.04C170.094 134.012 171.182 134.209 172.197 134.618C173.212 135.027 174.132 135.641 174.9 136.42C175.458 137.016 175.884 137.723 176.149 138.495C176.415 139.267 176.514 140.087 176.44 140.9C176.1 144.95 172.01 148.25 167.32 148.25H167.11C166.038 148.253 164.976 148.039 163.99 147.619C163.003 147.2 162.112 146.584 161.37 145.81C160.824 145.22 160.408 144.521 160.15 143.759C159.891 142.998 159.796 142.191 159.87 141.39C160.2 137.39 164.2 134.14 168.78 134.04H169ZM169 131.04H168.72C162.57 131.17 157.34 135.68 156.88 141.13C156.42 146.58 160.88 151.13 167.04 151.24H167.32C173.51 151.24 178.96 146.77 179.43 141.13C179.9 135.49 175.18 131.03 169 131.03V131.04Z" fill="black"/>
<path d="M136 149.06C134.952 149.058 133.915 148.839 132.957 148.416C131.998 147.992 131.137 147.374 130.43 146.6C129.784 145.88 129.293 145.034 128.99 144.114C128.688 143.195 128.578 142.223 128.67 141.26C128.956 139.081 130.013 137.076 131.649 135.609C133.285 134.141 135.393 133.308 137.59 133.26H137.78C138.848 133.238 139.909 133.44 140.895 133.853C141.88 134.267 142.768 134.882 143.5 135.66C144.162 136.384 144.664 137.238 144.974 138.169C145.284 139.099 145.395 140.084 145.3 141.06C145.017 143.275 143.936 145.31 142.258 146.783C140.581 148.256 138.423 149.066 136.19 149.06H136Z" fill="white"/>
<path d="M137.75 134.71C138.609 134.688 139.464 134.847 140.258 135.176C141.052 135.505 141.768 135.997 142.36 136.62C142.882 137.191 143.277 137.865 143.52 138.599C143.763 139.333 143.848 140.111 143.77 140.88C143.54 142.732 142.638 144.435 141.235 145.667C139.833 146.898 138.027 147.572 136.16 147.56H136C135.154 147.554 134.319 147.374 133.546 147.03C132.773 146.685 132.08 146.185 131.51 145.56C131.003 144.989 130.619 144.319 130.382 143.593C130.144 142.867 130.059 142.1 130.13 141.34C130.369 139.519 131.254 137.845 132.623 136.621C133.992 135.397 135.754 134.704 137.59 134.67H137.75M137.75 131.67H137.53C134.954 131.724 132.484 132.707 130.575 134.438C128.665 136.169 127.446 138.531 127.14 141.09C127.04 142.3 127.193 143.517 127.591 144.664C127.988 145.81 128.621 146.862 129.449 147.749C130.277 148.637 131.281 149.342 132.397 149.82C133.513 150.297 134.716 150.535 135.93 150.52H136.16C138.777 150.525 141.304 149.566 143.259 147.827C145.214 146.088 146.46 143.689 146.76 141.09C146.863 139.863 146.704 138.627 146.294 137.466C145.884 136.305 145.232 135.244 144.381 134.354C143.53 133.463 142.5 132.763 141.359 132.301C140.217 131.838 138.991 131.623 137.76 131.67H137.75Z" fill="black"/>
<path d="M108.78 148.46C107.916 148.449 107.064 148.261 106.276 147.907C105.488 147.552 104.781 147.039 104.2 146.4C103.589 145.699 103.129 144.881 102.848 143.994C102.568 143.108 102.473 142.174 102.57 141.25C102.749 139.288 103.628 137.457 105.045 136.089C106.462 134.722 108.324 133.909 110.29 133.8H110.44C111.318 133.786 112.19 133.957 112.998 134.301C113.805 134.646 114.532 135.156 115.13 135.8C115.757 136.499 116.229 137.323 116.517 138.217C116.805 139.111 116.901 140.056 116.8 140.99C116.627 142.98 115.731 144.839 114.281 146.214C112.831 147.588 110.927 148.384 108.93 148.45L108.78 148.46Z" fill="white"/>
<path d="M110.44 135.3C111.11 135.288 111.775 135.417 112.392 135.679C113.008 135.941 113.563 136.33 114.02 136.82C114.498 137.362 114.859 137.998 115.081 138.686C115.303 139.374 115.381 140.1 115.31 140.82C115.174 142.439 114.45 143.953 113.275 145.075C112.099 146.197 110.554 146.85 108.93 146.91H108.81C108.151 146.903 107.501 146.76 106.901 146.49C106.3 146.22 105.762 145.828 105.32 145.34C104.847 144.795 104.491 144.159 104.274 143.471C104.057 142.783 103.984 142.057 104.06 141.34C104.201 139.744 104.911 138.252 106.06 137.136C107.209 136.02 108.721 135.354 110.32 135.26H110.44M110.44 132.26H110.26C107.922 132.376 105.705 133.332 104.017 134.952C102.328 136.573 101.282 138.749 101.07 141.08C100.939 142.174 101.038 143.284 101.361 144.338C101.684 145.392 102.224 146.366 102.947 147.199C103.669 148.032 104.558 148.704 105.555 149.172C106.553 149.641 107.638 149.896 108.74 149.92H108.93C111.302 149.851 113.566 148.914 115.294 147.286C117.021 145.658 118.09 143.454 118.3 141.09C118.435 139.98 118.332 138.854 117.998 137.787C117.664 136.719 117.107 135.736 116.363 134.9C115.62 134.065 114.707 133.398 113.686 132.943C112.665 132.487 111.558 132.255 110.44 132.26Z" fill="black"/>
</svg>
