<svg width="24" height="24" viewBox="0 0 24 24" fill="none" xmlns="http://www.w3.org/2000/svg">
<path d="M21.78 5.07V21C21.78 22.6575 20.4375 24 18.78 24H6C4.3425 24 3 22.6575 3 21V3C3 1.3425 4.3425 0 6 0H16.71L21.78 5.07Z" fill="#379FFF"/>
<path d="M9.50633 16.7181C10.6199 16.681 11.5003 15.9798 11.4727 15.1518C11.4451 14.3239 10.52 13.6828 9.40643 13.7199C8.29286 13.757 7.4125 14.4583 7.44009 15.2862C7.46767 16.1141 8.39276 16.7552 9.50633 16.7181Z" stroke="white" stroke-width="1.5" stroke-miterlimit="10"/>
<path d="M15.3261 15.1879C16.4397 15.1507 17.3201 14.4495 17.2925 13.6216C17.2649 12.7936 16.3398 12.1525 15.2262 12.1897C14.1127 12.2268 13.2323 12.928 13.2599 13.7559C13.2875 14.5839 14.2126 15.225 15.3261 15.1879Z" stroke="white" stroke-width="1.5" stroke-miterlimit="10"/>
<path d="M9.50633 16.7181C10.6199 16.681 11.5003 15.9798 11.4727 15.1518C11.4451 14.3239 10.52 13.6828 9.40643 13.7199C8.29286 13.757 7.4125 14.4583 7.44009 15.2862C7.46767 16.1141 8.39276 16.7552 9.50633 16.7181Z" fill="white"/>
<path d="M15.3261 15.1879C16.4397 15.1507 17.3201 14.4495 17.2925 13.6216C17.2649 12.7936 16.3398 12.1525 15.2262 12.1897C14.1127 12.2268 13.2323 12.928 13.2599 13.7559C13.2875 14.5839 14.2126 15.225 15.3261 15.1879Z" fill="white"/>
<path d="M17.2861 13.6225V8.61998C17.2861 8.18498 16.8436 7.88498 16.4386 8.04248L11.8636 9.84998C11.6236 9.93998 11.4736 10.1725 11.4736 10.4275V15.145" stroke="white" stroke-width="1.5" stroke-miterlimit="10"/>
<path d="M16.71 0V2.07C16.71 3.7275 18.0525 5.07 19.71 5.07H21.78L16.71 0Z" fill="#0061FE"/>
</svg>
