<svg width="14" height="16" viewBox="0 0 14 16" fill="none" xmlns="http://www.w3.org/2000/svg">
<path d="M11.8611 4.00001H10.4722C10.4722 2.05556 8.94444 0.527786 7 0.527786C5.05556 0.527786 3.52778 2.05556 3.52778 4.00001H2.13889C1.375 4.00001 0.75 4.62501 0.75 5.3889V13.7222C0.75 14.4861 1.375 15.1111 2.13889 15.1111H11.8611C12.625 15.1111 13.25 14.4861 13.25 13.7222V5.3889C13.25 4.62501 12.625 4.00001 11.8611 4.00001ZM7 1.91668C8.18056 1.91668 9.08333 2.81945 9.08333 4.00001H4.91667C4.91667 2.81945 5.81944 1.91668 7 1.91668ZM11.8611 13.7222H2.13889V5.3889H11.8611V13.7222ZM7 8.16668C5.81944 8.16668 4.91667 7.2639 4.91667 6.08334H3.52778C3.52778 8.02779 5.05556 9.55556 7 9.55556C8.94444 9.55556 10.4722 8.02779 10.4722 6.08334H9.08333C9.08333 7.2639 8.18056 8.16668 7 8.16668Z" fill="black"/>
</svg>
