<svg width="16" height="18" viewBox="0 0 16 18" fill="none" xmlns="http://www.w3.org/2000/svg"><path d="M13.8333 4.00001H12.1667C12.1667 1.66668 10.3333 -0.166656 8 -0.166656C5.66667 -0.166656 3.83333 1.66668 3.83333 4.00001H2.16667C1.25 4.00001 0.5 4.75001 0.5 5.66668V15.6667C0.5 16.5833 1.25 17.3333 2.16667 17.3333H13.8333C14.75 17.3333 15.5 16.5833 15.5 15.6667V5.66668C15.5 4.75001 14.75 4.00001 13.8333 4.00001ZM8 1.50001C9.41667 1.50001 10.5 2.58334 10.5 4.00001H5.5C5.5 2.58334 6.58333 1.50001 8 1.50001ZM13.8333 15.6667H2.16667V5.66668H13.8333V15.6667ZM8 9.00001C6.58333 9.00001 5.5 7.91668 5.5 6.50001H3.83333C3.83333 8.83334 5.66667 10.6667 8 10.6667C10.3333 10.6667 12.1667 8.83334 12.1667 6.50001H10.5C10.5 7.91668 9.41667 9.00001 8 9.00001Z" fill="white"/></svg>
