<svg width="12" height="15" viewBox="0 0 12 15" fill="none" xmlns="http://www.w3.org/2000/svg">
<path d="M0 14.1176C0 14.605 0.395043 15 0.882353 15H11.1176C11.605 15 12 14.605 12 14.1176C12 13.6303 11.605 13.2353 11.1176 13.2353H0.882353C0.395043 13.2353 0 13.6303 0 14.1176ZM10.3517 6.9909C10.9676 6.35688 10.5183 5.29412 9.63442 5.29412H8.57143V1C8.57143 0.447716 8.12371 0 7.57143 0H4.42857C3.87629 0 3.42857 0.447715 3.42857 1V5.29412H2.36558C1.48165 5.29412 1.03239 6.35688 1.64831 6.9909L5.28272 10.7322C5.67546 11.1365 6.32454 11.1365 6.71728 10.7322L10.3517 6.9909Z" fill="black"/>
</svg>
