<svg width="14" height="13" viewBox="0 0 14 13" fill="none" xmlns="http://www.w3.org/2000/svg">
<path d="M7.06668 10.7593L7.00001 10.8274L6.92668 10.7593C3.76001 7.82336 1.66668 5.88195 1.66668 3.91328C1.66668 2.55088 2.66668 1.52908 4.00001 1.52908C5.02668 1.52908 6.02668 2.21028 6.38001 3.13671H7.62001C7.97334 2.21028 8.97334 1.52908 10 1.52908C11.3333 1.52908 12.3333 2.55088 12.3333 3.91328C12.3333 5.88195 10.24 7.82336 7.06668 10.7593ZM10 0.166687C8.84001 0.166687 7.72668 0.718458 7.00001 1.58358C6.27334 0.718458 5.16001 0.166687 4.00001 0.166687C1.94668 0.166687 0.333344 1.80838 0.333344 3.91328C0.333344 6.4814 2.60001 8.58631 6.03334 11.7675L7.00001 12.6667L7.96668 11.7675C11.4 8.58631 13.6667 6.4814 13.6667 3.91328C13.6667 1.80838 12.0533 0.166687 10 0.166687Z" fill="black"/>
</svg>
