<svg width="14" height="18" viewBox="0 0 14 18" fill="none" xmlns="http://www.w3.org/2000/svg">
<path d="M1.99992 0.666687C1.55789 0.666687 1.13397 0.842282 0.821407 1.15484C0.508847 1.4674 0.333252 1.89133 0.333252 2.33335V15.6667C0.333252 16.1087 0.508847 16.5326 0.821407 16.8452C1.13397 17.1578 1.55789 17.3334 1.99992 17.3334H11.9999C12.4419 17.3334 12.8659 17.1578 13.1784 16.8452C13.491 16.5326 13.6666 16.1087 13.6666 15.6667V5.66669L8.66658 0.666687H1.99992ZM1.99992 2.33335H7.83325V6.50002H11.9999V15.6667H1.99992V2.33335ZM3.66658 9.00002V10.6667H10.3333V9.00002H3.66658ZM3.66658 12.3334V14H7.83325V12.3334H3.66658Z" fill="black"/>
</svg>
