<svg width="24" height="24" viewBox="0 0 24 24" fill="none" xmlns="http://www.w3.org/2000/svg">
<g id="history_2">
<mask id="mask0_1_1210" style="mask-type:alpha" maskUnits="userSpaceOnUse" x="0" y="0" width="24" height="24">
<rect id="Bounding box" width="24" height="24" fill="#D9D9D9"/>
</mask>
<g mask="url(#mask0_1_1210)">
<path id="history_2_2" d="M12 22C9.41672 22 7.17505 21.1417 5.27505 19.425C3.37505 17.7083 2.30005 15.5667 2.05005 13H4.07505C4.32505 15.0167 5.20422 16.6875 6.71255 18.0125C8.22088 19.3375 9.98338 20 12 20C14.2334 20 16.125 19.225 17.675 17.675C19.225 16.125 20 14.2333 20 12C20 9.76667 19.225 7.875 17.675 6.325C16.125 4.775 14.2334 4 12 4C10.5667 4 9.23755 4.35417 8.01255 5.0625C6.78755 5.77083 5.81672 6.75 5.10005 8H8.00005V10H2.20005C2.68338 7.66667 3.84172 5.75 5.67505 4.25C7.50838 2.75 9.61672 2 12 2C13.3834 2 14.6834 2.2625 15.9 2.7875C17.1167 3.3125 18.175 4.025 19.075 4.925C19.975 5.825 20.6875 6.88333 21.2125 8.1C21.7375 9.31667 22 10.6167 22 12C22 13.3833 21.7375 14.6833 21.2125 15.9C20.6875 17.1167 19.975 18.175 19.075 19.075C18.175 19.975 17.1167 20.6875 15.9 21.2125C14.6834 21.7375 13.3834 22 12 22ZM14.8 16.2L11 12.4V7H13V11.6L16.2 14.8L14.8 16.2Z" fill="#0080FF"/>
</g>
</g>
</svg>
