<svg width="24" height="24" viewBox="0 0 24 24" fill="none" xmlns="http://www.w3.org/2000/svg">
<path d="M21.3899 6.315V21C21.3899 22.6575 20.0474 24 18.3899 24H5.60986C3.95236 24 2.60986 22.6575 2.60986 21V3C2.60986 1.3425 3.95236 0 5.60986 0H15.0749C15.8699 0 16.6349 0.315 17.1974 0.8775L20.5124 4.1925C21.0749 4.755 21.3899 5.52 21.3899 6.315Z" fill="#00A847"/>
<path d="M17.9472 8.37006V15.6376C17.9472 16.9126 16.9122 17.9476 15.6372 17.9476H8.36225C7.08725 17.9476 6.05225 16.9126 6.05225 15.6376V8.37006C6.05225 7.09506 7.08725 6.06006 8.36225 6.06006H15.6372C16.9122 6.06006 17.9472 7.08756 17.9472 8.37006Z" stroke="white" stroke-width="1.5" stroke-miterlimit="10"/>
<path d="M14.9397 17.9401H8.36225C7.08725 17.9401 6.05225 16.9051 6.05225 15.6301V15.5176L8.98475 12.3151C9.52475 11.7151 10.5672 11.7151 11.1147 12.3151L13.5297 14.9401L14.9172 16.4551C15.3447 16.9276 15.2922 17.5351 14.9397 17.9401Z" fill="white"/>
<path d="M17.9472 15.5176V15.6301C17.9472 16.9051 16.9122 17.9401 15.6372 17.9401H10.7847L13.5372 14.9401L14.4147 13.9801C14.9622 13.3876 16.0047 13.3876 16.5447 13.9801L17.9472 15.5176Z" fill="white"/>
<path d="M13.5521 11.2726C14.3888 11.2726 15.0671 10.5943 15.0671 9.75755C15.0671 8.92084 14.3888 8.24255 13.5521 8.24255C12.7154 8.24255 12.0371 8.92084 12.0371 9.75755C12.0371 10.5943 12.7154 11.2726 13.5521 11.2726Z" fill="white"/>
</svg>
