<svg width="42" height="33" viewBox="0 0 42 33" fill="none" xmlns="http://www.w3.org/2000/svg">
<path d="M38.2 8.21858H3.8C2.2536 8.21858 1 9.60068 1 11.3056V29.313C1 31.0179 2.2536 32.4 3.8 32.4H38.2C39.7464 32.4 41 31.0179 41 29.313V11.3056C41 9.60068 39.7464 8.21858 38.2 8.21858Z" fill="#CACACA" stroke="black" stroke-miterlimit="10"/>
<path d="M33 23.1511C34.1046 23.1511 35 22.1639 35 20.9461C35 19.7283 34.1046 18.7411 33 18.7411H9C7.89543 18.7411 6.99999 19.7283 6.99999 20.9461C6.99999 22.1639 7.89543 23.1511 9 23.1511H33Z" fill="white" stroke="black" stroke-miterlimit="10"/>
<path d="M24.9448 1.40002H17.0552C15.3678 1.40002 14 2.76788 14 4.4552V12.3448C14 14.0322 15.3678 15.4 17.0552 15.4H24.9448C26.6322 15.4 28 14.0322 28 12.3448V4.4552C28 2.76788 26.6322 1.40002 24.9448 1.40002Z" fill="#999999" stroke="black" stroke-miterlimit="10"/>
<path d="M23.0157 10.769C22.6477 11.1092 22.1947 11.33 21.7111 11.4049V11.8169C21.7134 11.8967 21.6986 11.9761 21.6678 12.049C21.637 12.1219 21.591 12.1865 21.5332 12.2379C21.4118 12.3503 21.2537 12.4082 21.0926 12.3991C20.932 12.4046 20.7752 12.3471 20.6521 12.2379C20.5972 12.1845 20.5537 12.1193 20.5245 12.0467C20.4953 11.9741 20.481 11.8958 20.4827 11.8169V11.4318C19.8869 11.3832 19.3084 11.1967 18.7884 10.8854C18.6967 10.8386 18.6179 10.7677 18.5597 10.6794C18.508 10.5571 18.4894 10.4221 18.5058 10.2893C18.5223 10.1565 18.5731 10.0311 18.6528 9.92704C18.6958 9.8682 18.751 9.82061 18.8142 9.78799C18.8774 9.75537 18.9468 9.73859 19.0171 9.73894C19.0846 9.73031 19.1529 9.73031 19.2204 9.73894C19.3141 9.7723 19.4048 9.81426 19.4915 9.86433C19.7208 9.98764 19.9623 10.0838 20.2116 10.151C20.444 10.2138 20.6833 10.2439 20.9232 10.2405C21.166 10.2537 21.408 10.2013 21.6263 10.0883C21.7016 10.047 21.7641 9.98365 21.8062 9.9058C21.8482 9.82795 21.8682 9.7389 21.8635 9.64936C21.8647 9.59133 21.8521 9.53391 21.8269 9.4823C21.8018 9.43069 21.7649 9.38652 21.7195 9.35379C21.6115 9.27307 21.4911 9.21249 21.3637 9.17466L20.7368 9.00448C20.3725 8.91966 20.0132 8.81198 19.661 8.68203C19.3827 8.57657 19.1327 8.40141 18.9324 8.1715C18.72 7.91125 18.6107 7.57436 18.6274 7.23104C18.6306 7.00715 18.6792 6.78658 18.7698 6.58418C18.8604 6.38179 18.9909 6.20227 19.1527 6.05771C19.5163 5.71254 19.9663 5.48554 20.4488 5.40387V4.9829C20.4476 4.90326 20.463 4.82432 20.4937 4.7516C20.5244 4.67888 20.5698 4.61415 20.6267 4.56193C20.7454 4.45087 20.9004 4.39304 21.0588 4.4007C21.2196 4.39349 21.3771 4.45112 21.4993 4.56193C21.5565 4.61333 21.6017 4.67814 21.6311 4.75122C21.6605 4.82429 21.6734 4.90363 21.6687 4.9829V5.377C22.1706 5.45566 22.6537 5.63502 23.0919 5.90544C23.1809 5.96086 23.2563 6.03755 23.3122 6.12936C23.3595 6.2229 23.3828 6.32787 23.3799 6.43389C23.3822 6.59673 23.3245 6.75414 23.219 6.87278C23.1736 6.92808 23.1177 6.97263 23.055 7.0035C22.9922 7.03437 22.9239 7.05087 22.8547 7.05191C22.7875 7.06485 22.7186 7.06485 22.6514 7.05191L22.3718 6.95338L22.1007 6.81904C21.957 6.74628 21.8065 6.68925 21.6518 6.64886C21.4828 6.60435 21.3091 6.58327 21.135 6.58615C20.9131 6.57545 20.6928 6.63135 20.4996 6.74738C20.4252 6.7928 20.3634 6.85806 20.3203 6.93664C20.2772 7.01522 20.2543 7.10438 20.254 7.19522C20.255 7.28483 20.2825 7.37184 20.3327 7.44411C20.3828 7.51637 20.453 7.57027 20.5335 7.59827C20.8207 7.71927 21.1187 7.8093 21.423 7.86698C21.7817 7.94473 22.1354 8.04644 22.482 8.1715C22.7577 8.27728 23.0048 8.45251 23.202 8.68203C23.4082 8.949 23.5139 9.28716 23.4985 9.63146C23.4975 9.84617 23.454 10.0583 23.3708 10.2542C23.2877 10.4501 23.1667 10.6254 23.0157 10.769Z" fill="white"/>
</svg>
