<svg width="42" height="41" viewBox="0 0 42 41" fill="none" xmlns="http://www.w3.org/2000/svg">
<path d="M3.17505 21.0923H38.725V35.6423C38.7119 36.7519 38.2618 37.8117 37.4725 38.5916C36.6831 39.3716 35.6181 39.809 34.5084 39.8089H7.39172C6.282 39.809 5.21698 39.3716 4.42762 38.5916C3.63826 37.8117 3.18821 36.7519 3.17505 35.6423V21.0923Z" fill="#CACACA" stroke="black" stroke-linejoin="round"/>
<path d="M39 14.134H3C1.89543 14.134 1 15.0294 1 16.134V20.0256C1 21.1302 1.89543 22.0256 3 22.0256H39C40.1046 22.0256 41 21.1302 41 20.0256V16.134C41 15.0294 40.1046 14.134 39 14.134Z" fill="#CACACA" stroke="black" stroke-linejoin="round"/>
<path d="M24.625 8.24225H17.3833V39.8173H24.625V8.24225Z" fill="#999999" stroke="black" stroke-miterlimit="10"/>
<path d="M22 6.90898L25.95 2.96731C26.4468 2.47042 27.0366 2.07628 27.6858 1.80736C28.3349 1.53844 29.0307 1.40002 29.7333 1.40002C30.436 1.40002 31.1317 1.53844 31.7809 1.80736C32.43 2.07628 33.0199 2.47042 33.5167 2.96731V2.96731C34.5024 3.96952 35.0533 5.31991 35.05 6.72565V8.0673C35.8457 8.0673 36.6087 8.38339 37.1713 8.946C37.7339 9.50861 38.05 10.2717 38.05 11.0673V11.0673C38.05 11.4613 37.9724 11.8514 37.8216 12.2154C37.6709 12.5793 37.4499 12.9101 37.1713 13.1886C36.8927 13.4672 36.562 13.6882 36.198 13.839C35.8341 13.9897 35.444 14.0673 35.05 14.0673H22V6.90898Z" fill="#999999" stroke="black" stroke-miterlimit="10"/>
<path d="M20.0916 6.90898L16.1499 2.96731C15.6531 2.47042 15.0633 2.07628 14.4142 1.80736C13.765 1.53844 13.0692 1.40002 12.3666 1.40002C11.664 1.40002 10.9682 1.53844 10.319 1.80736C9.66989 2.07628 9.08007 2.47042 8.58327 2.96731V2.96731C7.58532 3.9641 7.02214 5.31516 7.0166 6.72565V8.0673C6.22095 8.0673 5.45789 8.38339 4.89528 8.946C4.33267 9.50861 4.0166 10.2717 4.0166 11.0673V11.0673C4.0166 11.4613 4.0942 11.8514 4.24496 12.2154C4.39573 12.5793 4.61671 12.9101 4.89528 13.1886C5.17386 13.4672 5.50457 13.6882 5.86855 13.839C6.23253 13.9897 6.62264 14.0673 7.0166 14.0673H20.0999L20.0916 6.90898Z" fill="#999999" stroke="black" stroke-miterlimit="10"/>
<path d="M22.2417 5.42572H19.6583C17.8772 5.42572 16.4333 6.8696 16.4333 8.65072V11.2341C16.4333 13.0152 17.8772 14.4591 19.6583 14.4591H22.2417C24.0228 14.4591 25.4667 13.0152 25.4667 11.2341V8.65072C25.4667 6.8696 24.0228 5.42572 22.2417 5.42572Z" fill="white" stroke="black" stroke-miterlimit="10"/>
</svg>
