<svg width="42" height="27" viewBox="0 0 42 27" fill="none" xmlns="http://www.w3.org/2000/svg">
<path d="M41 4.20008V23.6334C41 24.376 40.705 25.0882 40.1799 25.6133C39.6548 26.1384 38.9426 26.4334 38.2 26.4334H3.8C3.06094 26.4312 2.35252 26.1378 1.82837 25.6168C1.30421 25.0958 1.00658 24.3891 1 23.6501L1 4.09175C1 4.00008 1 3.90841 1 3.81674C1.09971 3.15417 1.43371 2.54933 1.94135 2.11202C2.449 1.67471 3.09663 1.43393 3.76667 1.43341H38.2C38.79 1.43556 39.3644 1.62349 39.8416 1.97053C40.3187 2.31757 40.6745 2.80609 40.8583 3.36675V3.47509C40.8583 3.55842 40.9 3.63342 40.9167 3.71675C40.9212 3.80558 40.9212 3.89459 40.9167 3.98342C40.9167 3.98342 40.9167 4.07508 40.9167 4.11674L41 4.20008Z" fill="#999999" stroke="black" stroke-miterlimit="10"/>
<path d="M23.3167 1.41672V5.39171C21.6002 5.36498 19.9286 5.93989 18.5917 7.01672L18.0417 7.45839C16.6347 8.77729 15.2968 10.168 14.0333 11.6251C12.425 13.2917 11.125 14.325 9.275 14.8167C7.6959 15.135 6.06197 15.049 4.525 14.5667C3.18596 14.1157 1.97636 13.3464 1 12.325L1 4.09171C1 4.00004 1 3.90838 1 3.81671C1.09442 3.15038 1.42637 2.54058 1.93474 2.09959C2.44311 1.65859 3.09368 1.41609 3.76667 1.41672H23.3167Z" fill="#CACACA" stroke="black" stroke-miterlimit="10"/>
<path d="M41 4.20003V7.00003H1V4.07503C1 3.98336 1 3.8917 1 3.80003C1.09442 3.13369 1.42637 2.52389 1.93474 2.08289C2.44311 1.6419 3.09368 1.3994 3.76667 1.40003H38.2C38.8087 1.40031 39.4007 1.59895 39.8864 1.96585C40.3721 2.33275 40.725 2.84793 40.8917 3.43336C40.8917 3.51669 40.9333 3.59169 40.95 3.67502C40.9546 3.76385 40.9546 3.85286 40.95 3.94169C40.95 3.94169 40.95 4.03336 40.95 4.07503L41 4.20003Z" fill="white" stroke="black" stroke-miterlimit="10"/>
<path d="M3.98342 4.94995C3.83875 4.94831 3.6978 4.90391 3.5783 4.82234C3.45881 4.74076 3.36611 4.62566 3.31188 4.49152C3.25765 4.35739 3.24431 4.21021 3.27354 4.06851C3.30277 3.92681 3.37327 3.79693 3.47615 3.69521C3.57903 3.59348 3.70971 3.52446 3.85173 3.49683C3.99375 3.4692 4.14077 3.48421 4.27428 3.53995C4.4078 3.59569 4.52184 3.68967 4.60206 3.81008C4.68227 3.93049 4.72508 4.07194 4.72509 4.21663C4.7251 4.31363 4.70586 4.40967 4.66848 4.49919C4.63111 4.58871 4.57634 4.66993 4.50736 4.73813C4.43838 4.80634 4.35655 4.86018 4.26662 4.89654C4.17668 4.9329 4.08042 4.95105 3.98342 4.94995V4.94995Z" fill="black"/>
<path d="M3.98338 3.69162C4.08929 3.68323 4.19526 3.70717 4.28728 3.76028C4.37929 3.81339 4.45303 3.89317 4.49875 3.98907C4.54446 4.08498 4.56 4.19249 4.54332 4.29742C4.52664 4.40234 4.47851 4.49975 4.4053 4.57674C4.33209 4.65374 4.23725 4.70671 4.1333 4.72866C4.02935 4.75061 3.92118 4.7405 3.8231 4.69968C3.72501 4.65885 3.64162 4.58923 3.58394 4.5C3.52626 4.41078 3.49701 4.30615 3.50005 4.19995C3.5022 4.06138 3.5582 3.92909 3.65619 3.8311C3.75419 3.7331 3.88648 3.6771 4.02505 3.67495M4.02505 3.25828C3.83753 3.25164 3.6523 3.30118 3.49312 3.40053C3.33394 3.49988 3.20807 3.64452 3.13166 3.8159C3.05525 3.98728 3.03178 4.17756 3.06427 4.36237C3.09675 4.54717 3.1837 4.71807 3.31397 4.85312C3.44424 4.98817 3.61188 5.08122 3.7954 5.12034C3.97892 5.15945 4.16993 5.14285 4.34395 5.07267C4.51797 5.00248 4.66705 4.8819 4.77207 4.7264C4.87709 4.57091 4.93326 4.38759 4.93338 4.19995C4.93118 3.94944 4.83013 3.70994 4.6522 3.53357C4.47428 3.35721 4.2339 3.25827 3.98338 3.25828H4.02505Z" fill="black"/>
<path d="M7.00836 4.95C6.81387 4.95 6.62734 4.87275 6.48981 4.73522C6.35229 4.59769 6.27502 4.41117 6.27502 4.21667C6.27502 4.02218 6.35229 3.83566 6.48981 3.69813C6.62734 3.5606 6.81387 3.48334 7.00836 3.48334C7.20285 3.48334 7.38938 3.5606 7.5269 3.69813C7.66443 3.83566 7.74169 4.02218 7.74169 4.21667C7.74169 4.41117 7.66443 4.59769 7.5269 4.73522C7.38938 4.87275 7.20285 4.95 7.00836 4.95Z" fill="black"/>
<path d="M7.00841 3.69167C7.11225 3.69167 7.21375 3.72246 7.30009 3.78014C7.38642 3.83783 7.45371 3.91983 7.49345 4.01576C7.53319 4.1117 7.54358 4.21726 7.52333 4.3191C7.50307 4.42094 7.45307 4.51448 7.37964 4.58791C7.30622 4.66133 7.21268 4.71132 7.11084 4.73158C7.009 4.75184 6.90344 4.74145 6.80751 4.70171C6.71157 4.66197 6.62958 4.59468 6.57189 4.50834C6.5142 4.42201 6.48341 4.32051 6.48341 4.21667C6.48341 4.07743 6.53873 3.9439 6.63718 3.84544C6.73564 3.74698 6.86918 3.69167 7.00841 3.69167M7.00841 3.275C6.82147 3.27503 6.63876 3.33071 6.48356 3.43494C6.32836 3.53917 6.2077 3.68722 6.13695 3.86027C6.06619 4.03331 6.04854 4.22349 6.08625 4.40659C6.12395 4.5897 6.21531 4.75743 6.34867 4.88844C6.48204 5.01945 6.65138 5.1078 6.83513 5.14223C7.01888 5.17666 7.20872 5.15562 7.38047 5.08178C7.55222 5.00795 7.69811 4.88466 7.79955 4.72763C7.90099 4.57059 7.95339 4.38692 7.95008 4.2C7.95008 3.95026 7.85087 3.71074 7.67427 3.53415C7.49768 3.35755 7.25816 3.25833 7.00841 3.25833V3.275Z" fill="black"/>
<path d="M10.0251 4.95C10.4301 4.95 10.7584 4.62168 10.7584 4.21667C10.7584 3.81167 10.4301 3.48334 10.0251 3.48334C9.62007 3.48334 9.29175 3.81167 9.29175 4.21667C9.29175 4.62168 9.62007 4.95 10.0251 4.95Z" fill="black"/>
<path d="M10.025 3.69169C10.1289 3.69169 10.2304 3.72248 10.3167 3.78017C10.4031 3.83785 10.4703 3.91986 10.5101 4.01579C10.5498 4.11172 10.5602 4.21728 10.54 4.31912C10.5197 4.42096 10.4697 4.51451 10.3963 4.58793C10.3228 4.66135 10.2293 4.71135 10.1275 4.7316C10.0256 4.75186 9.92006 4.74147 9.82413 4.70173C9.7282 4.662 9.64621 4.5947 9.58852 4.50837C9.53083 4.42203 9.50004 4.32053 9.50004 4.2167C9.50004 4.07746 9.55535 3.94392 9.65381 3.84546C9.75227 3.747 9.8858 3.69169 10.025 3.69169M10.025 3.27502C9.7753 3.27502 9.53578 3.37423 9.35918 3.55083C9.18259 3.72742 9.08337 3.96695 9.08337 4.2167C9.08337 4.46644 9.18259 4.70595 9.35918 4.88255C9.53578 5.05915 9.7753 5.15835 10.025 5.15835C10.2748 5.15835 10.5143 5.05915 10.6909 4.88255C10.8675 4.70595 10.9667 4.46644 10.9667 4.2167C10.9667 3.96695 10.8675 3.72742 10.6909 3.55083C10.5143 3.37423 10.2748 3.27502 10.025 3.27502Z" fill="black"/>
<path d="M40.6628 7.6629V23.7944C40.6498 24.5085 40.3437 25.1887 39.8114 25.6863C39.279 26.1839 38.5637 26.4585 37.8217 26.45H12.4813C13.1788 25.4728 14.0388 24.613 15.0269 23.905C17.2686 22.3243 19.9537 21.8184 22.5649 20.9016C25.311 19.9545 27.7437 18.3171 29.6103 16.1594C31.2525 14.2467 31.8027 11.7728 33.716 10.0656C35.661 8.49506 38.124 7.64317 40.6628 7.6629Z" fill="#CACACA" stroke="black" stroke-miterlimit="10"/>
<path d="M38.1999 26.45H27.45C29.6238 25.1132 31.4693 23.3047 32.85 21.1583C34.6 18.3917 34.7166 16.2333 37.0166 14.125C38.1608 13.0809 39.5208 12.3014 41 11.8417V23.65C41 24.3926 40.705 25.1048 40.1799 25.6299C39.6547 26.155 38.9426 26.45 38.1999 26.45Z" fill="white" stroke="black" stroke-miterlimit="10"/>
</svg>
