<svg width="42" height="38" viewBox="0 0 42 38" fill="none" xmlns="http://www.w3.org/2000/svg">
<path d="M40.1667 20.8897C40.175 20.7509 40.175 20.6118 40.1667 20.473C40.1667 20.3147 40.1667 20.1647 40.125 20.0064C40.0834 19.8481 40.0584 19.5147 40.0167 19.2814C39.8012 18.0902 39.4285 16.9329 38.9084 15.8398L38.7084 15.4398L38.5001 15.0482C37.8178 13.8036 36.9775 12.6524 36.0001 11.6232C36.0505 11.2448 36.0756 10.8634 36.0751 10.4816C36.0784 9.39441 35.8835 8.3157 35.5001 7.29835C35.4421 7.13107 35.3754 6.96697 35.3001 6.80669C35.2251 6.6317 35.1418 6.46503 35.0668 6.3067C34.458 5.13091 33.5995 4.10243 32.5514 3.29331C31.5034 2.48419 30.2911 1.91399 28.9994 1.62264C27.7078 1.3313 26.3682 1.32586 25.0742 1.6067C23.7803 1.88754 22.5634 2.44785 21.5088 3.24843V3.24843C21.2234 3.03134 20.9257 2.831 20.6171 2.64844L20.3005 2.47345L19.9755 2.30678L19.6505 2.15679C19.4255 2.05679 19.2005 1.97345 18.9672 1.89012L18.6172 1.78181L18.2922 1.69013L17.9339 1.6068L17.5672 1.5318L17.0922 1.46515H16.8339H16.4589H16.0673H15.6089C15.4896 1.45688 15.3699 1.45688 15.2506 1.46515H15.0756L14.7506 1.5068H14.7006L14.3006 1.57348H14.2506C14.1256 1.57348 14.009 1.62348 13.8923 1.64848H13.809C13.6794 1.67794 13.5515 1.7141 13.4256 1.75681H13.3756L13.0757 1.86512L12.959 1.9068H12.9007C12.7923 1.94847 12.6923 1.9818 12.5923 2.0318H12.5423L12.2507 2.16513L12.1423 2.21513L11.8507 2.3568L11.7507 2.41511L11.4507 2.58179L11.0924 2.80677L10.7757 3.03178L10.6757 3.10678L10.4007 3.31511L10.0757 3.59009C9.75491 3.87745 9.45421 4.18652 9.17575 4.51508C9.08408 4.62341 8.99242 4.73174 8.90909 4.8484C8.82575 4.96506 8.74242 5.07339 8.65909 5.18172C8.57576 5.29005 8.49243 5.43173 8.4091 5.55672C8.32577 5.68172 8.14244 6.0067 8.01744 6.24836C7.89244 6.49002 7.85911 6.56503 7.79245 6.72336C7.72578 6.88169 7.69245 6.94001 7.65078 7.05668C7.64584 7.07581 7.64584 7.09588 7.65078 7.11502C7.59245 7.24835 7.55078 7.37333 7.50079 7.51499L7.37579 7.93165C7.33412 8.07331 7.30079 8.21499 7.26746 8.36499C7.23413 8.51498 7.20079 8.6483 7.17579 8.7983C7.02658 9.27544 6.91239 9.76284 6.83413 10.2566C4.43419 12.2982 0.934273 15.9731 1.00094 20.473C1.05927 28.6478 12.8007 37.181 23.3837 37.181C25.7188 37.2041 28.0318 36.7267 30.1669 35.781C32.2748 34.7865 34.1728 33.3977 35.7585 31.6894C35.9751 31.4478 36.1918 31.2061 36.4001 30.9561C36.6084 30.7061 36.8168 30.4561 37.0084 30.1978C38.0338 28.8581 38.841 27.3647 39.4 25.7729C39.45 25.6229 39.5 25.4729 39.5417 25.3312C39.5834 25.1896 39.6667 24.9229 39.7167 24.7146C39.8167 24.3146 39.9084 23.8813 39.975 23.498C40.0417 23.1146 40.0667 22.8563 40.0917 22.5313C40.1167 22.2063 40.0917 22.0397 40.0917 21.798C40.0917 21.5563 40.1667 21.198 40.1667 20.8897Z" fill="#CACACA" stroke="black" stroke-miterlimit="10"/>
<path d="M39.7834 24.948C40.2749 25.4966 40.54 26.2114 40.525 26.9479C40.3667 28.6146 38.4417 29.5645 37.0917 30.0812C33.0617 31.5762 28.747 32.1458 24.467 31.7478C20.7671 31.4062 16.5589 30.5729 13.5006 28.3396C12.1927 27.4588 11.2093 26.1739 10.7007 24.6813C10.4757 24.0178 10.4464 23.3035 10.6163 22.6238C10.7862 21.9441 11.1482 21.3276 11.659 20.8481C12.8173 19.8898 14.6839 20.0731 16.0256 20.4647C17.7589 20.9731 19.3588 21.7814 21.1088 22.3314C22.7565 22.8373 24.4512 23.1751 26.167 23.3397C30.3473 23.816 34.5784 23.1477 38.4084 21.4064C38.9359 21.1545 39.4504 20.8764 39.95 20.5731C40.2884 20.8344 40.5595 21.1727 40.7406 21.5599C40.9218 21.9472 41.0078 22.3721 40.9915 22.7993C40.9752 23.2265 40.857 23.6436 40.6469 24.0159C40.4367 24.3882 40.1407 24.7049 39.7834 24.9396V24.948Z" fill="#999999" stroke="black" stroke-linecap="round" stroke-linejoin="round"/>
<path d="M14.9423 24.2397C17.6309 25.7464 20.5556 26.7862 23.5921 27.3146C28.4484 28.2172 33.4624 27.6903 38.0251 25.7979C38.6507 25.5315 39.2625 25.234 39.8583 24.9063" stroke="black" stroke-width="1.06" stroke-miterlimit="10" stroke-linecap="round"/>
<path d="M33.2335 6.64832C28.942 6.64832 25.467 8.99825 25.467 11.8982C25.467 14.7981 28.942 17.1481 33.2335 17.1481C37.5251 17.1481 41 14.7981 41 11.8982C41 8.99825 37.5251 6.64832 33.2335 6.64832Z" fill="white" stroke="black" stroke-miterlimit="10" stroke-linecap="round"/>
<path d="M32.7086 14.4982C34.1445 14.4982 35.3085 13.3342 35.3085 11.8983C35.3085 10.4624 34.1445 9.29831 32.7086 9.29831C31.2727 9.29831 30.1086 10.4624 30.1086 11.8983C30.1086 13.3342 31.2727 14.4982 32.7086 14.4982Z" fill="black"/>
<path d="M7.54242 13.7899C7.03788 12.5636 6.81137 11.2407 6.87917 9.91633C6.94697 8.59201 7.3074 7.29916 7.93453 6.13077C8.56167 4.96237 9.43992 3.94746 10.5061 3.15904C11.5724 2.37061 12.8 1.82825 14.1009 1.57096C15.4018 1.31368 16.7435 1.34787 18.0296 1.67106C19.3156 1.99425 20.5141 2.5984 21.5388 3.4401C22.5635 4.28179 23.3889 5.34012 23.9558 6.53893C24.5226 7.73774 24.8167 9.04726 24.817 10.3733" stroke="black" stroke-miterlimit="10" stroke-linecap="round"/>
<path d="M20.5671 6.64832C16.2756 6.64832 12.8007 8.99825 12.8007 11.8982C12.8007 14.7981 16.2756 17.1481 20.5671 17.1481C24.8587 17.1481 28.3336 14.7981 28.3336 11.8982C28.3336 8.99825 24.8504 6.64832 20.5671 6.64832V6.64832Z" fill="white" stroke="black" stroke-miterlimit="10" stroke-linecap="round"/>
<path d="M19.2088 14.4982C20.6447 14.4982 21.8088 13.3342 21.8088 11.8983C21.8088 10.4624 20.6447 9.29831 19.2088 9.29831C17.7729 9.29831 16.6089 10.4624 16.6089 11.8983C16.6089 13.3342 17.7729 14.4982 19.2088 14.4982Z" fill="black"/>
</svg>
