<svg width="95" height="27" viewBox="0 0 95 27" fill="none" xmlns="http://www.w3.org/2000/svg">
<path d="M18.26 26L11.528 17L18.08 8H11.78L6.37998 15.884V0.799997H0.97998V26H6.37998V18.044L12.14 26H18.26ZM30.4202 8V17.828C30.4202 20.384 29.0522 21.536 27.0722 21.536C25.3442 21.536 23.9402 20.492 23.9402 18.26V8H18.5402V19.052C18.5402 23.912 21.6362 26.504 25.2722 26.504C27.6482 26.504 29.4482 25.64 30.4202 24.308V26H35.8202V8H30.4202ZM52.0981 0.799997V9.692C50.9101 8.324 49.1461 7.496 46.7341 7.496C42.0181 7.496 38.1301 11.636 38.1301 17C38.1301 22.364 42.0181 26.504 46.7341 26.504C49.1461 26.504 50.9101 25.676 52.0981 24.308V26H57.4981V0.799997H52.0981ZM47.8141 21.392C45.3301 21.392 43.5301 19.7 43.5301 17C43.5301 14.3 45.3301 12.608 47.8141 12.608C50.2981 12.608 52.0981 14.3 52.0981 17C52.0981 19.7 50.2981 21.392 47.8141 21.392ZM69.3495 26.504C74.6415 26.504 78.8895 22.364 78.8895 17C78.8895 11.636 74.6415 7.496 69.3495 7.496C64.0575 7.496 59.8095 11.636 59.8095 17C59.8095 22.364 64.0575 26.504 69.3495 26.504ZM69.3495 21.248C67.0095 21.248 65.2095 19.556 65.2095 17C65.2095 14.444 67.0095 12.752 69.3495 12.752C71.6895 12.752 73.4895 14.444 73.4895 17C73.4895 19.556 71.6895 21.248 69.3495 21.248ZM85.954 13.256C85.954 12.608 86.53 12.248 87.466 12.248C88.654 12.248 89.374 12.896 89.878 13.832L94.486 11.348C92.974 8.792 90.382 7.496 87.466 7.496C83.722 7.496 80.41 9.476 80.41 13.4C80.41 19.628 89.266 18.584 89.266 20.564C89.266 21.284 88.618 21.68 87.322 21.68C85.738 21.68 84.73 20.924 84.262 19.556L79.582 22.22C80.986 25.136 83.722 26.504 87.322 26.504C91.21 26.504 94.81 24.74 94.81 20.6C94.81 13.94 85.954 15.308 85.954 13.256Z" fill="black"/>
</svg>
