<svg width="240" height="240" viewBox="0 0 240 240" fill="none" xmlns="http://www.w3.org/2000/svg">
<path d="M185.59 214.94C184.585 214.94 183.581 214.853 182.59 214.68L39.5303 189.96C35.9303 189.34 33.5303 184.81 34.1503 179.87L43.3003 107.94C43.3003 107.8 43.3003 107.69 43.3503 107.57C43.4103 107.21 43.4703 106.91 43.5503 106.57C44.6303 102.07 48.0503 98.3899 51.5503 97.9999L199.61 81.58C200.274 81.5021 200.942 81.4621 201.61 81.46C207.56 81.46 212.27 84.5499 213.61 89.3199C213.61 89.4799 213.7 89.6399 213.73 89.8099C213.821 90.1849 213.884 90.5659 213.92 90.95C213.97 91.3814 213.99 91.8157 213.98 92.2499C213.98 92.4799 213.98 92.71 213.98 92.95C213.994 93.1497 213.994 93.3502 213.98 93.5499L200.2 203.15C199.35 209.98 193.21 214.94 185.59 214.94Z" fill="#FFE973"/>
<path d="M201.59 82.9898C206.85 82.9898 210.99 85.6398 212.13 89.7398C212.13 89.8798 212.2 90.0098 212.23 90.1398V90.2198C212.297 90.5061 212.344 90.7969 212.37 91.0898V91.2297C212.391 91.5628 212.391 91.8967 212.37 92.2297C212.37 92.4297 212.37 92.6398 212.37 92.8398V93.0298C212.37 93.0898 212.37 93.2598 212.37 93.3998L198.72 202.96C197.96 209.03 192.44 213.44 185.6 213.44C184.695 213.438 183.792 213.361 182.9 213.21L39.7799 188.48C37.0199 188.01 35.1199 184.15 35.6399 180.06L44.7899 108.12C44.7851 108.036 44.7851 107.953 44.7899 107.87V107.75C44.8266 107.484 44.8767 107.22 44.9399 106.96C45.8699 103.1 48.7999 99.8298 51.6099 99.5198L199.67 83.0997C200.287 83.0285 200.908 82.9918 201.53 82.9898M201.53 79.9898C200.798 79.9891 200.067 80.0325 199.34 80.1198L51.3399 96.5397C47.1699 96.9997 43.3399 101.2 42.0899 106.25C41.9999 106.6 41.9399 106.94 41.8799 107.25C41.8799 107.41 41.8299 107.56 41.8099 107.72L32.6599 179.68C31.9299 185.42 34.8399 190.68 39.2699 191.44L182.39 216.16C183.45 216.346 184.524 216.44 185.6 216.44C193.73 216.44 200.73 211.07 201.69 203.33L215.36 93.7897C215.395 93.5579 215.415 93.3242 215.42 93.0898C215.42 92.8298 215.42 92.5698 215.42 92.3098C215.432 91.8254 215.409 91.3407 215.35 90.8597C215.315 90.4116 215.245 89.9669 215.14 89.5298C215.14 89.3398 215.05 89.1398 214.99 88.9398C213.49 83.5398 208.27 79.9898 201.56 79.9898H201.53Z" fill="black"/>
<path d="M46.4098 180.68C46.1331 180.565 45.8492 180.468 45.5598 180.39C45.068 180.263 44.6091 180.033 44.214 179.713C43.8189 179.394 43.497 178.994 43.2698 178.54C43.0115 177.867 42.8532 177.159 42.7998 176.44L51.1198 110.99C51.1698 110.86 51.2298 110.74 51.2798 110.61C51.5198 110.04 51.8398 109.25 51.9998 108.99C52.2824 108.46 52.6894 108.007 53.1858 107.669C53.6822 107.331 54.2532 107.118 54.8498 107.05L55.2498 106.99L173.44 95.8799L173.28 97.0999L185.1 96.7499C187.52 96.6799 188.82 97.2299 189.87 98.7499C190.182 99.4435 190.433 100.163 190.62 100.9L190.77 101.41L179.23 193.62C178.807 194.604 178.204 195.499 177.45 196.26C175.993 197.354 174.186 197.877 172.37 197.73C171.74 197.73 171.16 197.73 170.72 197.73L46.4098 180.68Z" fill="#DCAA13" stroke="black" stroke-width="3" stroke-miterlimit="10"/>
<path d="M46.1001 180.64L98.8901 187.88L112.44 80.5098L57.8901 87.8098C56.7355 88.0714 55.69 88.6837 54.897 89.5627C54.1039 90.4417 53.602 91.5444 53.4601 92.7198L42.9101 175.72C42.6001 178.15 44.0001 180.35 46.1001 180.64Z" fill="#E1F2FF" stroke="black" stroke-width="3" stroke-miterlimit="10"/>
<path d="M165.18 179.75C140.45 178.81 119.37 181.61 99.3701 187.26C103.87 151.62 108.367 116.017 112.86 80.4498C133.538 69.5419 155.541 61.3572 178.32 56.0998C188.19 53.7998 196.08 58.9498 195.02 67.3698C190.88 100.51 186.733 133.68 182.58 166.88C181.62 174.5 173.88 180.08 165.18 179.75Z" fill="#E1F2FF" stroke="black" stroke-width="3" stroke-miterlimit="10"/>
<path d="M78.5199 115.34L74.7899 112.57C74.4485 112.351 74.0465 112.247 73.6421 112.272C73.2376 112.298 72.8516 112.451 72.5399 112.71L68.1999 115.88C67.9372 116.129 67.6009 116.287 67.2412 116.329C66.8816 116.372 66.5178 116.297 66.2041 116.116C65.8904 115.935 65.6436 115.657 65.5005 115.325C65.3574 114.992 65.3256 114.622 65.4099 114.27L68.9999 86.3298L85.7499 84.0898L81.9999 113.33C81.7699 115.12 79.7699 116.27 78.5199 115.34Z" fill="#EBBB28" stroke="black" stroke-width="3" stroke-miterlimit="10"/>
</svg>
