<svg width="176" height="59" viewBox="0 0 176 59" fill="none" xmlns="http://www.w3.org/2000/svg">
<path d="M25.68 46L16.704 34L25.44 22H17.04L9.84 32.512V12.4H2.64V46H9.84V35.392L17.52 46H25.68ZM42.894 22V35.104C42.894 38.512 41.07 40.048 38.43 40.048C36.126 40.048 34.254 38.656 34.254 35.68V22H27.054V36.736C27.054 43.216 31.182 46.672 36.03 46.672C39.198 46.672 41.598 45.52 42.894 43.744V46H50.094V22H42.894ZM72.7984 12.4V24.256C71.2144 22.432 68.8624 21.328 65.6464 21.328C59.3584 21.328 54.1744 26.848 54.1744 34C54.1744 41.152 59.3584 46.672 65.6464 46.672C68.8624 46.672 71.2144 45.568 72.7984 43.744V46H79.9984V12.4H72.7984ZM67.0864 39.856C63.7744 39.856 61.3744 37.6 61.3744 34C61.3744 30.4 63.7744 28.144 67.0864 28.144C70.3984 28.144 72.7984 30.4 72.7984 34C72.7984 37.6 70.3984 39.856 67.0864 39.856ZM96.8006 46.672C103.857 46.672 109.521 41.152 109.521 34C109.521 26.848 103.857 21.328 96.8006 21.328C89.7446 21.328 84.0806 26.848 84.0806 34C84.0806 41.152 89.7446 46.672 96.8006 46.672ZM96.8006 39.664C93.6806 39.664 91.2806 37.408 91.2806 34C91.2806 30.592 93.6806 28.336 96.8006 28.336C99.9206 28.336 102.321 30.592 102.321 34C102.321 37.408 99.9206 39.664 96.8006 39.664ZM119.94 29.008C119.94 28.144 120.708 27.664 121.956 27.664C123.54 27.664 124.5 28.528 125.172 29.776L131.316 26.464C129.3 23.056 125.844 21.328 121.956 21.328C116.964 21.328 112.548 23.968 112.548 29.2C112.548 37.504 124.356 36.112 124.356 38.752C124.356 39.712 123.492 40.24 121.764 40.24C119.652 40.24 118.308 39.232 117.684 37.408L111.444 40.96C113.316 44.848 116.964 46.672 121.764 46.672C126.948 46.672 131.748 44.32 131.748 38.8C131.748 29.92 119.94 31.744 119.94 29.008Z" fill="black"/>
<rect x="141" y="19" width="3" height="8" fill="#0072E3"/>
<rect x="173" y="19" width="3" height="8" fill="#0072E3"/>
<rect x="144" y="19" width="29" height="3" fill="#0080FF"/>
<rect x="163" y="16" width="7" height="3" fill="#0080FF"/>
<rect x="147" y="16" width="7" height="3" fill="#0080FF"/>
<rect x="144" y="16" width="3" height="3" fill="#0072E3"/>
<rect x="170" y="16" width="3" height="3" fill="#0072E3"/>
<rect x="144" y="30" width="3" height="3" fill="#EBBB28"/>
<rect x="141" y="27" width="3" height="3" fill="#EBBB28"/>
<rect x="173" y="27" width="3" height="3" fill="#EBBB28"/>
<rect x="170" y="30" width="3" height="3" fill="#EBBB28"/>
<rect x="147" y="33" width="3" height="3" fill="#EBBB28"/>
<rect x="167" y="33" width="3" height="3" fill="#EBBB28"/>
<rect x="150" y="36" width="3" height="3" fill="#EBBB28"/>
<rect x="164" y="36" width="3" height="3" fill="#EBBB28"/>
<rect x="153" y="39" width="3" height="3" fill="#EBBB28"/>
<rect x="161" y="39" width="3" height="3" fill="#EBBB28"/>
<rect x="156" y="42" width="5" height="3" fill="#EBBB28"/>
<rect x="154" y="16" width="3" height="3" fill="#0072E3"/>
<rect x="160" y="16" width="3" height="3" fill="#0072E3"/>
<rect x="157" y="19" width="3" height="3" fill="#0072E3"/>
<rect x="147" y="13" width="7" height="3" fill="#0072E3"/>
<rect x="163" y="13" width="7" height="3" fill="#0072E3"/>
<rect x="144" y="27" width="29" height="3" fill="#F2C94C"/>
<rect x="144" y="24" width="29" height="3" fill="#0080FF"/>
<rect x="144" y="22" width="29" height="2" fill="#0080FF"/>
<rect x="147" y="30" width="23" height="3" fill="#F2C94C"/>
<rect x="150" y="33" width="17" height="3" fill="#F2C94C"/>
<rect x="153" y="36" width="11" height="3" fill="#F2C94C"/>
<rect x="156" y="39" width="5" height="3" fill="#F2C94C"/>
<rect x="170" y="20" width="2" height="6" fill="#359AFF"/>
<rect width="2" height="2" transform="matrix(1 0 0 -1 167 20)" fill="#359AFF"/>
</svg>
