<svg width="16" height="16" viewBox="0 0 16 16" fill="none" xmlns="http://www.w3.org/2000/svg"><path d="M9.73333 10.9917L11.8917 8.83333H3.83333V7.16667H11.8917L9.73333 5.00833L10.9167 3.83333L15.0833 8L10.9167 12.1667L9.73333 10.9917ZM13.8333 0.5C14.2754 0.5 14.6993 0.675595 15.0118 0.988155C15.3244 1.30072 15.5 1.72464 15.5 2.16667V6.05833L13.8333 4.39167V2.16667H2.16667V13.8333H13.8333V11.6083L15.5 9.94167V13.8333C15.5 14.2754 15.3244 14.6993 15.0118 15.0118C14.6993 15.3244 14.2754 15.5 13.8333 15.5H2.16667C1.24167 15.5 0.5 14.75 0.5 13.8333V2.16667C0.5 1.24167 1.24167 0.5 2.16667 0.5H13.8333Z"/></svg>
