<svg width="24" height="24" viewBox="0 0 24 24" fill="none" xmlns="http://www.w3.org/2000/svg">
<path d="M21.3899 5.07V21C21.3899 22.6575 20.0474 24 18.3899 24H5.60986C3.95236 24 2.60986 22.6575 2.60986 21V3C2.60986 1.3425 3.95236 0 5.60986 0H16.3199L21.3899 5.07Z" fill="#379FFF"/>
<path d="M16.3198 0V2.07C16.3198 3.7275 17.6623 5.07 19.3198 5.07H21.3898L16.3198 0Z" fill="#0061FE"/>
<path d="M16.53 15.66H2.41504C1.59004 15.66 0.915039 14.985 0.915039 14.16V9.83997C0.915039 9.01497 1.59004 8.33997 2.41504 8.33997H16.5225C17.3475 8.33997 18.0225 9.01497 18.0225 9.83997V14.16C18.03 14.985 17.355 15.66 16.53 15.66Z" fill="#0061FE"/>
<path d="M8.09273 14.055H7.27523V11.3325L6.09023 13.2825H6.00023L4.81523 11.34V14.055H3.99023V9.85498H4.84523L6.05273 11.8425L7.25273 9.85498H8.10773V14.055H8.09273Z" fill="#F4F4F4"/>
<path d="M11.8802 11.265C11.8802 12.0525 11.2577 12.675 10.4477 12.675H9.71269V14.055H8.8877V9.85498H10.4552C11.2502 9.86248 11.8802 10.485 11.8802 11.265ZM11.0552 11.265C11.0552 10.8975 10.8002 10.6275 10.4402 10.6275H9.70519V11.9025H10.4402C10.8002 11.9025 11.0552 11.625 11.0552 11.265Z" fill="#F4F4F4"/>
<path d="M14.9551 12.7574C14.9551 13.6574 14.2501 14.1374 13.4551 14.1374C12.8251 14.1374 12.2551 13.8524 12.0151 13.2524L12.7201 12.8474C12.8251 13.1624 13.0576 13.3349 13.4551 13.3349C13.8901 13.3349 14.1301 13.1099 14.1301 12.7649C14.1301 12.4274 13.8901 12.1949 13.4551 12.1949H13.2751L12.9601 11.7149L13.7851 10.6349H12.1426V9.86243H14.7826V10.5449L13.9951 11.5649C14.5426 11.7224 14.9551 12.1424 14.9551 12.7574Z" fill="#F4F4F4"/>
</svg>
