<svg width="24" height="24" viewBox="0 0 24 24" fill="none" xmlns="http://www.w3.org/2000/svg">
<g clip-path="url(#clip0_1305_5445)">
<path d="M24 21V3C24 1.3425 22.6575 0 21 0H3C1.3425 0 0 1.35 0 3V21C0 22.6575 1.3425 24 3 24H21C22.6575 24 24 22.6575 24 21Z" fill="#3F3F3F"/>
<path d="M18.6901 2.5275V0H5.31006V2.5275C5.31006 3.3525 5.98506 4.0275 6.81006 4.0275H17.1901C18.0226 4.0275 18.6901 3.36 18.6901 2.5275Z" fill="#00C2FF"/>
<path d="M18.6901 24V21.4725C18.6901 20.6475 18.0151 19.9725 17.1901 19.9725H6.81006C5.98506 19.9725 5.31006 20.6475 5.31006 21.4725V24H18.6901Z" fill="#00C2FF"/>
<path d="M18.6901 16.9725V7.02747C18.6901 6.20247 18.0151 5.52747 17.1901 5.52747H6.81006C5.98506 5.52747 5.31006 6.20247 5.31006 7.02747V16.9725C5.31006 17.7975 5.98506 18.4725 6.81006 18.4725H17.1901C18.0226 18.4725 18.6901 17.7975 18.6901 16.9725Z" fill="#00C2FF"/>
<path d="M9.43506 13.7925C9.43506 15.1275 10.3801 15.675 11.5351 15.0075L14.6251 13.2225C15.7801 12.555 15.7801 11.4675 14.6251 10.8L11.5351 9.01495C10.3801 8.34745 9.43506 8.89495 9.43506 10.23V13.7925Z" fill="white"/>
<path d="M1.50732 6.89246C1.50732 6.47996 1.84482 6.14246 2.25732 6.14246H3.05982C3.47232 6.14246 3.80982 6.47996 3.80982 6.89246C3.80982 7.30496 3.47232 7.64246 3.05982 7.64246H2.25732C1.84482 7.64246 1.50732 7.30496 1.50732 6.89246Z" fill="white"/>
<path d="M1.50732 10.2975C1.50732 9.88499 1.84482 9.54749 2.25732 9.54749H3.05982C3.47232 9.54749 3.80982 9.88499 3.80982 10.2975C3.80982 10.71 3.47232 11.0475 3.05982 11.0475H2.25732C1.84482 11.0475 1.50732 10.71 1.50732 10.2975Z" fill="white"/>
<path d="M1.50732 13.7025C1.50732 13.29 1.84482 12.9525 2.25732 12.9525H3.05982C3.47232 12.9525 3.80982 13.29 3.80982 13.7025C3.80982 14.115 3.47232 14.4525 3.05982 14.4525H2.25732C1.84482 14.4525 1.50732 14.115 1.50732 13.7025Z" fill="white"/>
<path d="M1.50732 17.1074C1.50732 16.6949 1.84482 16.3574 2.25732 16.3574H3.05982C3.47232 16.3574 3.80982 16.6949 3.80982 17.1074C3.80982 17.5199 3.47232 17.8574 3.05982 17.8574H2.25732C1.84482 17.8574 1.50732 17.5274 1.50732 17.1074Z" fill="white"/>
<path d="M1.50732 20.52C1.50732 20.1075 1.84482 19.77 2.25732 19.77H3.05982C3.47232 19.77 3.80982 20.1075 3.80982 20.52C3.80982 20.9325 3.47232 21.27 3.05982 21.27H2.25732C1.84482 21.27 1.50732 20.9325 1.50732 20.52Z" fill="white"/>
<path d="M1.50732 3.47998C1.50732 3.06748 1.84482 2.72998 2.25732 2.72998H3.05982C3.47232 2.72998 3.80982 3.06748 3.80982 3.47998C3.80982 3.89248 3.47232 4.22998 3.05982 4.22998H2.25732C1.84482 4.22998 1.50732 3.89998 1.50732 3.47998Z" fill="white"/>
<path d="M22.4924 6.89246C22.4924 6.47996 22.1549 6.14246 21.7424 6.14246H20.9399C20.5274 6.14246 20.1899 6.47996 20.1899 6.89246C20.1899 7.30496 20.5274 7.64246 20.9399 7.64246H21.7424C22.1549 7.64246 22.4924 7.30496 22.4924 6.89246Z" fill="white"/>
<path d="M22.4924 10.2975C22.4924 9.88499 22.1549 9.54749 21.7424 9.54749H20.9399C20.5274 9.54749 20.1899 9.88499 20.1899 10.2975C20.1899 10.71 20.5274 11.0475 20.9399 11.0475H21.7424C22.1549 11.0475 22.4924 10.71 22.4924 10.2975Z" fill="white"/>
<path d="M22.4924 13.7025C22.4924 13.29 22.1549 12.9525 21.7424 12.9525H20.9399C20.5274 12.9525 20.1899 13.29 20.1899 13.7025C20.1899 14.115 20.5274 14.4525 20.9399 14.4525H21.7424C22.1549 14.4525 22.4924 14.115 22.4924 13.7025Z" fill="white"/>
<path d="M22.4924 17.1074C22.4924 16.6949 22.1549 16.3574 21.7424 16.3574H20.9399C20.5274 16.3574 20.1899 16.6949 20.1899 17.1074C20.1899 17.5199 20.5274 17.8574 20.9399 17.8574H21.7424C22.1549 17.8574 22.4924 17.5274 22.4924 17.1074Z" fill="white"/>
<path d="M22.4924 20.52C22.4924 20.1075 22.1549 19.77 21.7424 19.77H20.9399C20.5274 19.77 20.1899 20.1075 20.1899 20.52C20.1899 20.9325 20.5274 21.27 20.9399 21.27H21.7424C22.1549 21.27 22.4924 20.9325 22.4924 20.52Z" fill="white"/>
<path d="M22.4924 3.47998C22.4924 3.06748 22.1549 2.72998 21.7424 2.72998H20.9399C20.5274 2.72998 20.1899 3.06748 20.1899 3.47998C20.1899 3.89248 20.5274 4.22998 20.9399 4.22998H21.7424C22.1549 4.22998 22.4924 3.89998 22.4924 3.47998Z" fill="white"/>
</g>
<defs>
<clipPath id="clip0_1305_5445">
<rect width="24" height="24" fill="white"/>
</clipPath>
</defs>
</svg>
