<svg width="14" height="19" viewBox="0 0 14 19" fill="none" xmlns="http://www.w3.org/2000/svg">
<path d="M7.00016 14.1667C6.07516 14.1667 5.3335 13.4167 5.3335 12.5C5.3335 11.575 6.07516 10.8333 7.00016 10.8333C7.44219 10.8333 7.86611 11.0089 8.17867 11.3215C8.49123 11.6341 8.66683 12.058 8.66683 12.5C8.66683 12.942 8.49123 13.366 8.17867 13.6785C7.86611 13.9911 7.44219 14.1667 7.00016 14.1667ZM12.0002 16.6667V8.33334H2.00016V16.6667H12.0002ZM12.0002 6.66668C12.4422 6.66668 12.8661 6.84227 13.1787 7.15483C13.4912 7.46739 13.6668 7.89132 13.6668 8.33334V16.6667C13.6668 17.1087 13.4912 17.5326 13.1787 17.8452C12.8661 18.1577 12.4422 18.3333 12.0002 18.3333H2.00016C1.07516 18.3333 0.333496 17.5833 0.333496 16.6667V8.33334C0.333496 7.40834 1.07516 6.66668 2.00016 6.66668H2.8335V5.00001C2.8335 3.89494 3.27248 2.83513 4.05388 2.05373C4.83529 1.27233 5.89509 0.833344 7.00016 0.833344C7.54734 0.833344 8.08915 0.941118 8.59468 1.15051C9.1002 1.35991 9.55953 1.66682 9.94644 2.05373C10.3334 2.44064 10.6403 2.89997 10.8497 3.4055C11.0591 3.91102 11.1668 4.45284 11.1668 5.00001V6.66668H12.0002ZM7.00016 2.50001C6.33712 2.50001 5.70124 2.7634 5.2324 3.23224C4.76355 3.70108 4.50016 4.33697 4.50016 5.00001V6.66668H9.50016V5.00001C9.50016 4.33697 9.23677 3.70108 8.76793 3.23224C8.29909 2.7634 7.6632 2.50001 7.00016 2.50001Z" fill="black"/>
</svg>
