<svg width="16" height="15" viewBox="0 0 16 15" fill="none" xmlns="http://www.w3.org/2000/svg">
<path d="M8.08 12.7112L8 12.7929L7.912 12.7112C4.112 9.18801 1.6 6.85831 1.6 4.49591C1.6 2.86104 2.8 1.63488 4.4 1.63488C5.632 1.63488 6.832 2.45232 7.256 3.56403H8.744C9.168 2.45232 10.368 1.63488 11.6 1.63488C13.2 1.63488 14.4 2.86104 14.4 4.49591C14.4 6.85831 11.888 9.18801 8.08 12.7112ZM11.6 0C10.208 0 8.872 0.662125 8 1.70027C7.128 0.662125 5.792 0 4.4 0C1.936 0 0 1.97003 0 4.49591C0 7.57766 2.72 10.1035 6.84 13.921L8 15L9.16 13.921C13.28 10.1035 16 7.57766 16 4.49591C16 1.97003 14.064 0 11.6 0Z" fill="white"/>
</svg>
