<svg width="240" height="240" viewBox="0 0 240 240" fill="none" xmlns="http://www.w3.org/2000/svg">
<path d="M194.58 194.57C194.06 194.57 193.58 194.57 193.02 194.5L29.73 180.75C28.697 180.665 27.6929 180.367 26.7807 179.875C25.8686 179.382 25.0682 178.707 24.43 177.89C23.6167 176.817 23.0298 175.59 22.7049 174.284C22.3801 172.978 22.3239 171.619 22.54 170.29L33.44 93.18C34.2 87.79 38.87 83.04 43.84 82.58L207.25 67.58C207.83 67.53 208.42 67.5 208.99 67.5C213.17 67.5 216.88 68.95 219.17 71.5C220.068 72.4934 220.74 73.6687 221.142 74.9457C221.545 76.2228 221.667 77.5715 221.5 78.9L210.5 182.07C209.8 189.09 202.79 194.57 194.58 194.57Z" fill="#FFCA99"/>
<path d="M209 66.03V69.03C212.76 69.03 216.06 70.3 218.06 72.53C218.823 73.3646 219.397 74.3543 219.742 75.4313C220.087 76.5083 220.196 77.6472 220.06 78.77L209.06 181.94C208.39 188.18 202.06 193.07 194.59 193.07C194.11 193.07 193.63 193.05 193.15 193.01L29.85 179.26C29.0208 179.192 28.2148 178.953 27.4832 178.557C26.7515 178.161 26.1102 177.617 25.6 176.96C24.9114 176.047 24.4147 175.004 24.1398 173.894C23.8648 172.783 23.8172 171.629 24 170.5L34.9 93.38C35.56 88.72 39.7 84.45 43.9 84.06L207.3 69.06C207.84 69.01 208.38 68.99 208.91 68.99V65.99M208.91 65.99C208.29 65.99 207.67 65.99 207.03 66.07L43.63 81.07C37.95 81.59 32.73 86.9 31.88 92.95L21.06 170.08C20.18 176.32 23.95 181.77 29.6 182.25L192.89 196C193.46 196.05 194.02 196.07 194.58 196.07C203.46 196.07 211.19 190.15 212.03 182.26L223.03 79.09C223.83 71.57 217.61 66.03 209.03 66.03L208.91 65.99Z" fill="black"/>
<path d="M29.73 180.75C28.697 180.665 27.6929 180.367 26.7807 179.875C25.8686 179.382 25.0682 178.707 24.43 177.89C23.6167 176.817 23.0298 175.59 22.7049 174.284C22.3801 172.978 22.3239 171.619 22.54 170.29L33.44 93.18C34.2 87.79 38.87 83.04 43.84 82.58L99.84 77.45L85.91 185.49L29.73 180.75Z" fill="#FF7C03"/>
<path d="M98.11 79.11L84.61 183.87L29.85 179.26C29.0208 179.192 28.2148 178.953 27.4832 178.557C26.7515 178.161 26.1102 177.617 25.6 176.96C24.9114 176.047 24.4147 175.004 24.1398 173.894C23.8648 172.783 23.8172 171.629 24 170.5L34.9 93.38C35.56 88.72 39.7 84.45 43.9 84.06L98.03 79.11M101.48 75.78L43.63 81.08C37.95 81.6 32.73 86.91 31.88 92.96L21.06 170.08C20.18 176.32 23.95 181.77 29.6 182.25L87.22 187.1L101.56 75.78H101.48Z" fill="black"/>
<path d="M33.4602 93.1C34.2202 87.72 38.8802 82.96 43.8502 82.5L207.26 67.5C207.84 67.5 208.43 67.42 209 67.42C210.88 67.3441 212.755 67.6605 214.506 68.3492C216.257 69.0379 217.846 70.0837 219.17 71.42C220.069 72.4123 220.743 73.5875 221.146 74.8648C221.548 76.1422 221.669 77.4915 221.5 78.82L220.08 92.18L32.1602 102.29L33.4602 93.1Z" fill="white"/>
<path d="M209 68.9499C210.669 68.8711 212.336 69.1417 213.894 69.7444C215.453 70.3471 216.868 71.2686 218.05 72.4499C218.813 73.2827 219.387 74.2706 219.732 75.346C220.077 76.4214 220.186 77.5587 220.05 78.6799L218.76 90.7799L33.8999 100.69L34.9999 93.3099C35.6499 88.6599 39.7999 84.3899 43.9999 83.9999L207.4 68.9999C207.94 68.9999 208.48 68.9299 209.01 68.9299M209.01 65.9299C208.4 65.9299 207.77 65.9299 207.13 66.0199L43.7299 81.0199C38.0499 81.5399 32.8299 86.8499 31.9799 92.8999L30.4199 103.9L221.42 93.6599L223 78.9999C223.8 71.4799 217.58 65.9399 209 65.9399L209.01 65.9299Z" fill="black"/>
<path d="M43.28 89.9999C43.5239 89.9989 43.7648 90.0543 43.9837 90.1619C44.2026 90.2694 44.3936 90.4262 44.5418 90.6199C44.69 90.8136 44.7913 91.039 44.8379 91.2784C44.8844 91.5179 44.8749 91.7648 44.81 91.9999C44.7184 92.5566 44.4502 93.069 44.0451 93.4615C43.6399 93.8541 43.1193 94.1059 42.56 94.1799H42.43C42.1877 94.1775 41.9491 94.1196 41.7325 94.0108C41.5159 93.902 41.327 93.7451 41.1803 93.5521C41.0337 93.3591 40.9331 93.1352 40.8862 92.8973C40.8394 92.6595 40.8475 92.4141 40.91 92.1799C40.9918 91.6166 41.2529 91.0945 41.6545 90.6911C42.0562 90.2876 42.577 90.0243 43.14 89.9399H43.28M43.28 86.9399H42.92C41.6677 87.0687 40.4947 87.6134 39.5883 88.4871C38.6819 89.3609 38.0946 90.5131 37.92 91.7599C37.8065 92.451 37.8442 93.1585 38.0307 93.8335C38.2171 94.5086 38.5479 95.1351 39 95.6699C39.4297 96.1533 39.9585 96.5384 40.5504 96.799C41.1423 97.0596 41.7834 97.1895 42.43 97.1799H42.77C44.0243 97.0563 45.2001 96.5133 46.1075 95.6386C47.0148 94.7639 47.6006 93.6088 47.77 92.3599C47.8739 91.6799 47.8312 90.9855 47.645 90.3232C47.4587 89.661 47.1331 89.0462 46.69 88.5199C46.2617 88.0362 45.735 87.6495 45.1452 87.3857C44.5554 87.1218 43.9161 86.9869 43.27 86.9899L43.28 86.9399Z" fill="black"/>
<path d="M54.7301 89.18C54.9764 89.1777 55.22 89.2316 55.4424 89.3376C55.6648 89.4436 55.8601 89.599 56.0134 89.7918C56.1667 89.9846 56.274 90.2099 56.3271 90.4505C56.3803 90.691 56.3779 90.9405 56.3201 91.18C56.2254 91.7521 55.9484 92.2783 55.5303 92.6802C55.1122 93.082 54.5755 93.338 54.0001 93.41H53.8701C53.6235 93.4119 53.3797 93.3578 53.1571 93.2519C52.9344 93.1459 52.7387 92.9908 52.5847 92.7983C52.4307 92.6058 52.3223 92.3808 52.2678 92.1403C52.2133 91.8998 52.2141 91.6502 52.2701 91.41C52.3672 90.8407 52.6437 90.3172 53.0593 89.9161C53.4748 89.5149 54.0076 89.257 54.5801 89.18H54.7301ZM54.7301 86.18H54.3501C53.084 86.3103 51.898 86.8606 50.981 87.7432C50.064 88.6258 49.4687 89.7899 49.2901 91.05C49.1907 91.733 49.2374 92.4294 49.427 93.093C49.6166 93.7567 49.9449 94.3726 50.3901 94.9C50.8238 95.3917 51.3581 95.7845 51.9567 96.0519C52.5554 96.3193 53.2044 96.4551 53.8601 96.45H54.2001C55.4745 96.3316 56.6716 95.7862 57.5973 94.9023C58.523 94.0184 59.123 92.8476 59.3001 91.58C59.4001 90.897 59.3537 90.2005 59.164 89.5367C58.9744 88.873 58.6458 88.2571 58.2001 87.73C57.7655 87.2393 57.2311 86.8472 56.6326 86.5799C56.0342 86.3126 55.3855 86.1762 54.7301 86.18Z" fill="black"/>
<path d="M66.63 88.1799C66.8794 88.1768 67.1265 88.2294 67.3531 88.3337C67.5798 88.438 67.7804 88.5915 67.9403 88.783C68.1002 88.9745 68.2155 89.1993 68.2777 89.4409C68.3399 89.6825 68.3475 89.935 68.3 90.1799C68.208 90.7809 67.9215 91.3352 67.4844 91.7579C67.0473 92.1805 66.4837 92.4482 65.88 92.5199H65.74C65.4905 92.523 65.2434 92.4705 65.0168 92.3662C64.7901 92.2619 64.5895 92.1084 64.4296 91.9168C64.2697 91.7253 64.1545 91.5006 64.0922 91.2589C64.03 91.0173 64.0224 90.7649 64.07 90.5199C64.164 89.9232 64.4486 89.3729 64.8811 88.9511C65.3137 88.5294 65.871 88.2589 66.47 88.1799H66.63ZM66.63 85.1799H66.24C64.9454 85.313 63.7337 85.8791 62.8009 86.7865C61.8681 87.6939 61.2688 88.8896 61.1 90.1799C60.9999 90.8653 61.0471 91.5641 61.2385 92.2297C61.4299 92.8953 61.7611 93.5124 62.21 94.0399C62.6527 94.5378 63.1966 94.9354 63.8054 95.2062C64.4142 95.4769 65.0737 95.6146 65.74 95.6099H66.09C67.3832 95.4937 68.599 94.9433 69.5396 94.0481C70.4801 93.153 71.09 91.9658 71.27 90.6799C71.3701 89.9946 71.3228 89.2958 71.1314 88.6302C70.94 87.9645 70.6088 87.3474 70.16 86.8199C69.7237 86.3093 69.1826 85.8985 68.5735 85.6155C67.9644 85.3326 67.3016 85.184 66.63 85.1799Z" fill="black"/>
<path d="M71.0898 169.37C70.5968 169.376 70.1099 169.261 69.6721 169.034C69.2343 168.807 68.8591 168.476 68.5798 168.07L53.2798 146.48C51.9898 144.65 52.4198 141.77 54.2798 139.93L75.1898 119.1C75.973 118.274 77.0518 117.792 78.1898 117.76C78.6014 117.75 79.0104 117.828 79.3896 117.989C79.7688 118.149 80.1097 118.388 80.3898 118.69C80.6623 119.026 80.8589 119.417 80.9659 119.837C81.0729 120.256 81.0879 120.694 81.0098 121.12L79.2998 133.94L110.89 133.84C111.403 133.823 111.914 133.919 112.387 134.119C112.86 134.319 113.284 134.62 113.63 135C113.944 135.363 114.176 135.789 114.311 136.25C114.446 136.711 114.479 137.195 114.41 137.67L112.86 150.02C112.681 151.143 112.111 152.167 111.252 152.912C110.392 153.656 109.297 154.073 108.16 154.09L76.7898 153.09L75.1298 165.7C75.0176 166.694 74.552 167.614 73.8177 168.293C73.0834 168.973 72.1294 169.365 71.1298 169.4L71.0898 169.37Z" fill="#A9D8FF"/>
<path d="M78.1602 119.26C78.3583 119.249 78.5564 119.281 78.741 119.353C78.9257 119.426 79.0925 119.537 79.2302 119.68C79.361 119.857 79.452 120.061 79.4968 120.277C79.5417 120.492 79.5395 120.715 79.4902 120.93L78.0002 132.05L77.5602 135.45H81.0002L110.88 135.35C111.179 135.337 111.478 135.388 111.756 135.5C112.034 135.612 112.284 135.783 112.49 136C112.661 136.204 112.787 136.443 112.857 136.7C112.928 136.958 112.943 137.227 112.9 137.49L111.36 149.84C111.226 150.603 110.83 151.296 110.241 151.8C109.651 152.303 108.905 152.586 108.13 152.6H108.04L78.1702 151.6L75.4602 151.51L75.1202 154.18L73.6402 165.44C73.5697 166.078 73.2743 166.67 72.8071 167.109C72.3398 167.549 71.7311 167.808 71.0902 167.84C70.8368 167.849 70.5853 167.793 70.3596 167.677C70.1339 167.562 69.9413 167.391 69.8002 167.18L54.5102 145.61C53.6402 144.38 54.0102 142.31 55.3302 140.99L76.2402 120.18C76.7362 119.638 77.4265 119.315 78.1602 119.28M78.1602 116.28C76.6438 116.321 75.2054 116.961 74.1602 118.06L53.2102 138.87C50.8302 141.24 50.3302 144.87 52.0602 147.34L67.3602 168.94C67.7763 169.543 68.3341 170.034 68.9844 170.37C69.6348 170.707 70.358 170.878 71.0902 170.87C72.4594 170.842 73.7724 170.32 74.7882 169.402C75.804 168.483 76.4545 167.229 76.6202 165.87L78.1002 154.62L107.96 155.62H108.15C109.656 155.606 111.107 155.055 112.243 154.067C113.38 153.08 114.127 151.719 114.35 150.23L115.89 137.88C115.989 137.177 115.932 136.461 115.723 135.782C115.514 135.103 115.159 134.479 114.682 133.953C114.205 133.427 113.618 133.013 112.962 132.739C112.307 132.466 111.6 132.34 110.89 132.37L81.0202 132.47L82.4802 121.35C82.6003 120.723 82.5781 120.078 82.4153 119.461C82.2524 118.844 81.9531 118.272 81.5394 117.786C81.1257 117.3 80.6081 116.914 80.025 116.655C79.4418 116.396 78.808 116.271 78.1702 116.29L78.1602 116.28Z" fill="black"/>
<path d="M130.05 170.06H129.71L118.71 169.45C118.03 169.424 117.363 169.258 116.75 168.962C116.137 168.666 115.592 168.247 115.15 167.73C114.749 167.246 114.454 166.684 114.282 166.08C114.11 165.476 114.065 164.842 114.15 164.22C114.384 162.833 115.098 161.572 116.168 160.659C117.237 159.745 118.593 159.235 120 159.22H120.21L131.21 159.62C131.937 159.628 132.655 159.789 133.317 160.092C133.978 160.396 134.569 160.834 135.05 161.38C135.47 161.87 135.783 162.443 135.967 163.061C136.151 163.68 136.203 164.33 136.12 164.97C135.899 166.411 135.161 167.722 134.044 168.659C132.927 169.596 131.507 170.094 130.05 170.06Z" fill="#A9D8FF"/>
<path d="M120 160.73H120.15L131.15 161.12C131.673 161.125 132.189 161.239 132.666 161.454C133.143 161.67 133.57 161.981 133.92 162.37C134.204 162.701 134.415 163.089 134.537 163.508C134.66 163.927 134.691 164.368 134.63 164.8C134.434 165.867 133.866 166.83 133.028 167.518C132.19 168.206 131.135 168.575 130.05 168.56H129.79L118.79 167.95C118.316 167.934 117.851 167.822 117.422 167.619C116.994 167.416 116.612 167.127 116.3 166.77C116.031 166.443 115.832 166.063 115.717 165.655C115.602 165.247 115.572 164.82 115.63 164.4C115.809 163.372 116.346 162.441 117.146 161.771C117.946 161.102 118.957 160.736 120 160.74M120 157.74C118.227 157.74 116.513 158.375 115.167 159.528C113.821 160.682 112.932 162.278 112.66 164.03C112.553 164.887 112.628 165.757 112.879 166.583C113.131 167.41 113.553 168.174 114.119 168.826C114.684 169.479 115.381 170.005 116.164 170.371C116.946 170.737 117.796 170.934 118.66 170.95L129.66 171.56H130.08C131.898 171.577 133.662 170.941 135.05 169.766C136.438 168.591 137.357 166.956 137.64 165.16C137.734 164.273 137.64 163.375 137.363 162.527C137.087 161.678 136.634 160.898 136.034 160.237C135.434 159.576 134.702 159.049 133.884 158.691C133.066 158.333 132.182 158.152 131.29 158.16L120.29 157.77L120 157.74Z" fill="black"/>
<path d="M169.16 151.57L143 150.88C142.256 150.881 141.52 150.726 140.839 150.425C140.159 150.123 139.549 149.682 139.05 149.13C138.65 148.654 138.354 148.099 138.181 147.501C138.009 146.903 137.964 146.276 138.05 145.66C138.333 144.147 139.141 142.782 140.332 141.807C141.523 140.832 143.021 140.309 144.56 140.33L170.76 140.5C171.613 140.481 172.461 140.641 173.248 140.97C174.035 141.299 174.744 141.79 175.33 142.41C175.762 142.892 176.087 143.461 176.282 144.078C176.476 144.695 176.537 145.347 176.46 145.99C176.12 149.07 172.95 151.57 169.4 151.57H169.16Z" fill="#A9D8FF"/>
<path d="M144.52 138.83V141.83L170.68 142C171.32 141.98 171.958 142.095 172.552 142.336C173.146 142.577 173.684 142.939 174.13 143.4C174.423 143.725 174.642 144.11 174.773 144.527C174.904 144.945 174.944 145.386 174.89 145.82C174.63 148.12 172.08 150.07 169.32 150.07H169.16L143 149.38C142.464 149.385 141.932 149.279 141.44 149.067C140.947 148.855 140.504 148.543 140.14 148.15C139.87 147.835 139.67 147.466 139.552 147.068C139.435 146.67 139.404 146.251 139.46 145.84C139.702 144.698 140.333 143.675 141.245 142.946C142.156 142.217 143.292 141.826 144.46 141.84V138.84M144.46 138.84C142.552 138.813 140.698 139.468 139.231 140.687C137.764 141.906 136.781 143.61 136.46 145.49C136.02 149.19 138.88 152.28 142.9 152.39L169.06 153.08H169.3C173.59 153.08 177.42 150.03 177.85 146.17C178.3 142.24 175.06 139.04 170.67 139.01L144.52 138.84H144.46Z" fill="black"/>
<path d="M129.4 133.01C128.72 133.032 128.043 132.908 127.415 132.646C126.787 132.384 126.222 131.989 125.76 131.49C125.363 131.044 125.068 130.517 124.895 129.945C124.722 129.374 124.676 128.771 124.76 128.18C125.026 126.706 125.796 125.369 126.937 124.399C128.079 123.429 129.522 122.885 131.02 122.86L148.25 122.53C148.994 122.501 149.736 122.632 150.426 122.913C151.116 123.194 151.738 123.619 152.25 124.16C152.647 124.614 152.942 125.148 153.115 125.726C153.288 126.304 153.334 126.913 153.25 127.51C152.9 130.51 149.81 133.01 146.51 133.01H129.4Z" fill="#A9D8FF"/>
<path d="M148.27 124.03C148.796 124.008 149.321 124.097 149.811 124.291C150.3 124.486 150.743 124.782 151.11 125.16C151.372 125.453 151.566 125.8 151.679 126.177C151.791 126.554 151.819 126.951 151.76 127.34C151.5 129.6 149.09 131.51 146.51 131.51H129.4C128.933 131.53 128.467 131.452 128.033 131.28C127.599 131.107 127.206 130.845 126.88 130.51C126.63 130.218 126.447 129.876 126.341 129.506C126.236 129.137 126.212 128.749 126.27 128.37C126.497 127.257 127.096 126.255 127.968 125.528C128.841 124.801 129.935 124.392 131.07 124.37L148.17 124.04H148.27M148.27 121.04H148.11L131.01 121.37C129.154 121.407 127.368 122.089 125.96 123.299C124.551 124.509 123.608 126.171 123.29 128C122.85 131.6 125.56 134.52 129.4 134.52H146.51C150.59 134.52 154.3 131.47 154.74 127.7C155.18 123.99 152.28 121.04 148.27 121.04Z" fill="black"/>
</svg>
