<svg width="240" height="240" viewBox="0 0 240 240" fill="none" xmlns="http://www.w3.org/2000/svg">
<path d="M194.975 148.51L194.255 148.509L26.9877 142.15C25.9528 142.118 24.9364 141.867 24.0058 141.413C23.0751 140.959 22.2513 140.313 21.5888 139.518C20.7453 138.437 20.1365 137.192 19.8013 135.863C19.4661 134.533 19.4118 133.149 19.6419 131.797L23.3329 105.319C24.1253 99.6489 28.8872 94.8408 33.9574 94.5929L201.291 86.6122C201.591 86.6123 201.901 86.6125 202.211 86.6126C206.055 86.4947 209.795 87.8687 212.649 90.4469C213.869 91.5828 214.806 92.9886 215.386 94.5516C215.965 96.1147 216.17 97.7916 215.985 99.4483L212.271 134.877C211.478 142.396 203.775 148.513 194.975 148.51Z" fill="#13A822"/>
<path d="M202.21 88.0824C205.671 87.9662 209.042 89.1931 211.619 91.5063C212.675 92.489 213.486 93.7059 213.985 95.0592C214.485 96.4125 214.66 97.8643 214.496 99.2975L210.781 134.726C210.068 141.506 202.976 147.013 194.976 147.009L194.316 147.009L27.0486 140.65C26.2214 140.63 25.4082 140.432 24.6645 140.07C23.9208 139.707 23.2642 139.188 22.7395 138.548C22.0342 137.628 21.5273 136.572 21.2507 135.446C20.974 134.32 20.9337 133.15 21.1322 132.007L24.7931 105.509C25.4752 100.609 29.697 96.291 33.997 96.0828L201.33 88.1021C201.61 88.1022 201.9 88.1023 202.18 88.1024M202.182 85.1024C201.852 85.1023 201.522 85.1022 201.182 85.102L33.8583 93.0928C28.0482 93.3704 22.7059 98.7381 21.8533 105.088L18.1523 131.566C17.2597 138.016 21.1475 143.408 26.9374 143.63L194.205 149.989L194.975 149.989C204.455 149.993 212.877 143.427 213.761 134.997L217.476 99.5687C217.692 97.6798 217.463 95.7664 216.805 93.9824C216.148 92.1985 215.081 90.5937 213.69 89.2972C210.557 86.4497 206.444 84.925 202.212 85.0424L202.182 85.1024Z" fill="black"/>
<path d="M66.305 125.526C65.4812 125.537 64.6649 125.369 63.9124 125.034C63.1598 124.698 62.4889 124.204 61.9458 123.585C61.3406 122.859 60.899 122.012 60.6508 121.101C60.4027 120.19 60.354 119.236 60.508 118.304C61.0597 114.144 64.7211 110.696 68.6711 110.617L145.792 109.119C146.973 109.083 148.148 109.3 149.238 109.756C150.328 110.211 151.307 110.896 152.111 111.762C152.788 112.526 153.292 113.427 153.591 114.404C153.889 115.381 153.973 116.41 153.838 117.423C153.276 122.272 148.545 126.22 143.295 126.218L66.305 125.526Z" fill="#C9FCCE"/>
<path d="M145.791 110.619C146.76 110.586 147.725 110.76 148.622 111.129C149.518 111.499 150.326 112.055 150.99 112.761C151.529 113.366 151.93 114.081 152.164 114.857C152.399 115.632 152.462 116.449 152.348 117.252C151.887 121.301 147.735 124.73 143.345 124.728L143.265 124.728L66.4056 124.036C65.7937 124.05 65.1862 123.929 64.6264 123.681C64.0665 123.434 63.568 123.066 63.1662 122.605C62.7035 122.038 62.3677 121.379 62.1817 120.672C61.9957 119.964 61.9637 119.225 62.0879 118.504C62.5393 115.114 65.6005 112.196 68.7905 112.127L145.661 110.629L145.791 110.629M145.792 107.629L145.552 107.629L68.6818 109.127C63.9817 109.225 59.6801 113.243 59.068 118.123C58.416 123.003 61.6444 127.004 66.3343 127.046L143.194 127.738L143.294 127.738C149.294 127.74 154.686 123.213 155.298 117.603C155.941 112.043 151.652 107.601 145.762 107.599L145.792 107.629Z" fill="black"/>
<path d="M29.5304 112.111C27.1404 112.05 24.9109 110.859 22.8718 108.588L23.3332 105.308C24.1255 99.6387 28.8875 94.8307 33.9576 94.5828L74.7984 92.6697C72.7014 95.524 70.0297 97.9075 66.9555 99.6664C64.8143 100.922 62.3663 101.558 59.8848 101.504C59.3048 101.503 58.7248 101.503 58.1248 101.503C57.5248 101.503 56.7948 101.452 56.1248 101.452C53.4073 101.432 50.7047 101.856 48.1243 102.709C44.2661 104.029 40.6705 106.018 37.5018 108.584C34.701 110.663 32.6704 112.172 29.7604 112.171L29.5304 112.111Z" fill="#5EFF6E"/>
<path d="M71.4175 94.2986C69.901 95.902 68.1506 97.2667 66.2258 98.3464C64.3095 99.4815 62.1116 100.052 59.8851 99.9938C59.3251 99.9935 58.7552 99.9933 58.1752 99.9931C57.5951 99.9928 56.8252 99.9425 56.0852 99.9422C53.2251 99.9264 50.3813 100.374 47.6646 101.269C43.6498 102.64 39.9059 104.703 36.6021 107.364C33.6912 109.533 32.0707 110.662 29.7607 110.661L29.5707 110.661C28.5945 110.6 27.6401 110.346 26.7631 109.913C25.886 109.48 25.1037 108.877 24.4618 108.139L24.8228 105.559C25.5049 100.66 29.7267 96.3413 34.0268 96.1331L71.4175 94.3485M77.7588 91.0412L33.888 93.143C28.0779 93.4206 22.7356 98.7884 21.883 105.138L21.3314 109.138C23.0205 111.139 25.7095 113.59 29.5195 113.691L29.7895 113.691C36.2995 113.694 39.0321 107.255 48.6134 104.159C51.0316 103.355 53.5656 102.954 56.1139 102.972C57.4639 102.973 58.6939 103.063 59.9139 103.064C62.6453 103.13 65.3419 102.439 67.7047 101.067C71.8453 98.6258 75.3113 95.1901 77.7888 91.0712L77.7588 91.0412Z" fill="black"/>
<path d="M26.988 142.14C25.9531 142.108 24.9368 141.857 24.0061 141.403C23.0755 140.949 22.2517 140.303 21.5891 139.508C20.7457 138.427 20.1369 137.182 19.8017 135.853C19.4665 134.523 19.4122 133.139 19.6423 131.787L20.5651 125.137C26.2645 126.59 30.4428 130.671 30.9508 135.452C31.1289 137.841 30.5089 140.222 29.188 142.221L26.988 142.14Z" fill="#5EFF6E"/>
<path d="M21.7842 127.108C25.9935 128.699 29.0422 131.981 29.4307 135.611C29.569 137.378 29.1784 139.146 28.3086 140.69L27.0186 140.64C26.1914 140.62 25.3782 140.422 24.6345 140.06C23.8908 139.697 23.2342 139.178 22.7094 138.538C22.0042 137.618 21.4973 136.562 21.2207 135.436C20.944 134.31 20.9037 133.14 21.1022 131.997L21.7842 127.108ZM19.2757 123.347L18.1223 131.576C17.2297 138.026 21.1174 143.417 26.9073 143.64L29.9073 143.751C31.7256 141.322 32.6042 138.318 32.3808 135.292C31.7832 129.582 26.4952 124.55 19.2457 123.347L19.2757 123.347Z" fill="black"/>
<path d="M177.726 98.5325C172.726 98.5304 168.466 97.1687 165.727 94.6875C163.928 93.0287 162.683 90.8567 162.16 88.466L201.291 86.6022C201.591 86.6024 201.901 86.6025 202.211 86.6026C204.733 86.5715 207.229 87.1271 209.5 88.2256C207.24 88.5188 205.013 89.0268 202.849 89.7429C199.37 90.8993 196.019 92.4091 192.847 94.2487C190.502 95.6567 187.984 96.7548 185.356 97.5156C182.869 98.1928 180.303 98.5348 177.726 98.5325Z" fill="#5EFF6E"/>
<path d="M202.21 88.0825L203 88.0828L202.37 88.2926C198.818 89.4844 195.394 91.0273 192.148 92.8983C189.909 94.2641 187.497 95.3225 184.977 96.0454C182.615 96.6999 180.177 97.0353 177.726 97.0424C173.096 97.0404 169.197 95.8188 166.728 93.5878C165.605 92.5645 164.73 91.2988 164.169 89.8868L201.36 88.1122C201.64 88.1123 201.93 88.1124 202.21 88.1125M202.211 85.1125C201.881 85.1124 201.551 85.1122 201.211 85.1121L160.39 87.0952C160.726 90.4371 162.263 93.5435 164.717 95.837C168.075 98.8384 172.935 100.07 177.715 100.072C180.438 100.07 183.149 99.705 185.775 98.9857C192.626 97.0685 194.167 94.2792 203.319 91.183C206.673 90.1085 210.159 89.5009 213.679 89.3772C210.546 86.5298 206.433 85.0051 202.201 85.1225L202.211 85.1125Z" fill="black"/>
<path d="M194.975 148.509L194.255 148.509L122.086 145.769C132.466 143.782 142.504 140.307 151.89 135.452C155.171 133.763 158.482 131.864 161.683 130.036C170.915 124.739 180.457 119.273 191.238 117.578C194.179 117.125 197.152 116.908 200.128 116.931C204.548 116.933 208.928 117.315 213.568 117.717L214.068 117.717L212.271 134.847C211.478 142.396 203.775 148.513 194.975 148.509Z" fill="#5EFF6E"/>
<path d="M200.138 118.422C204.138 118.423 208.137 118.745 212.417 119.107L210.781 134.726C210.068 141.506 202.976 147.013 194.976 147.009L194.316 147.009L132.957 144.694C139.726 142.679 146.292 140.037 152.57 136.802C155.881 135.103 159.211 133.195 162.432 131.356C171.544 126.13 180.967 120.734 191.437 119.078C194.303 118.641 197.199 118.432 200.098 118.452M200.099 115.452C197.04 115.43 193.983 115.65 190.958 116.108C176.078 118.462 163.774 127.657 151.161 134.141C135.958 141.945 119.626 145.978 104.296 145.972C103.026 145.971 101.756 145.971 100.496 145.88L102.086 146.531L194.164 150.029L194.934 150.029C204.414 150.033 212.837 143.467 213.721 135.037L215.678 116.388C210.409 115.936 205.229 115.384 200.099 115.382L200.099 115.452Z" fill="black"/>
</svg>
