<svg width="240" height="240" viewBox="0 0 240 240" fill="none" xmlns="http://www.w3.org/2000/svg">
<path d="M198.15 152.53H197.43L28.0798 146.27C27.0197 146.241 25.9779 145.986 25.0243 145.522C24.0706 145.058 23.227 144.396 22.5498 143.58C21.716 142.516 21.1137 141.289 20.7814 139.979C20.4491 138.668 20.394 137.303 20.6198 135.97L24.3498 109.6C25.1398 103.95 29.9798 99.1601 35.1198 98.9201L204.52 90.9201C204.83 90.9201 205.15 90.9201 205.46 90.9201C207.555 90.8489 209.641 91.215 211.587 91.9949C213.532 92.7749 215.294 93.9516 216.76 95.4501C217.776 96.556 218.54 97.8686 219.001 99.2978C219.462 100.727 219.608 102.239 219.43 103.73L215.68 139C214.89 146.43 207 152.53 198.15 152.53Z" fill="#0080FF"/>
<path d="M205.46 92.3501C207.343 92.2726 209.222 92.5883 210.976 93.2769C212.73 93.9656 214.322 95.0122 215.65 96.3501C216.518 97.3021 217.172 98.4296 217.567 99.6563C217.962 100.883 218.089 102.18 217.94 103.46L214.19 138.75C213.47 145.5 206.28 150.99 198.19 150.99H197.53L28.1798 144.73C27.3284 144.713 26.4907 144.513 25.7242 144.141C24.9578 143.77 24.2808 143.238 23.7397 142.58C23.0413 141.676 22.5392 140.637 22.2654 139.528C21.9916 138.419 21.9523 137.265 22.1498 136.14L25.8698 109.77C26.5598 104.89 30.8697 100.59 35.2297 100.38L204.63 92.3801C204.916 92.3801 205.206 92.3801 205.5 92.3801M205.5 89.3801H204.5L35.0997 97.3801C29.2197 97.6601 23.8097 103.01 22.9097 109.38L19.1798 135.75C18.2798 142.16 22.1798 147.54 28.0798 147.75L197.38 154H198.15C207.75 154 216.28 147.44 217.15 139.07L220.9 103.79C221.77 95.6201 214.82 89.3201 205.44 89.3201L205.5 89.3801Z" fill="black"/>
<path d="M72.8101 130.63C71.9461 130.647 71.0887 130.477 70.2965 130.132C69.5043 129.786 68.796 129.274 68.2201 128.63C67.6204 127.912 67.1816 127.073 66.9332 126.171C66.6848 125.269 66.6326 124.324 66.7801 123.4C67.0751 121.341 68.074 119.448 69.6073 118.042C71.1405 116.636 73.1133 115.805 75.1901 115.69L177.51 113.82C178.869 113.781 180.221 114.028 181.479 114.545C182.736 115.062 183.871 115.837 184.81 116.82C185.5 117.587 186.018 118.492 186.33 119.475C186.642 120.457 186.741 121.496 186.62 122.52C186.05 127.58 180.85 131.69 175.02 131.69L72.8101 130.63Z" fill="white"/>
<path d="M177.51 115.28C178.657 115.241 179.799 115.442 180.864 115.871C181.928 116.3 182.891 116.947 183.69 117.77C184.245 118.377 184.66 119.098 184.907 119.882C185.154 120.666 185.227 121.495 185.12 122.31C184.65 126.55 180.02 130.14 175.02 130.14H174.91L72.82 129.14C72.1663 129.152 71.5178 129.022 70.9189 128.759C70.32 128.497 69.7848 128.108 69.35 127.62C68.8945 127.069 68.5624 126.427 68.3761 125.737C68.1898 125.047 68.1537 124.325 68.27 123.62C68.5359 121.915 69.3735 120.351 70.6454 119.184C71.9174 118.017 73.5481 117.318 75.27 117.2L177.36 115.34H177.56M177.56 112.34H177.31L75.21 114.21C72.7802 114.341 70.4707 115.31 68.6734 116.95C66.8762 118.591 65.7019 120.802 65.35 123.21C64.69 128.11 68.02 132.13 72.84 132.21L174.93 133.21H175C181.54 133.21 187.44 128.53 188.09 122.71C188.73 116.94 183.96 112.35 177.49 112.35L177.56 112.34Z" fill="black"/>
<path d="M43.0001 136.91C42.5461 136.923 42.0944 136.841 41.6741 136.669C41.2539 136.496 40.8744 136.238 40.5601 135.91C40.2714 135.585 40.0553 135.201 39.926 134.786C39.7967 134.37 39.7572 133.932 39.8101 133.5C38.2965 133.18 36.8619 132.561 35.5901 131.68C35.0818 131.359 34.6867 130.887 34.4601 130.33C34.2449 129.766 34.1895 129.154 34.3001 128.56C34.4102 127.719 34.7849 126.934 35.3701 126.32C35.6606 125.99 36.0172 125.724 36.4167 125.539C36.8163 125.355 37.2501 125.257 37.6901 125.25C38.0783 125.256 38.463 125.324 38.8301 125.45C39.2141 125.597 39.5825 125.781 39.9301 126C40.4782 126.331 41.0663 126.589 41.6801 126.77C42.2841 126.927 42.9061 127.005 43.5301 127C44.075 127.037 44.6207 126.941 45.1201 126.72C45.1814 126.688 45.2358 126.644 45.2801 126.59C45.171 126.534 45.0572 126.487 44.9401 126.45C44.5301 126.32 43.9401 126.14 43.1101 125.93C41.9176 125.647 40.7478 125.276 39.6101 124.82C38.5207 124.371 37.581 123.622 36.9001 122.66C36.0967 121.455 35.802 119.981 36.0801 118.56C36.341 116.744 37.2417 115.081 38.6201 113.87C39.7886 112.805 41.1836 112.018 42.7001 111.57V111.2C42.8199 110.306 43.2649 109.487 43.9501 108.9C44.6228 108.316 45.4794 107.987 46.3701 107.97H46.4901C46.9297 107.953 47.368 108.029 47.7764 108.192C48.1847 108.356 48.554 108.604 48.8601 108.92C49.1692 109.25 49.4 109.645 49.535 110.076C49.6701 110.507 49.706 110.963 49.6401 111.41C50.8905 111.749 52.0811 112.279 53.1701 112.98C53.7069 113.324 54.131 113.818 54.3901 114.4C54.5952 114.959 54.657 115.561 54.5701 116.15C54.4559 117.02 54.0588 117.828 53.4401 118.45C53.141 118.779 52.7787 119.044 52.375 119.229C51.9713 119.415 51.5343 119.517 51.0901 119.53C50.6922 119.533 50.2966 119.469 49.9201 119.34C49.5561 119.201 49.202 119.037 48.8601 118.85L48.0401 118.41C47.7104 118.234 47.3614 118.096 47.0001 118C46.6306 117.909 46.2508 117.865 45.8701 117.87C45.3688 117.845 44.8703 117.959 44.4301 118.2C44.3327 118.252 44.2502 118.328 44.1901 118.42C44.9076 118.707 45.651 118.925 46.4101 119.07C47.622 119.306 48.8126 119.641 49.9701 120.07C51.0905 120.518 52.0565 121.283 52.7501 122.27C53.5717 123.513 53.8733 125.028 53.5901 126.49C53.342 128.351 52.4075 130.052 50.9701 131.26C49.7561 132.295 48.3184 133.035 46.7701 133.42V133.74C46.6635 134.649 46.2081 135.481 45.5001 136.06C44.8237 136.621 43.9691 136.923 43.0901 136.91H43.0001Z" fill="white"/>
<path d="M46.5397 109.43C46.7748 109.415 47.0105 109.45 47.2311 109.533C47.4517 109.616 47.6523 109.744 47.8197 109.91C47.9838 110.092 48.1028 110.309 48.1671 110.546C48.2313 110.782 48.2391 111.03 48.1897 111.27L48.0097 112.56C49.5808 112.776 51.084 113.339 52.4097 114.21C52.6919 114.378 52.9154 114.63 53.0497 114.93C53.165 115.25 53.1926 115.595 53.1297 115.93C53.0587 116.48 52.8051 116.991 52.4097 117.38C52.2475 117.566 52.0498 117.717 51.8283 117.825C51.6068 117.933 51.3658 117.996 51.1197 118.01C50.9092 118.008 50.7003 117.974 50.4997 117.91C50.2045 117.792 49.9172 117.655 49.6397 117.5C49.5197 117.43 49.2497 117.28 48.8197 117.06C48.3779 116.831 47.9116 116.653 47.4297 116.53C46.9359 116.407 46.4286 116.346 45.9197 116.35H45.7997C45.0516 116.337 44.3145 116.531 43.6697 116.91C43.4034 117.059 43.1748 117.268 43.0015 117.519C42.8281 117.77 42.7146 118.058 42.6697 118.36C42.6205 118.626 42.6655 118.902 42.7968 119.139C42.9281 119.376 43.1377 119.56 43.3897 119.66C44.2619 120.055 45.1785 120.344 46.1197 120.52C47.2503 120.768 48.3602 121.102 49.4397 121.52C50.295 121.866 51.034 122.449 51.5697 123.2C52.157 124.138 52.3611 125.266 52.1397 126.35C51.9347 127.851 51.1748 129.221 50.0097 130.19C48.7078 131.281 47.1297 131.99 45.4497 132.24L45.2697 133.59C45.2066 134.129 44.938 134.624 44.5197 134.97C44.1134 135.308 43.5978 135.485 43.0697 135.47C42.8207 135.481 42.5722 135.439 42.341 135.346C42.1098 135.252 41.9013 135.111 41.7297 134.93C41.5682 134.741 41.4518 134.517 41.3895 134.276C41.3271 134.036 41.3203 133.784 41.3697 133.54L41.5397 132.3C39.7498 132.109 38.0336 131.484 36.5397 130.48C36.2694 130.319 36.0562 130.078 35.9297 129.79C35.8218 129.468 35.7977 129.124 35.8597 128.79C35.9316 128.26 36.1696 127.766 36.5397 127.38C36.6887 127.199 36.8747 127.052 37.085 126.948C37.2954 126.845 37.5254 126.788 37.7597 126.78C37.9776 126.781 38.1938 126.819 38.3997 126.89C38.6831 127.002 38.9545 127.143 39.2097 127.31C39.8832 127.711 40.6059 128.024 41.3597 128.24C42.0908 128.432 42.8436 128.53 43.5997 128.53C44.3948 128.569 45.1866 128.404 45.8997 128.05C46.1716 127.908 46.4047 127.701 46.5789 127.449C46.7531 127.196 46.8633 126.905 46.8997 126.6C46.942 126.418 46.9326 126.228 46.8725 126.051C46.8124 125.875 46.7041 125.718 46.5597 125.6C46.2453 125.329 45.8773 125.128 45.4797 125.01C45.0397 124.86 44.3897 124.68 43.5397 124.46C42.417 124.207 41.3141 123.873 40.2397 123.46C39.4078 123.116 38.6902 122.544 38.1697 121.81C37.6008 120.92 37.4067 119.842 37.6297 118.81C37.8442 117.339 38.5743 115.992 39.6897 115.01C40.9401 113.895 42.4663 113.135 44.1097 112.81L44.2997 111.44C44.3337 110.886 44.5854 110.369 44.9997 110C45.408 109.637 45.9337 109.435 46.4797 109.43H46.5597M46.5597 106.43H46.3997C45.1667 106.455 43.9814 106.912 43.0497 107.72C42.2288 108.417 41.648 109.355 41.3897 110.4C39.9967 110.931 38.7173 111.721 37.6197 112.73C35.985 114.176 34.9211 116.158 34.6197 118.32C34.2854 120.125 34.6732 121.988 35.6997 123.51C35.8297 123.68 35.9597 123.85 36.0997 124.01C35.4104 124.281 34.7915 124.705 34.2897 125.25C33.4932 126.092 32.9794 127.162 32.8197 128.31C32.6819 129.164 32.768 130.039 33.0697 130.85C33.4244 131.668 34.0122 132.364 34.7597 132.85C35.8672 133.617 37.0889 134.204 38.3797 134.59C38.5151 135.423 38.8864 136.201 39.4497 136.83C39.8967 137.323 40.4435 137.716 41.0539 137.981C41.6643 138.247 42.3241 138.379 42.9897 138.37H43.0797C44.3082 138.383 45.5018 137.962 46.4497 137.18C47.2723 136.503 47.8573 135.582 48.1197 134.55C49.542 134.079 50.8573 133.331 51.9897 132.35C53.707 130.906 54.8232 128.874 55.1197 126.65C55.4567 124.806 55.0582 122.904 54.0097 121.35C53.7775 121.024 53.52 120.716 53.2397 120.43C53.7359 120.169 54.1881 119.831 54.5797 119.43C55.4211 118.575 55.9616 117.469 56.1197 116.28C56.2519 115.434 56.1587 114.568 55.8497 113.77C55.4907 112.924 54.8886 112.203 54.1197 111.7C53.2208 111.118 52.2578 110.641 51.2497 110.28C51.1244 109.375 50.7188 108.532 50.0897 107.87C49.6435 107.406 49.1052 107.04 48.5095 106.795C47.9137 106.551 47.2735 106.433 46.6297 106.45L46.5597 106.43Z" fill="black"/>
</svg>
