<svg width="240" height="240" viewBox="0 0 240 240" fill="none" xmlns="http://www.w3.org/2000/svg">
<path d="M183.43 203.18C183.01 203.18 182.59 203.18 182.17 203.18L35.8002 191.58C34.9028 191.509 34.0297 191.253 33.2362 190.828C32.4428 190.403 31.7461 189.818 31.1902 189.11C30.4647 188.141 29.942 187.036 29.6533 185.861C29.3646 184.686 29.316 183.464 29.5102 182.27L39.5102 112.05C40.2002 107.19 44.3603 102.9 48.7803 102.47L195.32 88.2998C195.86 88.2498 196.4 88.2198 196.92 88.2198C198.555 88.1545 200.186 88.4311 201.708 89.032C203.231 89.633 204.611 90.545 205.76 91.7098C206.563 92.6018 207.163 93.6574 207.519 94.8038C207.875 95.9501 207.977 97.1599 207.82 98.3498L197.67 191.86C197 198.18 190.74 203.18 183.43 203.18Z" fill="#C292FF"/>
<path d="M197 86.72V89.72C198.423 89.6568 199.844 89.891 201.171 90.4075C202.499 90.9241 203.704 91.7116 204.71 92.72C205.372 93.4563 205.866 94.3277 206.158 95.274C206.45 96.2202 206.532 97.2186 206.4 98.2L196.2 191.7C195.59 197.27 189.99 201.64 183.43 201.64C183.05 201.64 182.66 201.64 182.28 201.64L35.9199 190.14C35.2255 190.086 34.5502 189.887 33.9371 189.556C33.3241 189.225 32.7869 188.77 32.3599 188.22C31.7523 187.407 31.3181 186.478 31.0842 185.491C30.8502 184.504 30.8215 183.479 30.9999 182.48L40.9999 112.26C41.5899 108.12 45.2199 104.32 48.9299 103.96L195.48 89.7899C195.962 89.7422 196.446 89.7188 196.93 89.72V86.72M196.93 86.72C196.349 86.7205 195.768 86.7506 195.19 86.81L48.65 100.98C43.54 101.47 38.8299 106.32 38.0399 111.84L28.0399 182.06C27.2299 187.74 30.62 192.68 35.7 193.06L182.06 204.56C182.52 204.6 182.98 204.62 183.44 204.62C191.44 204.62 198.44 199.2 199.19 192L209.34 98.49C210.08 91.69 204.58 86.7 196.95 86.7L196.93 86.72Z" fill="black"/>
<path d="M39.5401 111.99C40.2301 107.13 44.3901 102.84 48.8101 102.41L195.35 88.18C195.89 88.13 196.43 88.1 196.95 88.1C198.585 88.0346 200.216 88.3112 201.738 88.9122C203.261 89.5131 204.641 90.4252 205.79 91.59C206.591 92.4834 207.189 93.5392 207.545 94.6851C207.9 95.831 208.005 97.0401 207.85 98.2299L206.54 110.23L38.3701 120.18L39.5401 111.99Z" fill="white"/>
<path d="M197 89.6499C198.423 89.5905 199.842 89.8263 201.169 90.3427C202.496 90.859 203.702 91.6446 204.71 92.6499C205.368 93.3866 205.859 94.2569 206.149 95.2011C206.439 96.1452 206.521 97.1409 206.39 98.1199L205.22 108.88L40.1601 118.59L41.0001 112.18C41.5901 108.04 45.2201 104.25 48.9201 103.89L195.5 89.7199C195.985 89.6719 196.473 89.6485 196.96 89.6499M196.96 86.6499C196.39 86.6499 195.81 86.6499 195.22 86.7299L48.6601 100.91C43.5501 101.41 38.8401 106.26 38.0501 111.78L36.6201 121.78L207.9 111.71L209.34 98.4299C210.08 91.6299 204.58 86.6399 196.95 86.6399L196.96 86.6499Z" fill="black"/>
<path d="M48.2499 109.1C48.465 109.103 48.6767 109.154 48.8692 109.25C49.0617 109.346 49.2301 109.485 49.3618 109.655C49.4934 109.825 49.585 110.022 49.6297 110.233C49.6744 110.443 49.671 110.661 49.6199 110.87C49.5496 111.381 49.3174 111.855 48.9574 112.224C48.5974 112.593 48.1286 112.837 47.6199 112.92H47.4999C47.2854 112.921 47.0736 112.873 46.88 112.781C46.6865 112.688 46.5162 112.554 46.3817 112.386C46.2473 112.219 46.1522 112.024 46.1034 111.815C46.0546 111.607 46.0534 111.389 46.0999 111.18C46.1717 110.67 46.4043 110.196 46.764 109.827C47.1237 109.459 47.5917 109.214 48.0999 109.13H48.2299M48.2299 106.63H47.8999C46.8206 106.754 45.813 107.233 45.0349 107.991C44.2567 108.749 43.752 109.744 43.5999 110.82C43.5105 111.408 43.5472 112.008 43.7076 112.58C43.8679 113.153 44.1483 113.684 44.5299 114.14C44.8939 114.553 45.3418 114.883 45.8436 115.109C46.3454 115.335 46.8896 115.451 47.4399 115.45H47.7499C48.8355 115.333 49.8506 114.856 50.6335 114.094C51.4165 113.333 51.9221 112.332 52.0699 111.25C52.1624 110.664 52.1272 110.065 51.9667 109.493C51.8062 108.922 51.5241 108.392 51.1399 107.94C50.7784 107.524 50.331 107.192 49.8286 106.966C49.3262 106.74 48.7808 106.625 48.2299 106.63Z" fill="black"/>
<path d="M58.55 108.26C58.7718 108.26 58.9907 108.31 59.1902 108.407C59.3897 108.503 59.5644 108.644 59.7013 108.819C59.8382 108.993 59.9335 109.197 59.9801 109.413C60.0267 109.63 60.0232 109.855 59.97 110.07C59.8931 110.599 59.6468 111.088 59.2682 111.465C58.8896 111.842 58.399 112.086 57.87 112.16H57.74C57.5189 112.159 57.301 112.107 57.1025 112.01C56.904 111.912 56.7301 111.771 56.5936 111.597C56.4571 111.423 56.3617 111.221 56.3143 111.005C56.267 110.789 56.2689 110.565 56.3201 110.35C56.398 109.824 56.6433 109.336 57.0197 108.96C57.3961 108.583 57.8835 108.338 58.41 108.26H58.55ZM58.55 105.76H58.2101C57.1165 105.887 56.0954 106.371 55.3052 107.138C54.5151 107.905 54.0001 108.911 53.8401 110C53.7532 110.59 53.792 111.192 53.954 111.766C54.116 112.339 54.3975 112.873 54.7801 113.33C55.1561 113.752 55.6186 114.089 56.1363 114.317C56.6539 114.545 57.2146 114.658 57.7801 114.65H58.1C59.201 114.537 60.2321 114.058 61.0281 113.289C61.8242 112.52 62.339 111.506 62.49 110.41C62.58 109.822 62.5427 109.221 62.3805 108.648C62.2183 108.075 61.9351 107.544 61.55 107.09C61.1775 106.663 60.7159 106.322 60.1976 106.092C59.6793 105.862 59.1169 105.749 58.55 105.76Z" fill="black"/>
<path d="M69.2601 107.39C69.4875 107.387 69.7127 107.436 69.9185 107.533C70.1243 107.63 70.3053 107.772 70.4479 107.95C70.5905 108.127 70.691 108.334 70.7416 108.556C70.7922 108.778 70.7916 109.008 70.74 109.23C70.6612 109.773 70.4062 110.276 70.0143 110.661C69.6223 111.046 69.115 111.291 68.5701 111.36H68.43C68.2019 111.361 67.9764 111.31 67.7704 111.212C67.5644 111.114 67.3831 110.971 67.24 110.793C67.0969 110.616 66.9956 110.408 66.9437 110.186C66.8917 109.964 66.8905 109.733 66.9401 109.51C67.0236 108.968 67.28 108.468 67.6711 108.084C68.0622 107.7 68.567 107.453 69.11 107.38H69.2601M69.2601 104.88H68.9001C67.7884 104.997 66.7479 105.483 65.9449 106.261C65.1419 107.038 64.6226 108.063 64.47 109.17C64.3792 109.761 64.4171 110.364 64.5811 110.939C64.7451 111.513 65.0312 112.046 65.42 112.5C65.7958 112.925 66.2576 113.265 66.7748 113.498C67.2921 113.73 67.8529 113.85 68.42 113.85H68.74C69.8589 113.741 70.9086 113.259 71.7196 112.481C72.5306 111.702 73.0557 110.673 73.2101 109.56C73.2916 108.964 73.2446 108.358 73.0721 107.782C72.8996 107.205 72.6056 106.673 72.2101 106.22C71.8334 105.797 71.3712 105.459 70.854 105.228C70.3368 104.997 69.7765 104.878 69.2101 104.88H69.2601Z" fill="black"/>
<path d="M58.4902 181.29C58.2686 181.293 58.0484 181.256 57.8403 181.18H57.7803C57.4071 181.068 57.0749 180.849 56.8244 180.551C56.5739 180.252 56.416 179.887 56.3702 179.5L55.8002 174.55L49.8002 176.05C49.6432 176.089 49.4821 176.109 49.3202 176.11C48.8379 176.115 48.3698 175.946 48.0023 175.634C47.6348 175.322 47.3926 174.887 47.3202 174.41V174.26C47.2921 174.135 47.2721 174.008 47.2602 173.88L46.5602 167.53C45.8936 161.383 45.2269 155.287 44.5602 149.24C44.4736 148.514 44.6549 147.782 45.0702 147.18L47.4003 143.63C48.4003 142.06 49.4702 140.48 50.5202 138.89C50.9095 138.319 51.4749 137.89 52.1302 137.67C60.1302 135.197 68.3269 132.67 76.7202 130.09L78.5402 129.53C78.7313 129.471 78.9302 129.44 79.1302 129.44C79.6185 129.436 80.0915 129.611 80.4599 129.931C80.8284 130.252 81.0668 130.696 81.1302 131.18L81.5502 134.33C82.3036 139.95 83.0602 145.617 83.8202 151.33C83.9297 152.113 83.7327 152.908 83.2702 153.55C79.5502 158.963 75.8836 164.323 72.2702 169.63C71.8439 170.296 71.1719 170.767 70.4003 170.94C68.8703 171.31 67.3502 171.68 65.8302 172.08C64.1002 174.59 62.3902 177.08 60.6902 179.61L60.4003 180.03L60.3202 180.22C60.1461 180.552 59.8822 180.828 59.5586 181.017C59.2351 181.207 58.8649 181.301 58.4902 181.29Z" fill="#923CFF"/>
<path d="M79.1301 131.42L79.1901 131.89C80.0501 138.39 80.9268 144.946 81.8201 151.56C81.8415 151.706 81.8331 151.855 81.7953 151.997C81.7574 152.14 81.691 152.274 81.6001 152.39C77.8801 157.79 74.2134 163.15 70.6001 168.47C70.5244 168.594 70.4242 168.702 70.3056 168.786C70.1869 168.87 70.0523 168.929 69.9101 168.96C68.2401 169.37 66.5701 169.78 64.9101 170.21C64.6908 170.274 64.5002 170.412 64.3701 170.6C62.4701 173.36 60.5901 176.13 58.7201 178.88C58.6382 179.01 58.568 179.147 58.5101 179.29H58.3801C58.1001 176.89 57.8301 174.5 57.5501 172.08L49.3501 174.08C49.3192 173.931 49.2959 173.781 49.2801 173.63C48.3601 165.33 47.4568 157.12 46.5701 149C46.533 148.738 46.6013 148.472 46.7601 148.26C48.5668 145.513 50.3834 142.753 52.2101 139.98C52.3438 139.789 52.532 139.642 52.7501 139.56L78.7501 131.56L79.1901 131.43M79.1901 127.43C78.7899 127.429 78.392 127.49 78.0101 127.61L77.5801 127.74L74.5801 128.66L51.5801 135.75C50.48 136.087 49.5299 136.793 48.8901 137.75C47.8301 139.34 46.7901 140.93 45.7501 142.51L43.4301 146.03C42.7601 147.026 42.4659 148.227 42.6001 149.42C43.2667 155.78 43.9734 162.2 44.7201 168.68L45.3101 174.05C45.3101 174.22 45.3101 174.38 45.3901 174.57V174.69C45.4765 175.237 45.6756 175.761 45.9749 176.227C46.2742 176.693 46.6671 177.092 47.1287 177.399C47.5903 177.705 48.1106 177.913 48.6565 178.007C49.2025 178.102 49.7621 178.083 50.3001 177.95L54.0801 176.95L54.3901 179.64C54.48 180.402 54.787 181.121 55.2746 181.714C55.7621 182.306 56.4097 182.745 57.1401 182.98H57.2601C57.6596 183.114 58.0786 183.182 58.5001 183.18C59.2405 183.179 59.9662 182.974 60.5965 182.585C61.2268 182.197 61.7369 181.641 62.0701 180.98L62.1401 180.83C63.7601 178.46 65.3801 176.07 67.0201 173.69C68.2101 173.38 69.4701 173.07 70.8301 172.74C72.06 172.433 73.1303 171.677 73.8301 170.62C77.4701 165.286 81.1368 159.93 84.8301 154.55C85.5849 153.5 85.9038 152.199 85.7201 150.92C84.9801 145.4 84.2468 139.916 83.5201 134.47L83.0901 131.25L83.0301 130.78C82.953 130.203 82.7512 129.651 82.4386 129.16C82.126 128.67 81.7101 128.253 81.2201 127.94C80.578 127.529 79.8321 127.311 79.0701 127.31L79.1901 127.43Z" fill="black"/>
<path d="M79.1299 131.42L79.1899 131.89C80.0499 138.39 80.9266 144.947 81.8199 151.56C81.8414 151.706 81.8329 151.855 81.7951 151.997C81.7573 152.14 81.6909 152.274 81.5999 152.39C77.8799 157.79 74.2132 163.15 70.5999 168.47C70.5243 168.594 70.424 168.702 70.3054 168.786C70.1868 168.87 70.0522 168.929 69.9099 168.96C68.2399 169.37 66.5699 169.78 64.9099 170.21C64.6906 170.274 64.5001 170.412 64.3699 170.6C62.4699 173.36 60.5899 176.13 58.7199 178.88C58.638 179.01 58.5678 179.147 58.5099 179.29H58.3799L57.5499 172.08L49.3499 174.08C49.3191 173.931 49.2958 173.781 49.28 173.63C48.36 165.33 47.4566 157.12 46.5699 149C46.5328 148.738 46.6012 148.472 46.7599 148.26C48.5666 145.513 50.3833 142.753 52.2099 139.98C52.3436 139.789 52.5318 139.642 52.7499 139.56L78.7499 131.56L79.1299 131.42Z" fill="white"/>
<path d="M70 142.45L72.82 141.62L73.94 150.3L71.08 151.1L70 142.45Z" fill="white"/>
<path d="M66 152.52L63.23 153.29L62.23 144.75L64.98 143.94L66 152.52Z" fill="white"/>
<path d="M79.1299 131.42L79.1899 131.89C80.0499 138.39 80.9266 144.947 81.8199 151.56C81.8414 151.706 81.8329 151.855 81.7951 151.997C81.7573 152.14 81.6909 152.274 81.5999 152.39C77.8799 157.79 74.2132 163.15 70.5999 168.47C70.5243 168.594 70.424 168.702 70.3054 168.786C70.1868 168.87 70.0522 168.929 69.9099 168.96C68.2399 169.37 66.5699 169.78 64.9099 170.21C64.6906 170.274 64.5001 170.412 64.3699 170.6C62.4699 173.36 60.5899 176.13 58.7199 178.88C58.638 179.01 58.5678 179.147 58.5099 179.29H58.3799L57.5499 172.08L49.3499 174.08C49.3191 173.931 49.2958 173.781 49.28 173.63C48.36 165.33 47.4566 157.12 46.5699 149C46.5328 148.738 46.6012 148.472 46.7599 148.26C48.5666 145.513 50.3833 142.753 52.2099 139.98C52.3436 139.789 52.5318 139.642 52.7499 139.56L78.7499 131.56L79.1299 131.42ZM54.1299 142.05L56.59 163.35L62.8599 161.69L63.4699 166.75C64.8799 164.68 66.2299 162.7 67.5699 160.7C67.7106 160.477 67.9334 160.319 68.1899 160.26C69.8599 159.83 71.5299 159.37 73.1899 158.94C73.3186 158.908 73.4397 158.851 73.5461 158.772C73.6526 158.693 73.7422 158.594 73.8099 158.48C75.3499 156.207 76.9032 153.933 78.4699 151.66C78.6287 151.448 78.697 151.182 78.6599 150.92C77.9932 145.8 77.3266 140.717 76.6599 135.67V135.23L54.1299 142.05Z" fill="#923CFF"/>
<path d="M70 142.45L72.82 141.62L73.94 150.3L71.08 151.1L70 142.45Z" fill="#923CFF"/>
<path d="M66 152.52L63.23 153.29L62.23 144.75L64.98 143.94L66 152.52Z" fill="#923CFF"/>
<path d="M85.1901 202.18L84.9801 201.96C84.5903 201.559 84.3384 201.044 84.2611 200.49C84.1838 199.937 84.285 199.372 84.5501 198.88C86.4234 194.7 88.2901 190.503 90.1501 186.29L91.6901 182.83L88.0501 181.43C87.7102 181.321 87.3964 181.142 87.128 180.907C86.8597 180.671 86.6426 180.383 86.4901 180.06C86.3672 179.707 86.3179 179.332 86.3455 178.958C86.373 178.585 86.4767 178.222 86.6501 177.89C87.6501 175.72 88.5601 173.54 89.5301 171.37C89.6906 170.87 90.0033 170.432 90.4246 170.118C90.846 169.805 91.3549 169.63 91.8801 169.62C92.2637 169.625 92.6432 169.7 93.0001 169.84L96.8401 171.24L96.9401 171C97.4201 169.93 97.8901 168.89 98.3501 167.83C99.0655 166.119 100.059 164.537 101.29 163.15C103.127 161.033 105.607 159.575 108.35 159C109.208 158.82 110.083 158.729 110.96 158.73C112.535 158.744 114.098 159.008 115.59 159.51L120.59 161.17L121.02 161.32C121.386 161.417 121.727 161.592 122.02 161.831C122.313 162.071 122.552 162.371 122.72 162.71C122.855 163.072 122.912 163.459 122.888 163.845C122.864 164.231 122.759 164.607 122.58 164.95C121.88 166.51 121.177 168.063 120.47 169.61L120.05 170.56C119.88 170.93 119.72 171.3 119.53 171.66C119.32 172.083 118.996 172.439 118.596 172.688C118.195 172.937 117.732 173.069 117.26 173.07C117.027 173.07 116.795 173.039 116.57 172.98L116.05 172.81L115.89 172.76L114.61 172.32C113.61 171.98 112.71 171.66 111.77 171.39C111.584 171.339 111.393 171.308 111.2 171.3C110.99 171.3 110.59 171.3 110.15 172.24C109.71 173.18 109.27 174.17 108.83 175.14L108.65 175.55L113.56 177.34C113.916 177.447 114.245 177.628 114.526 177.871C114.806 178.114 115.033 178.414 115.19 178.75C115.318 179.105 115.371 179.483 115.347 179.86C115.323 180.236 115.222 180.604 115.05 180.94C114.05 183.22 113.05 185.49 111.97 187.76C111.804 188.26 111.487 188.696 111.062 189.008C110.638 189.32 110.127 189.492 109.6 189.5C109.191 189.493 108.787 189.408 108.41 189.25L103.41 187.32L102 190.48C100 194.913 98.0268 199.327 96.0801 203.72C95.8946 204.244 95.5563 204.7 95.1089 205.03C94.6615 205.36 94.1255 205.548 93.5701 205.57H93.2301L85.1901 202.18Z" fill="#0873F6"/>
<path d="M111 160.23C112.416 160.241 113.821 160.48 115.16 160.94L120.58 162.74C121.46 163.03 121.64 163.46 121.25 164.33L118.85 169.65C118.65 170.09 118.47 170.53 118.24 170.96C118.162 171.144 118.031 171.3 117.864 171.409C117.696 171.518 117.5 171.574 117.3 171.57C117.192 171.567 117.084 171.55 116.98 171.52C116.79 171.52 116.6 171.4 116.41 171.33C115.01 170.87 113.63 170.33 112.22 169.95C111.896 169.852 111.559 169.802 111.22 169.8C110.683 169.819 110.164 170.002 109.734 170.323C109.303 170.645 108.981 171.09 108.81 171.6C108.16 172.99 107.55 174.39 106.93 175.78L106.65 176.4L107.15 176.59L113.06 178.74C113.89 179.05 114.06 179.49 113.7 180.32C112.7 182.6 111.7 184.87 110.62 187.14C110.36 187.73 110.06 188 109.62 188C109.393 187.991 109.169 187.94 108.96 187.85L103.07 185.59L102.61 185.41C102.5 185.67 102.42 185.85 102.33 186.03C99.7701 191.75 97.2235 197.443 94.6901 203.11C94.6184 203.381 94.4644 203.622 94.2495 203.801C94.0345 203.98 93.7691 204.088 93.4901 204.11L86.0801 200.95C85.8979 200.763 85.7847 200.519 85.7593 200.26C85.7338 200 85.7976 199.739 85.9401 199.52C88.4468 193.9 90.9568 188.253 93.4701 182.58L93.7201 182.03L93.2101 181.83L88.6101 180.06C87.8201 179.76 87.6701 179.36 88.0401 178.52C88.9934 176.347 89.9534 174.177 90.9201 172.01C91.1801 171.42 91.4701 171.15 91.9201 171.15C92.1292 171.16 92.3353 171.204 92.5302 171.28L97.2301 172.99L97.6901 173.13C98.3901 171.55 99.0801 170.01 99.7601 168.46C100.407 166.902 101.298 165.457 102.4 164.18C104.025 162.303 106.221 161.011 108.65 160.5C109.409 160.337 110.184 160.257 110.96 160.26M110.96 157.26C108.914 157.259 106.892 157.697 105.03 158.546C103.168 159.395 101.511 160.634 100.17 162.18C98.8352 163.689 97.7545 165.404 96.9701 167.26L96.0401 169.38L93.5401 168.47C93.0163 168.27 92.4609 168.165 91.9001 168.16C91.0832 168.167 90.2879 168.423 89.621 168.895C88.9542 169.367 88.4478 170.032 88.1701 170.8L85.2901 177.32C85.0298 177.838 84.8811 178.404 84.8535 178.983C84.826 179.562 84.9202 180.14 85.1301 180.68C85.3547 181.193 85.6844 181.652 86.0978 182.03C86.5112 182.407 86.9992 182.693 87.5302 182.87L89.6901 183.71L89.0902 185.07L83.2001 198.31C82.8099 199.075 82.6695 199.942 82.7986 200.791C82.9278 201.64 83.3201 202.426 83.9201 203.04L84.3402 203.48L84.9001 203.72L88.5501 205.27L92.3101 206.88L92.9401 207.14H93.6101C94.4443 207.109 95.251 206.834 95.9302 206.349C96.6093 205.863 97.1309 205.189 97.4301 204.41C99.4301 199.97 101.43 195.523 103.43 191.07L104.22 189.3L107.92 190.72C108.469 190.946 109.056 191.065 109.65 191.07C110.466 191.067 111.262 190.814 111.931 190.346C112.599 189.878 113.109 189.216 113.39 188.45C114.39 186.18 115.39 183.9 116.46 181.62C116.737 181.107 116.896 180.538 116.925 179.955C116.954 179.373 116.853 178.791 116.629 178.253C116.404 177.714 116.063 177.233 115.629 176.843C115.195 176.453 114.68 176.165 114.12 176L110.73 174.76C111 174.16 111.28 173.55 111.56 172.95C112.41 173.2 113.26 173.49 114.16 173.8L115.47 174.25H115.59C115.81 174.33 116.02 174.4 116.25 174.46C116.596 174.551 116.952 174.598 117.31 174.6C118.057 174.604 118.789 174.4 119.426 174.009C120.062 173.618 120.576 173.058 120.91 172.39C121.12 171.98 121.3 171.57 121.46 171.21L121.59 170.92L121.83 170.4C122.55 168.8 123.28 167.2 124 165.59C124.27 165.057 124.422 164.472 124.446 163.875C124.47 163.278 124.366 162.683 124.14 162.13C123.891 161.597 123.53 161.123 123.081 160.742C122.632 160.36 122.107 160.08 121.54 159.92L120.9 159.71L116.11 158.12C114.468 157.56 112.745 157.27 111.01 157.26H110.96Z" fill="black"/>
<path d="M122.85 129.37C121.313 129.371 119.784 129.153 118.31 128.72C118.09 128.66 117.89 128.58 117.68 128.51L117.41 128.42C117.095 128.307 116.825 128.092 116.645 127.81C116.464 127.528 116.381 127.194 116.41 126.86C116.44 126.524 116.583 126.208 116.815 125.963C117.048 125.718 117.356 125.558 117.69 125.51C118.949 125.34 120.176 124.983 121.33 124.45L121.74 124.24C120.587 123.663 119.651 122.73 119.07 121.58C118.912 121.272 118.867 120.918 118.94 120.58C118.686 120.387 118.448 120.173 118.23 119.94C117.299 118.948 116.797 117.63 116.83 116.27C116.855 115.893 117.015 115.538 117.28 115.27C116.823 114.37 116.598 113.37 116.624 112.361C116.65 111.352 116.927 110.365 117.43 109.49C117.533 109.301 117.676 109.138 117.848 109.01C118.021 108.882 118.219 108.793 118.43 108.75C118.523 108.74 118.617 108.74 118.71 108.75C119.056 108.751 119.392 108.871 119.66 109.09C121.761 110.798 124.402 111.702 127.11 111.64C127.53 111.64 127.96 111.62 128.4 111.58C128.4 111.36 128.4 111.14 128.4 110.9C128.603 109.314 129.276 107.825 130.333 106.626C131.39 105.426 132.782 104.571 134.33 104.17C135.029 103.967 135.752 103.863 136.48 103.86C137.448 103.856 138.404 104.068 139.28 104.48C139.69 104.28 140.11 104.06 140.51 103.84C140.91 103.62 141.11 103.45 141.42 103.24L141.89 102.92C142.144 102.751 142.443 102.663 142.749 102.668C143.054 102.674 143.35 102.772 143.598 102.95C143.846 103.129 144.033 103.378 144.135 103.666C144.238 103.953 144.25 104.265 144.17 104.56C144.362 104.631 144.536 104.744 144.68 104.89C144.917 105.123 145.071 105.428 145.116 105.757C145.161 106.087 145.096 106.422 144.93 106.71L144.78 106.97C144.153 108 143.401 108.947 142.54 109.79C142.611 110.791 142.571 111.797 142.42 112.79C141.914 116.15 140.504 119.31 138.34 121.93C135.882 125 132.569 127.273 128.82 128.46L127.5 128.87H127.35L125.69 129.2H125.45H125.35C124.521 129.315 123.686 129.371 122.85 129.37Z" fill="#4BAAF4"/>
<path d="M142.77 104.12C142.382 105.383 141.635 106.505 140.62 107.35C141.674 106.992 142.681 106.509 143.62 105.91C143.582 105.987 143.539 106.06 143.49 106.13C142.858 107.172 142.084 108.121 141.19 108.95C141.116 109.007 141.059 109.082 141.024 109.168C140.989 109.254 140.977 109.348 140.99 109.44C141.102 110.438 141.079 111.448 140.92 112.44C140.458 115.535 139.162 118.446 137.17 120.86C134.883 123.683 131.815 125.77 128.35 126.86L127.04 127.26L125.38 127.59C125.303 127.586 125.226 127.586 125.15 127.59C124.375 127.7 123.593 127.757 122.81 127.76C121.412 127.763 120.021 127.564 118.68 127.17C118.4 127.09 118.12 126.98 117.85 126.88C119.256 126.693 120.625 126.292 121.91 125.69C123.245 125.065 124.465 124.22 125.52 123.19C125.188 123.23 124.854 123.25 124.52 123.25C123.651 123.299 122.788 123.089 122.039 122.648C121.289 122.207 120.688 121.553 120.31 120.77C121.123 120.717 121.92 120.514 122.66 120.17C119.42 120.11 118.15 117.69 118.24 116.17C118.61 116.17 118.98 116.29 119.36 116.3H119.49C119.83 116.3 120.17 116.25 120.49 116.24C119.94 115.975 119.452 115.599 119.056 115.135C118.66 114.671 118.366 114.129 118.191 113.545C118.016 112.961 117.964 112.346 118.04 111.741C118.115 111.136 118.316 110.553 118.63 110.03C121.001 111.954 123.976 112.978 127.03 112.92C128.001 112.917 128.971 112.836 129.93 112.68C129.853 112.056 129.819 111.428 129.83 110.8C130.022 109.525 130.582 108.333 131.442 107.372C132.302 106.411 133.424 105.722 134.67 105.39C135.239 105.227 135.828 105.143 136.42 105.14C137.316 105.13 138.197 105.365 138.97 105.82C139.049 105.867 139.138 105.895 139.23 105.9H139.31C139.94 105.6 140.58 105.29 141.2 104.9C141.82 104.51 142.2 104.27 142.67 103.9M142.67 100.9C142.076 100.898 141.495 101.072 141 101.4L140.5 101.75C140.2 101.95 139.94 102.13 139.7 102.26L139.16 102.56C138.28 102.246 137.353 102.087 136.42 102.09C135.554 102.094 134.693 102.216 133.86 102.45C132.132 102.928 130.57 103.874 129.346 105.183C128.121 106.493 127.282 108.114 126.92 109.87C124.592 109.904 122.326 109.118 120.52 107.65C119.985 107.216 119.318 106.98 118.63 106.98C118.439 106.982 118.248 106.998 118.06 107.03C117.639 107.12 117.243 107.3 116.898 107.557C116.552 107.814 116.267 108.143 116.06 108.52C115.548 109.447 115.231 110.469 115.126 111.522C115.021 112.576 115.131 113.64 115.45 114.65C115.472 114.731 115.499 114.811 115.53 114.89C115.389 115.206 115.305 115.545 115.28 115.89C115.244 116.764 115.384 117.637 115.692 118.456C115.999 119.275 116.468 120.025 117.07 120.66C117.161 120.765 117.258 120.865 117.36 120.96C117.4 121.338 117.512 121.704 117.69 122.04C117.971 122.57 118.306 123.069 118.69 123.53C118.28 123.63 117.85 123.71 117.4 123.78C116.737 123.88 116.126 124.199 115.665 124.686C115.205 125.173 114.921 125.801 114.859 126.468C114.796 127.136 114.96 127.805 115.322 128.369C115.685 128.933 116.226 129.36 116.86 129.58L117.09 129.66L117.83 129.91C119.454 130.386 121.138 130.625 122.83 130.62C123.716 130.62 124.602 130.557 125.48 130.43H125.54C125.691 130.42 125.841 130.4 125.99 130.37L127.49 130.07H127.65L127.95 130L128.35 129.87L129.35 129.58C133.37 128.3 136.924 125.866 139.57 122.58C141.905 119.755 143.423 116.346 143.96 112.72C144.089 111.86 144.146 110.99 144.13 110.12C144.881 109.315 145.551 108.437 146.13 107.5L146.26 107.29V107.2C146.592 106.624 146.723 105.953 146.632 105.294C146.542 104.636 146.235 104.025 145.76 103.56C145.709 103.154 145.575 102.762 145.367 102.41C145.159 102.057 144.881 101.751 144.55 101.51C144.038 101.139 143.422 100.94 142.79 100.94L142.67 100.9Z" fill="black"/>
<path d="M210.1 177.03L175.55 175.8C168.61 175.56 163.66 170.41 164.37 164.32L167.65 136.02C168.35 130.02 174.43 124.92 181.36 124.63L215.85 123.18C223.69 122.85 229.63 127.9 228.95 134.47L225.73 165.47C225 172.18 218 177.32 210.1 177.03Z" fill="white" stroke="black" stroke-width="3" stroke-miterlimit="10"/>
<path d="M179.7 140.2L213.99 139.57" stroke="black" stroke-width="3" stroke-miterlimit="10" stroke-linecap="round"/>
<path d="M178.57 150.09L212.88 149.97" stroke="black" stroke-width="3" stroke-miterlimit="10" stroke-linecap="round"/>
<path d="M177.45 160.01L211.77 160.41" stroke="black" stroke-width="3" stroke-miterlimit="10" stroke-linecap="round"/>
<path d="M188 144.01C187.415 144.022 186.834 143.91 186.294 143.683C185.755 143.456 185.27 143.117 184.87 142.69C184.536 142.318 184.285 141.88 184.134 141.404C183.982 140.929 183.933 140.426 183.99 139.93C184.174 138.85 184.736 137.871 185.574 137.166C186.413 136.461 187.474 136.076 188.57 136.08H188.68C189.263 136.069 189.843 136.18 190.38 136.408C190.918 136.635 191.401 136.973 191.8 137.4C192.135 137.768 192.388 138.204 192.539 138.679C192.691 139.154 192.739 139.655 192.68 140.15C192.5 141.238 191.937 142.227 191.091 142.935C190.245 143.643 189.173 144.025 188.07 144.01H188Z" fill="#0080FF"/>
<path d="M188.67 137.58C189 137.546 189.332 137.584 189.646 137.692C189.959 137.799 190.245 137.974 190.484 138.203C190.723 138.433 190.909 138.711 191.029 139.02C191.149 139.328 191.201 139.659 191.18 139.99C191.037 140.712 190.643 141.361 190.069 141.822C189.495 142.283 188.776 142.526 188.04 142.51C187.709 142.544 187.375 142.506 187.061 142.397C186.746 142.289 186.459 142.114 186.22 141.884C185.98 141.653 185.793 141.374 185.672 141.064C185.551 140.754 185.5 140.422 185.52 140.09C185.669 139.375 186.061 138.733 186.63 138.275C187.199 137.817 187.91 137.572 188.64 137.58H188.72M188.72 134.58H188.58C187.129 134.595 185.731 135.124 184.632 136.072C183.534 137.02 182.807 138.327 182.58 139.76C182.497 140.466 182.566 141.182 182.781 141.86C182.997 142.538 183.354 143.161 183.83 143.69C184.371 144.274 185.029 144.738 185.762 145.052C186.494 145.365 187.284 145.522 188.08 145.51H188.17C189.636 145.513 191.055 144.992 192.17 144.04C193.286 143.088 194.023 141.768 194.25 140.32C194.332 139.615 194.263 138.901 194.047 138.225C193.832 137.55 193.475 136.927 193 136.4C192.461 135.816 191.805 135.352 191.074 135.038C190.343 134.725 189.555 134.569 188.76 134.58H188.72Z" fill="black"/>
<path d="M203.47 154.04C202.855 154.051 202.244 153.933 201.678 153.694C201.111 153.454 200.601 153.099 200.18 152.65C199.838 152.275 199.58 151.831 199.423 151.348C199.266 150.865 199.214 150.355 199.27 149.85C199.46 148.74 200.043 147.735 200.914 147.021C201.785 146.306 202.884 145.929 204.01 145.96C204.631 145.945 205.249 146.061 205.823 146.301C206.397 146.54 206.914 146.898 207.34 147.35C207.68 147.726 207.937 148.17 208.094 148.653C208.251 149.135 208.304 149.645 208.25 150.15C208.059 151.267 207.47 152.277 206.591 152.993C205.712 153.708 204.603 154.08 203.47 154.04Z" fill="#0080FF"/>
<path d="M204 147.46C204.35 147.421 204.704 147.458 205.039 147.568C205.373 147.679 205.68 147.861 205.937 148.101C206.195 148.342 206.397 148.635 206.531 148.961C206.664 149.287 206.725 149.638 206.71 149.99C206.556 150.736 206.141 151.402 205.54 151.87C204.939 152.337 204.191 152.575 203.43 152.54C203.08 152.577 202.726 152.539 202.393 152.428C202.059 152.317 201.753 152.135 201.496 151.895C201.239 151.655 201.037 151.362 200.903 151.037C200.769 150.712 200.706 150.361 200.72 150.01C200.877 149.27 201.29 148.608 201.886 148.142C202.482 147.675 203.223 147.434 203.98 147.46M203.98 144.46C202.489 144.436 201.039 144.951 199.896 145.91C198.754 146.869 197.995 148.207 197.76 149.68C197.67 150.4 197.739 151.13 197.96 151.821C198.181 152.512 198.549 153.146 199.04 153.68C199.601 154.287 200.283 154.77 201.043 155.095C201.803 155.421 202.623 155.583 203.45 155.57C204.952 155.607 206.416 155.098 207.569 154.135C208.723 153.173 209.487 151.824 209.72 150.34C209.808 149.62 209.738 148.889 209.516 148.198C209.293 147.507 208.922 146.873 208.43 146.34C207.869 145.733 207.186 145.25 206.426 144.925C205.667 144.599 204.847 144.437 204.02 144.45L203.98 144.46Z" fill="black"/>
<path d="M191 164.18C190.4 164.18 189.807 164.056 189.258 163.815C188.709 163.574 188.216 163.221 187.81 162.78C187.472 162.401 187.218 161.954 187.065 161.47C186.912 160.986 186.862 160.475 186.92 159.97C187.101 158.883 187.67 157.899 188.521 157.201C189.373 156.502 190.449 156.136 191.55 156.17C192.158 156.159 192.762 156.277 193.322 156.515C193.881 156.752 194.385 157.105 194.8 157.55C195.142 157.929 195.4 158.376 195.555 158.863C195.71 159.349 195.76 159.863 195.7 160.37C195.52 161.471 194.941 162.467 194.075 163.169C193.208 163.872 192.114 164.231 191 164.18Z" fill="#0080FF"/>
<path d="M191.51 157.67C191.855 157.641 192.202 157.686 192.529 157.802C192.855 157.918 193.152 158.103 193.401 158.343C193.65 158.584 193.845 158.875 193.972 159.197C194.1 159.519 194.157 159.864 194.14 160.21C193.998 160.929 193.603 161.573 193.027 162.026C192.451 162.478 191.732 162.711 191 162.68C190.657 162.706 190.312 162.658 189.988 162.541C189.664 162.423 189.369 162.238 189.123 161.998C188.876 161.758 188.683 161.468 188.557 161.148C188.43 160.827 188.374 160.484 188.39 160.14C188.533 159.421 188.928 158.777 189.503 158.324C190.079 157.871 190.798 157.639 191.53 157.67M191.53 154.67C190.06 154.638 188.629 155.142 187.503 156.088C186.377 157.034 185.633 158.356 185.41 159.81C185.321 160.528 185.388 161.257 185.605 161.947C185.823 162.637 186.186 163.272 186.67 163.81C187.211 164.409 187.871 164.888 188.608 165.217C189.345 165.546 190.143 165.717 190.95 165.72H191.05C192.522 165.751 193.954 165.246 195.081 164.298C196.207 163.35 196.95 162.025 197.17 160.57C197.256 159.851 197.188 159.122 196.969 158.432C196.75 157.742 196.385 157.107 195.9 156.57C195.353 155.969 194.686 155.491 193.941 155.165C193.197 154.84 192.393 154.674 191.58 154.68L191.53 154.67Z" fill="black"/>
</svg>
