<svg width="24" height="24" viewBox="0 0 24 24" fill="none" xmlns="http://www.w3.org/2000/svg">
<path d="M7.00016 3.66675C6.55814 3.66675 6.13421 3.84234 5.82165 4.1549C5.50909 4.46746 5.3335 4.89139 5.3335 5.33341V18.6667C5.3335 19.1088 5.50909 19.5327 5.82165 19.8453C6.13421 20.1578 6.55814 20.3334 7.00016 20.3334H17.0002C17.4422 20.3334 17.8661 20.1578 18.1787 19.8453C18.4912 19.5327 18.6668 19.1088 18.6668 18.6667V8.66675L13.6668 3.66675H7.00016ZM7.00016 5.33341H12.8335V9.50008H17.0002V18.6667H7.00016V5.33341ZM8.66683 12.0001V13.6667H15.3335V12.0001H8.66683ZM8.66683 15.3334V17.0001H12.8335V15.3334H8.66683Z" fill="#333333"/>
</svg>
