<svg width="240" height="240" viewBox="0 0 240 240" fill="none" xmlns="http://www.w3.org/2000/svg">
<path d="M195.13 182.12C194.637 182.12 194.137 182.1 193.63 182.06L28.8699 168.88C27.8278 168.797 26.814 168.501 25.8918 168.009C24.9695 167.517 24.1586 166.84 23.5099 166.02C22.6915 164.94 22.1009 163.705 21.7743 162.39C21.4477 161.075 21.3918 159.707 21.6099 158.37L28.67 108.42C29.45 102.94 34.1299 98.2999 39.1099 98.0599L204 90.1799C204.31 90.1799 204.62 90.1799 204.92 90.1799C206.958 90.1045 208.99 90.456 210.884 91.2121C212.778 91.9681 214.494 93.1118 215.92 94.5699C216.901 95.6388 217.639 96.9071 218.085 98.2879C218.53 99.6686 218.672 101.129 218.5 102.57L211.39 169.49C210.58 176.57 203.46 182.12 195.13 182.12Z" fill="#B900D7"/>
<path d="M204.89 88.6599V91.6599C206.712 91.587 208.529 91.8953 210.225 92.5652C211.922 93.235 213.459 94.2516 214.74 95.5499C215.58 96.4669 216.213 97.5545 216.594 98.7385C216.976 99.9224 217.097 101.175 216.95 102.41L209.84 169.32C209.16 175.66 202.7 180.62 195.13 180.62C194.68 180.62 194.21 180.62 193.75 180.57L28.9999 167.39C28.1613 167.328 27.3451 167.09 26.6044 166.692C25.8636 166.294 25.2147 165.745 24.6998 165.08C24.0054 164.16 23.5062 163.109 23.2328 161.989C22.9594 160.87 22.9175 159.706 23.1098 158.57L30.1699 108.63C30.8299 103.91 34.9699 99.7599 39.1699 99.5599L204 91.6799C204.29 91.6799 204.57 91.6799 204.85 91.6799V88.6799M204.85 88.6799C204.52 88.6799 204.19 88.6799 203.85 88.6799L38.9999 96.5599C33.2799 96.8399 27.9999 102.04 27.1499 108.21L20.0898 158.15C19.1998 164.45 23.0098 169.92 28.7098 170.38L193.47 183.56C194.023 183.6 194.563 183.62 195.09 183.62C204.09 183.62 211.93 177.62 212.78 169.62L219.89 102.7C220.73 94.7599 213.98 88.6299 204.89 88.6399L204.85 88.6799Z" fill="black"/>
<path d="M166.14 151L52.0901 146.51C51.3255 146.491 50.5737 146.31 49.8843 145.979C49.1948 145.648 48.5832 145.175 48.0901 144.59C47.5275 143.88 47.1188 143.061 46.8899 142.185C46.6609 141.309 46.6167 140.394 46.7601 139.5C47.2901 135.64 50.6401 132.5 54.2201 132.5L168.36 133.74C169.671 133.729 170.97 133.99 172.175 134.506C173.38 135.023 174.464 135.783 175.36 136.74C176.049 137.511 176.566 138.42 176.876 139.406C177.187 140.392 177.284 141.433 177.16 142.46C176.63 147.17 171.85 151 166.5 151H166.14Z" fill="white"/>
<path d="M54.2601 131V134L168.33 135.24C169.439 135.221 170.539 135.432 171.562 135.861C172.584 136.289 173.507 136.926 174.27 137.73C174.822 138.343 175.236 139.067 175.485 139.854C175.733 140.64 175.81 141.471 175.71 142.29C175.26 146.29 171.15 149.49 166.54 149.49H166.15L52.1501 145C51.6015 144.991 51.0613 144.863 50.5661 144.627C50.0709 144.391 49.6324 144.051 49.2801 143.63C48.853 143.078 48.5438 142.445 48.3718 141.769C48.1997 141.093 48.1686 140.389 48.2801 139.7C48.7101 136.62 51.4401 134.01 54.2801 134.01V131.01M54.2801 131.01C49.9301 131.01 45.9601 134.7 45.2801 139.3C44.6401 143.94 47.6301 147.85 52.0001 148.02L166 152.51H166.51C172.61 152.51 178.04 148.18 178.67 142.64C179.31 136.96 174.67 132.31 168.33 132.24L54.34 131L54.2801 131.01Z" fill="black"/>
<path d="M93.8799 115.2C92.7663 115.247 91.6564 115.043 90.6319 114.604C89.6074 114.165 88.6945 113.502 87.9604 112.663C87.2263 111.825 86.6897 110.832 86.3902 109.758C86.0907 108.685 86.0359 107.557 86.2299 106.46L89.78 79.3699C90.2366 76.7697 91.521 74.3867 93.4419 72.5757C95.3628 70.7647 97.8173 69.6227 100.44 69.3199L129.72 66.7499C130.06 66.7499 130.39 66.7499 130.72 66.7499C131.909 66.7057 133.093 66.9166 134.194 67.3686C135.294 67.8205 136.285 68.5029 137.1 69.3699C137.799 70.1883 138.314 71.148 138.609 72.1834C138.905 73.2188 138.973 74.3057 138.81 75.3699L135.25 104.68C134.57 110.26 129.25 114.87 123.25 114.94L93.8799 115.2Z" fill="#DC78FF"/>
<path d="M130.72 68.2C131.694 68.1576 132.666 68.3249 133.57 68.6906C134.474 69.0564 135.289 69.612 135.96 70.32C136.516 70.9702 136.925 71.7334 137.158 72.5569C137.391 73.3804 137.443 74.2446 137.31 75.09L133.75 104.4C133.17 109.18 128.36 113.28 123.24 113.34L93.9799 113.69H93.8799C92.987 113.726 92.0973 113.563 91.2757 113.212C90.454 112.86 89.7213 112.33 89.1309 111.659C88.5405 110.988 88.1074 110.194 87.8633 109.334C87.6192 108.474 87.5702 107.571 87.7199 106.69L91.2599 79.6C91.8299 75.25 96.0999 71.25 100.58 70.85L129.85 68.28C130.14 68.28 130.43 68.28 130.72 68.28M130.72 65.28C130.35 65.28 129.97 65.28 129.59 65.28L100.31 67.85C97.35 68.1904 94.5803 69.4817 92.4165 71.53C90.2528 73.5783 88.8119 76.2731 88.31 79.21L84.7599 106.3C84.5489 107.608 84.6292 108.946 84.995 110.219C85.3609 111.492 86.0032 112.669 86.8763 113.665C87.7493 114.661 88.8315 115.453 90.0456 115.982C91.2597 116.512 92.5758 116.768 93.8999 116.73H94.03L123.3 116.38C129.91 116.3 135.98 111.11 136.75 104.8L140.31 75.49C141.02 69.63 136.76 65.24 130.74 65.24L130.72 65.28Z" fill="black"/>
<path d="M109.93 106.72C109.007 106.753 108.108 106.427 107.42 105.81C107.07 105.494 106.798 105.101 106.625 104.662C106.451 104.223 106.381 103.75 106.42 103.28C104.664 103.03 102.968 102.457 101.42 101.59C100.846 101.301 100.379 100.835 100.09 100.26C99.823 99.6648 99.7361 99.0043 99.8401 98.3601C99.9586 97.4678 100.366 96.6389 101 96.0001C101.632 95.3193 102.503 94.9106 103.43 94.8601H103.61C103.948 94.8611 104.284 94.9047 104.61 94.9901C105.043 95.1136 105.462 95.2812 105.86 95.4901C106.554 95.824 107.286 96.0725 108.04 96.2301C108.633 96.345 109.236 96.4019 109.84 96.4001H110.33C111.047 96.4129 111.757 96.266 112.41 95.9701C112.509 95.9207 112.597 95.8528 112.67 95.7701C112.512 95.6984 112.348 95.6415 112.18 95.6001C111.68 95.4801 110.93 95.3301 109.97 95.1501C108.581 94.903 107.208 94.569 105.86 94.1501C104.639 93.7639 103.549 93.0475 102.71 92.0801C102.227 91.4815 101.881 90.785 101.694 90.039C101.508 89.293 101.486 88.5154 101.63 87.7601C101.919 85.802 102.924 84.0205 104.45 82.7601C105.834 81.5572 107.461 80.667 109.22 80.1501L109.28 79.6901C109.405 78.7305 109.896 77.8562 110.65 77.2501C111.381 76.6498 112.285 76.2994 113.23 76.2501H113.59C114.459 76.1926 115.318 76.4599 116 77.0001C116.366 77.3213 116.648 77.7268 116.823 78.1815C116.997 78.6363 117.058 79.1266 117 79.6101C118.484 79.8848 119.92 80.3768 121.26 81.0701C121.866 81.3786 122.365 81.8631 122.69 82.4601C122.957 83.0483 123.048 83.7015 122.95 84.3401C122.839 85.2775 122.4 86.1453 121.71 86.7901C121.062 87.474 120.18 87.8883 119.24 87.9501H119C118.663 87.9476 118.327 87.9039 118 87.8201C117.587 87.7007 117.183 87.5537 116.79 87.3801L115.79 86.9501C115.358 86.7758 114.909 86.6451 114.45 86.5601C114.087 86.4983 113.719 86.4682 113.35 86.4701H112.88C112.253 86.4782 111.637 86.6433 111.09 86.9501C110.959 87.0242 110.844 87.1227 110.75 87.2401C111.655 87.5333 112.586 87.7376 113.53 87.8501C114.937 88.043 116.327 88.3405 117.69 88.7401C118.954 89.1219 120.084 89.8534 120.95 90.8501C121.444 91.4683 121.8 92.1859 121.991 92.9539C122.183 93.7219 122.206 94.5222 122.06 95.3001C121.788 97.3235 120.737 99.1607 119.13 100.42C117.689 101.595 116.005 102.435 114.2 102.88L114.15 103.29C114.034 104.263 113.538 105.151 112.77 105.76C112.014 106.355 111.082 106.682 110.12 106.69L109.93 106.72Z" fill="white"/>
<path d="M113.64 77.6799C114.134 77.6568 114.618 77.8171 115 78.1299C115.196 78.3004 115.343 78.52 115.425 78.7661C115.508 79.0122 115.523 79.2758 115.47 79.5299L115.3 80.8999C117.13 81.0339 118.914 81.541 120.54 82.3899C120.871 82.5328 121.141 82.7872 121.304 83.1087C121.467 83.4303 121.511 83.7988 121.43 84.1499C121.352 84.7468 121.07 85.2982 120.63 85.7099C120.237 86.1346 119.698 86.3953 119.12 86.4399H119C118.798 86.4392 118.596 86.4123 118.4 86.3599C118.058 86.2574 117.724 86.1304 117.4 85.9799L116.4 85.5599C115.869 85.3421 115.316 85.1812 114.75 85.0799C114.298 84.9981 113.84 84.9579 113.38 84.9599H112.82C111.944 84.9833 111.087 85.2275 110.33 85.6699C110.037 85.8294 109.783 86.0536 109.589 86.3256C109.395 86.5977 109.265 86.9103 109.21 87.2399C109.171 87.5306 109.238 87.8257 109.4 88.0704C109.562 88.315 109.807 88.4926 110.09 88.5699C111.138 88.9415 112.225 89.1931 113.33 89.3199C114.681 89.5076 116.018 89.7883 117.33 90.1599C118.325 90.4567 119.214 91.0328 119.89 91.8199C120.248 92.2785 120.501 92.8096 120.632 93.376C120.763 93.9425 120.77 94.5308 120.65 95.0999C120.425 96.7469 119.563 98.2402 118.25 99.2599C116.707 100.493 114.877 101.315 112.93 101.65L112.75 103.09C112.716 103.381 112.624 103.663 112.48 103.919C112.335 104.175 112.142 104.399 111.91 104.58C111.406 104.968 110.787 105.179 110.15 105.18H110.05C109.503 105.212 108.965 105.029 108.55 104.67C108.359 104.487 108.217 104.26 108.137 104.008C108.057 103.757 108.04 103.489 108.09 103.23L108.26 101.92C106.161 101.822 104.111 101.255 102.26 100.26C101.951 100.112 101.695 99.8706 101.53 99.5699C101.39 99.2352 101.352 98.8664 101.42 98.5099C101.501 97.9338 101.768 97.3998 102.18 96.9899C102.548 96.5807 103.061 96.3328 103.61 96.2999H103.72C103.939 96.3012 104.157 96.3281 104.37 96.3799C104.715 96.4798 105.049 96.6103 105.37 96.7699C106.185 97.1648 107.045 97.4603 107.93 97.6499C108.623 97.7772 109.326 97.8408 110.03 97.8399H110.57C111.522 97.8419 112.462 97.63 113.32 97.2199C113.622 97.0685 113.882 96.8452 114.078 96.5697C114.273 96.2942 114.397 95.9749 114.44 95.6399C114.473 95.4495 114.45 95.2537 114.373 95.0763C114.297 94.8988 114.171 94.7472 114.01 94.6399C113.618 94.3754 113.181 94.1856 112.72 94.0799C112.194 93.9466 111.424 93.7866 110.41 93.5999C109.088 93.3792 107.782 93.0719 106.5 92.6799C105.539 92.3802 104.681 91.8193 104.02 91.0599C103.682 90.6171 103.442 90.1067 103.318 89.5632C103.194 89.0197 103.188 88.4559 103.3 87.9099C103.538 86.303 104.369 84.8436 105.63 83.8199C107.102 82.555 108.865 81.6754 110.76 81.2599L110.95 79.8099C111.024 79.2249 111.326 78.6928 111.79 78.3299C112.28 77.9258 112.886 77.6877 113.52 77.6499H113.77M113.77 74.6499H113.3C112.04 74.7291 110.838 75.2091 109.87 76.0199C108.953 76.7617 108.312 77.7901 108.05 78.9399C106.429 79.5362 104.931 80.4241 103.63 81.5599C101.82 83.0791 100.64 85.2181 100.32 87.5599C100.147 88.5247 100.186 89.5157 100.434 90.4639C100.683 91.4121 101.135 92.2946 101.76 93.0499C101.91 93.2294 102.07 93.3997 102.24 93.5599C101.421 93.833 100.68 94.2996 100.08 94.9199C99.2034 95.7921 98.6437 96.9327 98.4903 98.1599C98.3378 99.0939 98.4702 100.052 98.8703 100.91C99.3092 101.771 100.009 102.471 100.87 102.91C102.23 103.676 103.701 104.226 105.23 104.54C105.417 105.451 105.886 106.28 106.57 106.91C107.538 107.786 108.806 108.255 110.11 108.22H110.3C111.587 108.199 112.83 107.756 113.84 106.96C114.762 106.236 115.411 105.221 115.68 104.08C117.343 103.554 118.888 102.712 120.23 101.6C122.133 100.098 123.375 97.9132 123.69 95.5099C123.862 94.5225 123.819 93.5098 123.566 92.5402C123.312 91.5706 122.853 90.6668 122.22 89.8899C121.934 89.5668 121.627 89.2628 121.3 88.9799C121.897 88.7071 122.44 88.3276 122.9 87.8599C123.825 86.975 124.418 85.7995 124.58 84.5299C124.736 83.5836 124.585 82.6124 124.149 81.758C123.714 80.9035 123.017 80.2105 122.16 79.7799C121.046 79.1961 119.868 78.7431 118.65 78.4299C118.471 77.4504 117.963 76.5613 117.21 75.9099C116.281 75.1245 115.097 74.7049 113.88 74.7299L113.77 74.6499Z" fill="black"/>
</svg>
