<svg width="240" height="240" viewBox="0 0 240 240" fill="none" xmlns="http://www.w3.org/2000/svg">
<path d="M191.81 195.34C191.3 195.34 190.81 195.34 190.26 195.28L28.7103 181.67C27.6887 181.586 26.6957 181.291 25.7939 180.804C24.892 180.317 24.1009 179.648 23.4703 178.84C22.6714 177.778 22.095 176.565 21.7754 175.275C21.4558 173.984 21.3996 172.643 21.6102 171.33L32.4103 94.9001C32.4103 94.7601 32.4103 94.6501 32.4703 94.5301C32.5403 94.1601 32.6103 93.8401 32.7003 93.5301C34.0103 88.7701 38.3103 84.8901 42.7003 84.5301L204.36 69.7301C204.935 69.6738 205.513 69.6471 206.09 69.6501C211.98 69.6501 216.7 72.5301 218.09 76.9801C218.09 77.1301 218.18 77.2701 218.21 77.4201C218.305 77.7472 218.372 78.0817 218.41 78.4201C218.47 78.8106 218.5 79.2051 218.5 79.6001C218.5 79.8101 218.5 80.0101 218.5 80.2201C218.514 80.4099 218.514 80.6004 218.5 80.7901L207.59 183C206.86 189.93 199.92 195.34 191.81 195.34Z" fill="#FFD0C6"/>
<path d="M206.08 71.1099C211.3 71.1099 215.46 73.5699 216.65 77.3899C216.693 77.5003 216.726 77.614 216.75 77.7299V77.8099C216.823 78.0547 216.873 78.3058 216.9 78.5599V78.7099C216.943 79.0012 216.963 79.2954 216.96 79.5899C216.96 79.7699 216.96 79.9499 216.96 80.1399V80.3199C216.96 80.4199 216.96 80.5299 216.96 80.6299L206.1 182.85C205.44 189.02 199.17 193.85 191.81 193.85C191.34 193.85 190.86 193.85 190.39 193.79L28.8401 180.19C28.0221 180.124 27.2269 179.888 26.5053 179.498C25.7838 179.107 25.1519 178.569 24.6501 177.92C23.9733 177.019 23.4869 175.989 23.2204 174.894C22.954 173.799 22.913 172.661 23.1002 171.55L33.9001 95.1199V94.8799V94.8099V94.7499C33.9464 94.4737 34.0064 94.2 34.0801 93.9299C35.2401 89.7499 38.9701 86.3399 42.7701 85.9899L204.43 71.1899C204.96 71.1399 205.5 71.1199 206.02 71.1199M206.02 68.1199C205.41 68.1199 204.79 68.1199 204.15 68.1999L42.5501 82.9999C37.4401 83.4699 32.7201 87.8399 31.2501 93.1399C31.1481 93.4885 31.0647 93.8424 31.0001 94.1999C30.9645 94.3616 30.9378 94.5252 30.9202 94.6899L20.1201 171.12C19.2401 177.3 22.9902 182.7 28.5702 183.12L190.13 196.72C190.69 196.72 191.25 196.79 191.8 196.79C200.6 196.79 208.24 190.93 209.07 183.12L219.94 80.9399C219.972 80.728 219.988 80.5141 219.99 80.2999C219.99 80.0599 219.99 79.8199 219.99 79.5899C219.992 79.1413 219.959 78.6932 219.89 78.2499C219.848 77.8374 219.771 77.4292 219.66 77.0299C219.66 76.8499 219.56 76.6699 219.51 76.4899C217.93 71.4899 212.71 68.1099 206.07 68.1099L206.02 68.1199Z" fill="black"/>
<path d="M86.2602 141.06C87.1637 142.684 87.4781 144.571 87.1502 146.4C86.9442 148.198 86.2138 149.895 85.0502 151.28C83.8281 152.704 82.2516 153.78 80.4802 154.4C78.4449 155.122 76.2863 155.431 74.1302 155.31L62.0502 154.82C61.5514 154.84 61.0544 154.748 60.5958 154.551C60.1372 154.354 59.7286 154.056 59.4002 153.68C59.1006 153.248 58.8943 152.758 58.7945 152.241C58.6946 151.725 58.7034 151.193 58.8202 150.68L62.1602 126C62.2526 124.899 62.7349 123.867 63.5202 123.09C64.3344 122.397 65.382 122.039 66.4502 122.09L78.0802 121.92C81.5335 121.86 84.2002 122.607 86.0802 124.16C86.9997 124.924 87.6973 125.921 88.1001 127.047C88.5029 128.173 88.5962 129.386 88.3702 130.56C88.1617 132.254 87.467 133.852 86.3702 135.16C85.2609 136.494 83.7984 137.489 82.1502 138.03C83.8403 138.512 85.2996 139.588 86.2602 141.06ZM68.9402 134.87H74.9402C76.191 134.964 77.4435 134.711 78.5602 134.14C78.9726 133.877 79.3177 133.521 79.5677 133.101C79.8178 132.681 79.9659 132.208 80.0002 131.72C80.1153 131.261 80.1035 130.78 79.9662 130.327C79.8288 129.874 79.5709 129.468 79.2202 129.15C78.1965 128.522 76.9958 128.244 75.8002 128.36H69.8002L68.9402 134.87ZM77.7002 147.87C78.1265 147.55 78.478 147.141 78.7301 146.671C78.9822 146.201 79.129 145.682 79.1602 145.15C79.2796 144.662 79.2745 144.151 79.1452 143.666C79.0159 143.18 78.7666 142.734 78.4202 142.37C77.3715 141.689 76.1271 141.372 74.8802 141.47L68.0702 141.35L67.1402 148.4L73.9402 148.6C75.2343 148.75 76.5438 148.51 77.7002 147.91V147.87Z" fill="#FF917A"/>
<path d="M120 153.76C119.925 154.311 119.729 154.838 119.424 155.304C119.12 155.769 118.715 156.161 118.24 156.45C117.249 157.144 116.059 157.495 114.85 157.45C114.042 157.419 113.252 157.193 112.55 156.79C111.844 156.371 111.266 155.765 110.88 155.04L105.38 145.28C105.059 144.687 104.608 144.174 104.06 143.78C103.531 143.437 102.911 143.259 102.28 143.27L99.0103 143.2L97.9103 152C97.8091 153.249 97.2329 154.412 96.3003 155.25C95.3448 156.049 94.1115 156.438 92.8703 156.33C92.2879 156.347 91.7087 156.238 91.1733 156.008C90.6378 155.778 90.159 155.434 89.7703 155C89.4147 154.536 89.1622 154.002 89.0294 153.433C88.8966 152.864 88.8867 152.273 89.0003 151.7L92.3603 125.7C92.3895 125.117 92.5346 124.545 92.7872 124.018C93.0397 123.491 93.3946 123.02 93.8312 122.632C94.2677 122.244 94.7772 121.946 95.3299 121.757C95.8826 121.568 96.4674 121.491 97.0503 121.53L109.65 121.34C114.05 121.28 117.274 122.163 119.32 123.99C121.32 125.84 122.17 128.55 121.73 132.11C121.457 134.69 120.335 137.107 118.54 138.98C116.641 140.893 114.196 142.172 111.54 142.64C112.574 142.795 113.555 143.196 114.4 143.81C115.307 144.542 116.064 145.442 116.63 146.46L119.36 151.09C119.859 151.886 120.084 152.824 120 153.76ZM110.85 135.51C111.363 135.165 111.789 134.705 112.095 134.167C112.4 133.629 112.577 133.028 112.61 132.41C112.749 131.839 112.728 131.241 112.552 130.681C112.376 130.121 112.05 129.619 111.61 129.23C110.78 128.58 109.32 128.23 107.24 128.23H100.78L99.7803 136.3H106.24C107.83 136.471 109.437 136.198 110.88 135.51H110.85Z" fill="#FF917A"/>
<path d="M156.62 142.22C157.781 143.99 158.238 146.13 157.9 148.22C157.677 150.248 156.816 152.153 155.44 153.66C153.911 155.265 151.997 156.453 149.88 157.11C147.353 157.917 144.699 158.256 142.05 158.11L127.15 157.51C126.543 157.533 125.938 157.431 125.372 157.211C124.806 156.991 124.292 156.657 123.86 156.23C123.494 155.773 123.233 155.242 123.095 154.674C122.956 154.105 122.945 153.514 123.06 152.94L126.43 125.5C126.525 124.259 127.094 123.102 128.02 122.27C129.033 121.468 130.299 121.053 131.59 121.1L145.91 120.89C150.17 120.83 153.483 121.657 155.85 123.37C156.972 124.152 157.85 125.235 158.381 126.496C158.912 127.756 159.075 129.141 158.85 130.49C158.637 132.399 157.825 134.191 156.53 135.61C155.139 137.127 153.357 138.23 151.38 138.8C153.468 139.304 155.318 140.512 156.62 142.22ZM135 135.32L142.37 135.37C143.898 135.475 145.427 135.197 146.82 134.56C147.306 134.287 147.717 133.897 148.015 133.426C148.314 132.954 148.491 132.416 148.53 131.86C148.646 131.334 148.609 130.786 148.423 130.281C148.237 129.776 147.91 129.335 147.48 129.01C146.182 128.312 144.709 128.007 143.24 128.13H135.87L135 135.32ZM146.19 149.83C146.694 149.502 147.114 149.059 147.414 148.537C147.715 148.016 147.888 147.431 147.92 146.83C148.05 146.273 148.025 145.691 147.849 145.146C147.673 144.602 147.352 144.116 146.92 143.74C145.584 142.981 144.053 142.633 142.52 142.74L134.13 142.6L133.18 150.43L141.57 150.67C143.171 150.828 144.785 150.537 146.23 149.83H146.19Z" fill="#FF917A"/>
<path d="M48.8003 135.45C45.2695 135.468 41.7608 134.893 38.4203 133.75C34.7003 132.47 31.2103 129.82 28.0303 125.89L32.4103 94.8901C32.4103 94.7501 32.4103 94.6401 32.4703 94.5201C32.5403 94.1501 32.6103 93.8301 32.7003 93.5201C33.9803 88.7201 38.2803 84.8101 42.7003 84.4101L122.64 77.0801L120.81 91.8201C111.94 92.2901 103.81 96.8201 98.5003 100.6C97.5503 101.28 96.6203 101.97 95.7503 102.67C91.028 106.565 86.5464 110.742 82.3303 115.18C80.2603 117.27 78.1203 119.43 75.9903 121.47C68.9903 128.15 63.0903 132.7 55.5003 134.73C53.3027 135.231 51.0541 135.473 48.8003 135.45Z" fill="#FF5A35"/>
<path d="M120.93 78.75L119.47 90.43C110.75 91.24 102.88 95.65 97.6202 99.43C96.6202 100.11 95.7202 100.83 94.8202 101.54C90.0493 105.476 85.521 109.697 81.2602 114.18C79.2002 116.26 77.0702 118.41 74.9502 120.43C67.9502 127.12 62.4302 131.37 55.1202 133.33C53.0459 133.793 50.9252 134.014 48.8002 133.99C45.436 134.008 42.0927 133.461 38.9102 132.37C35.2413 130.967 32.0255 128.588 29.6102 125.49L33.9002 95.15V94.91V94.84V94.78C33.947 94.4965 34.0105 94.216 34.0902 93.94C35.2202 89.74 38.9502 86.3 42.7802 85.94L120.87 78.78M124.3 75.45L42.5002 82.95C37.3702 83.42 32.6202 87.84 31.1902 93.16C31.1091 93.5031 31.0456 93.8503 31.0002 94.2C30.9646 94.3617 30.9379 94.5253 30.9202 94.69L26.4502 126.32C29.8402 130.67 33.7002 133.71 37.9202 135.17C41.4202 136.379 45.0971 136.998 48.8002 137C51.1852 137.027 53.5651 136.772 55.8902 136.24C63.5302 134.19 69.4102 129.86 77.0202 122.61C83.4802 116.48 89.4802 109.61 96.6802 103.9C97.5602 103.21 98.4502 102.54 99.3702 101.9C106.17 97.06 114.17 93.41 122.14 93.37L124.36 75.49L124.3 75.45Z" fill="black"/>
<path d="M32.4199 94.9C32.4334 94.7757 32.4534 94.6522 32.4799 94.53C32.5499 94.16 32.6099 93.84 32.6999 93.53C33.9899 88.74 38.2799 84.83 42.6999 84.42L204.36 69.6C204.94 69.6 205.52 69.52 206.08 69.52C212.19 69.52 217.08 72.68 218.21 77.39C218.302 77.7178 218.369 78.0521 218.41 78.39C218.465 78.781 218.495 79.1752 218.5 79.57C218.5 79.78 218.5 79.98 218.5 80.19C218.5 80.4 218.5 80.6 218.5 80.76L217 94L31.1299 104L32.4199 94.9Z" fill="white"/>
<path d="M206.08 71C211.48 71 215.77 73.71 216.75 77.73V77.79C216.823 78.0348 216.873 78.2859 216.9 78.54V78.69C216.942 78.9814 216.962 79.2756 216.96 79.57C216.96 79.75 216.96 79.93 216.96 80.11V80.3C216.96 80.4 216.96 80.5 216.96 80.61L215.69 92.61L32.8899 102.41L33.8899 95.14V94.9V94.83V94.77C33.9368 94.4865 34.0002 94.2061 34.0799 93.93C35.2099 89.73 38.9399 86.3 42.7599 85.93L204.5 71.1C205.03 71.1 205.56 71.02 206.08 71.02M206.08 68.02C205.47 68.02 204.85 68.02 204.22 68.1L42.5599 82.92C37.4299 83.39 32.6799 87.81 31.2499 93.13C31.1475 93.482 31.0641 93.8392 30.9999 94.2C30.9643 94.3618 30.9376 94.5254 30.9199 94.69L29.3799 105.58L218.38 95.45L219.92 80.94C219.951 80.7281 219.968 80.5143 219.97 80.3C219.97 80.06 219.97 79.82 219.97 79.59C219.972 79.1414 219.938 78.6934 219.87 78.25C219.828 77.8376 219.751 77.4294 219.64 77.03C218.33 71.65 212.96 68.03 206.05 68.03L206.08 68.02Z" fill="black"/>
<path d="M42.1301 91.8199C42.3731 91.8204 42.6128 91.8769 42.8304 91.9851C43.048 92.0934 43.2378 92.2503 43.3849 92.4438C43.5319 92.6374 43.6323 92.8622 43.6783 93.1009C43.7243 93.3395 43.7147 93.5856 43.6501 93.8199C43.561 94.3742 43.2962 94.8853 42.8947 95.2778C42.4932 95.6703 41.9763 95.9234 41.4201 95.9999H41.2901C41.0531 95.9994 40.8193 95.945 40.6066 95.8407C40.3938 95.7364 40.2076 95.5851 40.062 95.3981C39.9165 95.2111 39.8155 94.9934 39.7666 94.7615C39.7177 94.5297 39.7223 94.2897 39.7801 94.0599C39.8571 93.4973 40.1156 92.9752 40.5162 92.5727C40.9168 92.1703 41.4378 91.9095 42.0001 91.8299H42.1401M42.1401 88.8299H41.7801C40.5296 88.9504 39.3562 89.4885 38.4491 90.3575C37.542 91.2266 36.954 92.3758 36.7801 93.6199C36.6744 94.2984 36.7162 94.9917 36.9026 95.6526C37.0889 96.3135 37.4155 96.9265 37.86 97.4499C38.2845 97.9331 38.8077 98.3196 39.3942 98.5836C39.9807 98.8475 40.6169 98.9826 41.2601 98.9799H41.5901C42.8413 98.8572 44.0149 98.3171 44.9219 97.4464C45.8288 96.5757 46.4164 95.4251 46.5901 94.1799C46.6917 93.5007 46.6471 92.8076 46.4591 92.1471C46.2711 91.4865 45.9441 90.8738 45.5001 90.3499C45.076 89.8662 44.553 89.4793 43.9664 89.2153C43.3798 88.9513 42.7433 88.8165 42.1001 88.8199L42.1401 88.8299Z" fill="black"/>
<path d="M53.4603 91C53.7064 90.9973 53.9499 91.051 54.172 91.1571C54.3941 91.2632 54.589 91.4187 54.7416 91.6119C54.8942 91.805 55.0004 92.0306 55.0522 92.2713C55.104 92.5119 55.0999 92.7612 55.0403 93C54.9573 93.5766 54.6873 94.11 54.2718 94.5183C53.8563 94.9265 53.3182 95.1871 52.7403 95.26H52.6003C52.3548 95.2608 52.1123 95.2058 51.8912 95.0991C51.6701 94.9925 51.4761 94.8369 51.3239 94.6443C51.1717 94.4516 51.0653 94.2269 51.0127 93.9871C50.9601 93.7473 50.9627 93.4987 51.0203 93.26C51.1049 92.6841 51.3754 92.1516 51.7906 91.7436C52.2058 91.3356 52.743 91.0745 53.3203 91H53.4603ZM53.4603 88H53.0903C51.8373 88.1402 50.6664 88.6927 49.7614 89.5705C48.8564 90.4483 48.2686 91.6019 48.0903 92.85C47.9904 93.5315 48.0369 94.2264 48.2266 94.8885C48.4163 95.5506 48.7448 96.1648 49.1903 96.69C49.6218 97.1792 50.1528 97.5705 50.7478 97.8378C51.3428 98.1051 51.988 98.2422 52.6403 98.24H52.9803C54.2448 98.1033 55.4269 97.5461 56.3371 96.6576C57.2473 95.7692 57.833 94.6009 58.0003 93.34C58.0999 92.6601 58.0533 91.9668 57.8636 91.3063C57.674 90.6458 57.3455 90.0334 56.9003 89.51C56.467 89.0284 55.9362 88.6447 55.343 88.3843C54.7499 88.1239 54.108 87.9929 53.4603 88Z" fill="black"/>
<path d="M65.2501 90.0601C65.4991 90.0564 65.7457 90.1086 65.9718 90.2131C66.1978 90.3175 66.3974 90.4715 66.5559 90.6636C66.7143 90.8556 66.8275 91.0809 66.8871 91.3226C66.9467 91.5644 66.9512 91.8164 66.9001 92.0601C66.8104 92.655 66.528 93.2041 66.0963 93.6231C65.6646 94.0422 65.1075 94.3081 64.5102 94.3801H64.3701C64.1212 94.3839 63.8746 94.3317 63.6485 94.2272C63.4225 94.1228 63.2229 93.9688 63.0644 93.7767C62.906 93.5847 62.7928 93.3594 62.7332 93.1177C62.6736 92.8759 62.6691 92.6238 62.7201 92.3801C62.8093 91.7894 63.0891 91.2439 63.517 90.8269C63.9448 90.4099 64.4973 90.1441 65.0901 90.0701H65.2501M65.2501 87.0701H64.8701C63.5902 87.1926 62.3888 87.7427 61.4599 88.6317C60.5309 89.5207 59.9286 90.6968 59.7501 91.9701C59.6484 92.6516 59.6939 93.347 59.8836 94.0095C60.0734 94.6719 60.403 95.2859 60.8501 95.8101C61.2914 96.3073 61.8336 96.7045 62.4406 96.9752C63.0477 97.246 63.7055 97.384 64.3701 97.3801H64.7201C66.0075 97.2623 67.2173 96.7134 68.1538 95.8223C69.0903 94.9312 69.6986 93.75 69.8801 92.4701C69.9773 91.788 69.9286 91.093 69.7373 90.431C69.5459 89.7691 69.2163 89.1552 68.7701 88.6301C68.3289 88.133 67.7867 87.7358 67.1797 87.4651C66.5726 87.1943 65.9148 87.0563 65.2501 87.0601V87.0701Z" fill="black"/>
<path d="M191.42 195.31C190.87 195.31 190.32 195.31 189.78 195.24L64.6201 184.7C67.1268 181.505 69.996 178.613 73.1701 176.08C81.8401 169.19 89.6001 167.61 99.4301 165.61C107.323 164.18 115.076 162.062 122.6 159.28C129.52 156.64 141.11 152.22 152.35 142.44C160.72 135.16 164.41 129.05 167.98 123.14C170.98 118.2 173.8 113.52 179.28 108.61C188.28 100.51 200.96 95.9601 216.93 95.0801L207.59 183C206.86 189.91 199.75 195.31 191.42 195.31Z" fill="#FF5A35"/>
<path d="M215.25 96.69L206.1 182.85C205.45 188.99 199 193.85 191.42 193.85C190.91 193.85 190.42 193.85 189.9 193.78L67.6198 183.48C69.5956 181.232 71.7675 179.164 74.1098 177.3C82.4898 170.63 90.1098 169.08 99.7298 167.12C107.702 165.674 115.532 163.532 123.13 160.72C130.13 158.04 141.89 153.56 153.33 143.61C161.88 136.18 165.8 129.69 169.27 123.96C172.2 119.11 174.97 114.53 180.27 109.77C188.7 102.2 200.45 97.77 215.27 96.77M218.63 93.58C197.31 94.39 185.34 101.24 178.29 107.58C166.19 118.45 166.72 128.06 151.39 141.4C140.34 151 129.16 155.27 122.08 157.97C99.7798 166.48 87.1998 163.12 72.2598 174.97C68.2736 178.138 64.7525 181.851 61.7998 186L189.65 196.76C190.24 196.81 190.83 196.84 191.42 196.84C200.42 196.84 208.25 191 209.08 183.2L218.61 93.53L218.63 93.58Z" fill="black"/>
<path d="M191.81 195.34C191.3 195.34 190.81 195.34 190.26 195.28L136.21 190.73C148.45 184.58 158.52 176.66 166.21 167.14C170.405 161.734 174.132 155.98 177.35 149.94C182.42 140.94 186.8 133.18 196.44 127.69C201.872 124.655 207.883 122.798 214.08 122.24L207.59 183C206.86 189.93 199.92 195.34 191.81 195.34Z" fill="#D22600"/>
<path d="M212.36 124L208.9 156.5L206.1 182.85C205.44 189.01 199.17 193.85 191.81 193.85C191.34 193.85 190.86 193.85 190.39 193.79L174.28 192.44L141.41 189.67C151.354 184.198 160.159 176.873 167.35 168.09C171.591 162.616 175.362 156.791 178.62 150.68C183.62 141.89 187.87 134.29 197.15 129.01C201.853 126.386 207.017 124.689 212.36 124.01M215.73 120.66C208.691 121.046 201.831 123.025 195.67 126.45C179.74 135.52 177.67 150.45 165.01 166.25C158.79 173.99 148.4 183.91 130.51 191.81L190.14 196.81C190.7 196.81 191.26 196.88 191.81 196.88C200.61 196.88 208.25 191.02 209.08 183.21C211.313 162.19 213.53 141.333 215.73 120.64V120.66Z" fill="black"/>
</svg>
