<svg width="240" height="240" viewBox="0 0 240 240" fill="none" xmlns="http://www.w3.org/2000/svg">
<path d="M170.022 183.81H169.302L37.1524 177.12C36.3822 177.089 35.6273 176.894 34.9378 176.549C34.2483 176.205 33.6398 175.717 33.1524 175.12C32.4994 174.264 32.0307 173.281 31.776 172.235C31.5212 171.189 31.486 170.101 31.6724 169.04L40.9224 104.81C41.5524 100.4 45.3024 96.4201 49.2724 95.9401L181.652 79.7301C182.24 79.6593 182.831 79.6225 183.422 79.6201C184.802 79.5539 186.18 79.7808 187.466 80.2859C188.752 80.7909 189.916 81.5626 190.882 82.5501C191.579 83.3357 192.096 84.2626 192.4 85.2673C192.704 86.272 192.787 87.3305 192.642 88.3701L183.202 173.37C182.492 179.2 176.722 183.81 170.022 183.81Z" fill="#FF96BC"/>
<path d="M183.373 81.07C184.54 81.014 185.706 81.2011 186.798 81.6194C187.889 82.0377 188.882 82.6781 189.713 83.5C190.267 84.1306 190.678 84.8736 190.918 85.6779C191.158 86.4823 191.221 87.329 191.103 88.16L181.663 173.16C181.093 178.21 175.863 182.32 170.003 182.32H169.353L37.2127 175.63C36.6346 175.613 36.0671 175.471 35.5492 175.214C35.0313 174.957 34.5753 174.59 34.2127 174.14C33.6917 173.444 33.3198 172.647 33.1203 171.801C32.9207 170.954 32.8977 170.076 33.0527 169.22L42.3027 104.99C42.8427 101.28 46.0727 97.8 49.3027 97.39L181.683 81.19C182.21 81.1225 182.741 81.0891 183.273 81.09M183.273 78.09C182.604 78.0894 181.936 78.1295 181.273 78.2101L49.0227 94.4C44.3827 94.96 40.0927 99.5 39.3627 104.54L30.1127 168.77C29.3627 173.97 32.4327 178.38 37.0427 178.61L169.183 185.29C169.453 185.29 169.713 185.29 169.983 185.29C177.343 185.29 183.883 180.13 184.623 173.46L194.063 88.4601C194.733 82.4001 190.003 78.04 183.353 78.04L183.273 78.09Z" fill="black"/>
<path d="M40.8825 104.7C41.5225 100.3 45.2625 96.3201 49.2325 95.8301L181.613 79.6101C182.2 79.5392 182.791 79.5025 183.383 79.5001C184.762 79.4352 186.14 79.6626 187.426 80.1676C188.711 80.6725 189.876 81.4436 190.843 82.4301C191.536 83.2172 192.051 84.1446 192.353 85.149C192.655 86.1535 192.737 87.2112 192.593 88.2501L191.383 99.1001L39.8325 111.99L40.8825 104.7Z" fill="white"/>
<path d="M183.382 81.0001C184.55 80.9447 185.716 81.1321 186.807 81.5503C187.899 81.9686 188.891 82.6087 189.722 83.4302C190.274 84.0598 190.682 84.8017 190.919 85.6046C191.155 86.4074 191.214 87.2521 191.092 88.0801L190.022 97.7001L41.5925 110.33L42.3724 104.92C42.9124 101.2 46.1324 97.7301 49.3724 97.3301L181.752 81.1001C182.28 81.0376 182.811 81.0042 183.342 81.0001M183.342 78.0001C182.674 77.9973 182.005 78.0408 181.342 78.1301L49.0225 94.3401C44.3725 94.9101 40.0925 99.4401 39.3625 104.49L38.0425 113.65L192.742 100.54L194.092 88.4602C194.762 82.4002 190.032 78.0401 183.382 78.0401L183.342 78.0001Z" fill="black"/>
<path d="M48.6924 101.81C48.8846 101.813 49.0738 101.859 49.2454 101.946C49.4169 102.033 49.5663 102.158 49.6821 102.311C49.798 102.464 49.8771 102.642 49.9136 102.831C49.95 103.02 49.9428 103.215 49.8924 103.4C49.8226 103.872 49.6065 104.31 49.2747 104.653C48.9428 104.995 48.5118 105.225 48.0424 105.31H47.8924C47.7017 105.304 47.5147 105.256 47.3454 105.168C47.1761 105.08 47.0288 104.954 46.9145 104.802C46.8002 104.649 46.7217 104.472 46.685 104.285C46.6483 104.098 46.6542 103.905 46.7024 103.72C46.7725 103.249 46.9872 102.811 47.3168 102.467C47.6464 102.123 48.0747 101.89 48.5424 101.8H48.6924M48.6924 99.3001C48.5526 99.2903 48.4122 99.2903 48.2724 99.3001C47.2661 99.4529 46.3352 99.9235 45.6155 100.643C44.8958 101.363 44.4252 102.294 44.2724 103.3C44.1844 103.865 44.2182 104.441 44.3718 104.992C44.5253 105.542 44.7949 106.053 45.1624 106.49C45.5083 106.887 45.9355 107.205 46.4152 107.423C46.8949 107.64 47.4157 107.752 47.9424 107.75H48.3424C49.3686 107.609 50.3207 107.137 51.055 106.406C51.7893 105.675 52.2658 104.726 52.4124 103.7C52.5018 103.136 52.4695 102.56 52.3177 102.01C52.166 101.46 51.8982 100.948 51.5324 100.51C51.1845 100.113 50.7552 99.7965 50.2737 99.5808C49.7923 99.3651 49.2699 99.2557 48.7424 99.2601L48.6924 99.3001Z" fill="black"/>
<path d="M58.0224 100.8C58.2186 100.803 58.4117 100.85 58.587 100.939C58.7623 101.027 58.9154 101.154 59.0347 101.31C59.154 101.466 59.2365 101.646 59.2759 101.839C59.3153 102.031 59.3107 102.23 59.2623 102.42C59.1939 102.906 58.9716 103.358 58.6279 103.709C58.2842 104.06 57.8372 104.291 57.3524 104.37H57.2023C57.0052 104.368 56.8111 104.322 56.6345 104.235C56.4579 104.147 56.3035 104.02 56.1831 103.864C56.0627 103.708 55.9793 103.527 55.9393 103.334C55.8994 103.141 55.9038 102.941 55.9523 102.75C56.0163 102.258 56.2348 101.8 56.5763 101.44C56.9178 101.081 57.3646 100.839 57.8524 100.75H58.0224M58.0224 98.25H57.5824C56.5475 98.3939 55.5876 98.8709 54.8479 99.6088C54.1081 100.347 53.6288 101.305 53.4824 102.34C53.3943 102.904 53.4282 103.481 53.5817 104.031C53.7352 104.582 54.0048 105.093 54.3723 105.53C54.7249 105.933 55.1603 106.255 55.6487 106.474C56.1371 106.693 56.667 106.804 57.2023 106.8H57.6024C58.6426 106.659 59.609 106.184 60.3557 105.447C61.1025 104.709 61.5891 103.748 61.7423 102.71C61.8305 102.143 61.7958 101.564 61.6405 101.012C61.4852 100.46 61.213 99.9477 60.8424 99.51C60.4897 99.1099 60.0556 98.7897 59.5694 98.5707C59.0831 98.3517 58.5557 98.239 58.0224 98.24V98.25Z" fill="black"/>
<path d="M67.7422 99.7601C67.9451 99.7591 68.1456 99.8042 68.3285 99.892C68.5114 99.9798 68.6719 100.108 68.7981 100.267C68.9242 100.426 69.0127 100.611 69.0567 100.809C69.1007 101.007 69.0992 101.213 69.0523 101.41C68.9737 101.912 68.7376 102.377 68.3782 102.736C68.0187 103.095 67.5545 103.331 67.0523 103.41H66.8823C66.6802 103.41 66.481 103.363 66.2993 103.275C66.1177 103.186 65.9584 103.058 65.8334 102.899C65.7083 102.741 65.6208 102.556 65.5773 102.358C65.5338 102.161 65.5355 101.957 65.5823 101.76C65.6594 101.257 65.8949 100.792 66.2546 100.432C66.6143 100.073 67.0795 99.8372 67.5823 99.7601H67.7523M67.7523 97.2601H67.3123C66.2631 97.4066 65.2896 97.8893 64.5378 98.6357C63.786 99.382 63.2964 100.352 63.1423 101.4C63.0541 101.967 63.0889 102.546 63.2441 103.098C63.3994 103.65 63.6716 104.162 64.0423 104.6C64.4004 105.008 64.8419 105.334 65.3371 105.557C65.8322 105.78 66.3694 105.893 66.9123 105.89H67.3323C68.3888 105.754 69.3716 105.276 70.1302 104.528C70.8888 103.78 71.3813 102.804 71.5323 101.75C71.6205 101.183 71.5857 100.604 71.4304 100.052C71.2751 99.5 71.0029 98.9878 70.6323 98.5501C70.2722 98.1418 69.8289 97.8154 69.3321 97.5929C68.8353 97.3703 68.2966 97.2569 67.7523 97.2601Z" fill="black"/>
<path d="M83.3425 144.82C84.0774 146.169 84.328 147.729 84.0525 149.24C83.8644 150.753 83.2584 152.183 82.3025 153.37C81.3035 154.582 80.0133 155.522 78.5525 156.1C76.8965 156.76 75.1246 157.079 73.3425 157.04L63.4425 156.99C63.0378 157.027 62.6301 156.967 62.2529 156.816C61.8756 156.665 61.5397 156.426 61.2725 156.12C61.0348 155.764 60.8714 155.363 60.7924 154.942C60.7134 154.521 60.7202 154.088 60.8125 153.67L63.6825 132.93C63.7595 132 64.1592 131.126 64.8125 130.46C65.462 129.836 66.3222 129.479 67.2225 129.46L76.7525 128.99C79.5725 128.85 81.7525 129.4 83.2725 130.64C84.0284 131.267 84.5992 132.088 84.9234 133.014C85.2477 133.941 85.313 134.939 85.1125 135.9C84.934 137.325 84.3627 138.672 83.4625 139.79C82.5689 140.937 81.3796 141.818 80.0225 142.34C81.4042 142.715 82.5914 143.601 83.3425 144.82ZM69.1925 140.17L74.0925 140.03C75.1394 140.068 76.1768 139.819 77.0925 139.31C77.4324 139.078 77.7158 138.772 77.9218 138.415C78.1278 138.059 78.251 137.661 78.2825 137.25C78.3843 136.875 78.3802 136.48 78.2708 136.107C78.1613 135.735 77.9508 135.4 77.6625 135.14C76.8194 134.642 75.8334 134.441 74.8625 134.57L69.9625 134.76L69.1925 140.17ZM76.3025 150.78C76.6546 150.501 76.9442 150.151 77.1526 149.753C77.3611 149.356 77.4837 148.918 77.5125 148.47C77.6192 148.07 77.621 147.649 77.5177 147.248C77.4143 146.847 77.2094 146.479 76.9225 146.18C76.0596 145.636 75.0342 145.41 74.0225 145.54L68.4425 145.63L67.6325 151.54H73.2125C74.2952 151.6 75.3713 151.336 76.3025 150.78Z" fill="#FF669D"/>
<path d="M111.643 154.41C111.579 154.873 111.417 155.318 111.167 155.713C110.917 156.108 110.585 156.445 110.193 156.7C109.39 157.298 108.413 157.614 107.413 157.6C106.758 157.609 106.112 157.443 105.543 157.12C104.964 156.794 104.492 156.308 104.183 155.72L99.7328 147.72C99.4788 147.236 99.1117 146.821 98.6627 146.51C98.226 146.238 97.7167 146.105 97.2027 146.13H94.5227L93.5227 153.55C93.4264 154.599 92.9498 155.577 92.1827 156.3C91.4133 156.989 90.4042 157.348 89.3727 157.3C88.9027 157.337 88.4306 157.266 87.9922 157.092C87.5537 156.919 87.1607 156.648 86.8427 156.3C86.55 155.918 86.3431 155.477 86.2361 155.008C86.1291 154.538 86.1246 154.051 86.2227 153.58L89.1128 131.79C89.1966 130.811 89.6254 129.893 90.3227 129.2C91.0588 128.562 91.9985 128.207 92.9727 128.2L103.303 127.7C106.903 127.52 109.543 128.16 111.193 129.64C112.843 131.12 113.503 133.35 113.123 136.32C112.885 138.489 111.96 140.524 110.483 142.13C108.943 143.767 106.947 144.903 104.753 145.39C105.596 145.483 106.401 145.79 107.093 146.28C107.83 146.864 108.445 147.588 108.903 148.41L111.103 152.19C111.524 152.85 111.714 153.631 111.643 154.41ZM104.263 139.48C104.683 139.174 105.031 138.781 105.283 138.326C105.535 137.872 105.685 137.368 105.723 136.85C105.842 136.384 105.832 135.894 105.695 135.432C105.558 134.971 105.298 134.555 104.943 134.23C103.854 133.622 102.598 133.383 101.363 133.55L96.0727 133.75L95.1927 140.51L100.483 140.37C101.801 140.426 103.108 140.118 104.263 139.48Z" fill="#FF669D"/>
<path d="M142.442 143.74C143.381 145.197 143.737 146.953 143.442 148.66C143.264 150.359 142.565 151.962 141.442 153.25C140.196 154.614 138.628 155.646 136.882 156.25C134.827 156.988 132.655 157.344 130.472 157.3L118.282 157.23C117.788 157.268 117.292 157.198 116.827 157.025C116.363 156.852 115.942 156.581 115.592 156.23C115.293 155.851 115.082 155.411 114.973 154.94C114.864 154.47 114.861 153.982 114.962 153.51L117.862 130.51C117.949 129.468 118.419 128.495 119.182 127.78C120.001 127.086 121.039 126.704 122.112 126.7L133.842 126.12C137.322 125.947 140.022 126.543 141.942 127.91C142.87 128.544 143.595 129.432 144.029 130.468C144.464 131.504 144.59 132.644 144.392 133.75C144.201 135.355 143.528 136.865 142.462 138.08C141.332 139.375 139.875 140.343 138.242 140.88C139.942 141.294 141.434 142.31 142.442 143.74ZM124.832 138.61L130.832 138.44C132.096 138.482 133.351 138.207 134.482 137.64C134.881 137.397 135.215 137.062 135.459 136.664C135.702 136.266 135.847 135.816 135.882 135.35C135.99 134.919 135.967 134.466 135.818 134.048C135.668 133.63 135.398 133.265 135.042 133C133.976 132.456 132.771 132.244 131.582 132.39L125.582 132.62L124.832 138.61ZM133.912 150.37C134.329 150.077 134.674 149.694 134.921 149.249C135.169 148.804 135.313 148.309 135.342 147.8C135.452 147.344 135.436 146.866 135.295 146.419C135.154 145.971 134.894 145.571 134.542 145.26C133.447 144.659 132.193 144.411 130.952 144.55L124.082 144.66L123.262 151.21H130.132C131.446 151.285 132.754 150.994 133.912 150.37Z" fill="#FF669D"/>
<path d="M145.352 208.54C145.179 208.55 145.006 208.55 144.832 208.54C144.175 208.488 143.534 208.305 142.948 208.001C142.362 207.697 141.843 207.278 141.422 206.77C141.068 206.337 140.805 205.836 140.648 205.298C140.492 204.76 140.446 204.196 140.512 203.64L143.672 177.29C143.739 176.761 143.689 176.224 143.527 175.716C143.364 175.209 143.093 174.742 142.732 174.35C142.371 173.963 141.937 173.651 141.455 173.433C140.972 173.215 140.452 173.095 139.922 173.08H139.772C138.742 173.078 137.744 173.444 136.961 174.114C136.178 174.784 135.66 175.712 135.502 176.73L134.862 182.01C134.706 183.218 134.077 184.315 133.112 185.06C132.196 185.797 131.058 186.202 129.882 186.21H129.592C129.01 186.187 128.439 186.045 127.915 185.792C127.39 185.539 126.923 185.181 126.542 184.74C126.206 184.335 125.957 183.865 125.813 183.359C125.668 182.852 125.631 182.322 125.702 181.8L131.182 137.48L158.392 136.6L150.392 204.39C150.314 205.008 150.109 205.602 149.791 206.137C149.472 206.672 149.048 207.136 148.542 207.5C147.618 208.179 146.5 208.543 145.352 208.54Z" fill="#FFF3F8"/>
<path d="M156.693 138.12L148.953 204.17C148.895 204.587 148.753 204.988 148.537 205.348C148.32 205.709 148.033 206.023 147.693 206.27C147.013 206.766 146.194 207.036 145.353 207.04H144.973C144.515 207.006 144.068 206.88 143.659 206.671C143.25 206.461 142.888 206.172 142.593 205.82C142.365 205.544 142.195 205.224 142.094 204.88C141.992 204.537 141.961 204.176 142.003 203.82L145.163 177.47C145.253 176.726 145.181 175.972 144.952 175.259C144.722 174.546 144.34 173.891 143.833 173.34C143.351 172.799 142.765 172.361 142.111 172.052C141.456 171.743 140.746 171.569 140.023 171.54H139.823C138.421 171.54 137.068 172.046 136.009 172.965C134.951 173.883 134.26 175.153 134.063 176.54L133.433 181.82C133.306 182.636 132.874 183.373 132.223 183.88C131.575 184.406 130.767 184.695 129.933 184.7H129.733C129.352 184.692 128.977 184.604 128.633 184.442C128.288 184.28 127.982 184.048 127.733 183.76C127.525 183.515 127.372 183.229 127.284 182.92C127.196 182.611 127.175 182.287 127.223 181.97L132.543 138.97L156.723 138.19M160.113 135.08L129.883 136.08L124.213 181.54C124.123 182.295 124.193 183.061 124.417 183.787C124.641 184.514 125.015 185.185 125.514 185.759C126.013 186.333 126.626 186.795 127.315 187.118C128.004 187.44 128.752 187.614 129.513 187.63H129.883C131.398 187.627 132.866 187.105 134.043 186.15C135.306 185.17 136.136 183.734 136.353 182.15L136.993 176.87C137.102 176.214 137.443 175.619 137.952 175.192C138.462 174.764 139.108 174.533 139.773 174.54H139.873C140.201 174.548 140.525 174.621 140.826 174.755C141.126 174.889 141.397 175.081 141.623 175.32C141.837 175.556 141.999 175.835 142.095 176.139C142.192 176.442 142.222 176.764 142.183 177.08L139.023 203.43C138.943 204.237 139.028 205.053 139.273 205.826C139.517 206.6 139.916 207.316 140.445 207.931C140.974 208.546 141.622 209.047 142.351 209.405C143.079 209.762 143.872 209.968 144.683 210.01H145.353C146.849 210.012 148.306 209.528 149.503 208.63C150.166 208.14 150.724 207.52 151.141 206.809C151.559 206.097 151.828 205.308 151.933 204.49L160.083 134.98L160.113 135.08Z" fill="black"/>
<path d="M126.113 220.04H125.543C124.94 219.972 124.357 219.786 123.827 219.493C123.297 219.199 122.83 218.804 122.453 218.33C121.75 217.44 121.43 216.307 121.562 215.18L122.023 211.54C122.174 210.42 122.731 209.394 123.588 208.657C124.445 207.92 125.542 207.523 126.673 207.54H127.113C127.724 207.591 128.318 207.764 128.861 208.049C129.404 208.334 129.884 208.726 130.273 209.2C130.631 209.636 130.896 210.14 131.053 210.681C131.209 211.223 131.253 211.791 131.182 212.35L130.733 216.07C130.581 217.182 130.027 218.2 129.176 218.932C128.325 219.663 127.235 220.058 126.113 220.04Z" fill="#A9D8FF"/>
<path d="M126.672 209.04H126.982C127.393 209.07 127.794 209.183 128.16 209.372C128.526 209.561 128.85 209.822 129.112 210.14C129.336 210.419 129.503 210.739 129.602 211.082C129.702 211.425 129.732 211.785 129.692 212.14L129.242 215.86C129.13 216.604 128.751 217.282 128.174 217.767C127.598 218.251 126.865 218.508 126.112 218.49H125.712C125.307 218.446 124.914 218.322 124.557 218.124C124.199 217.927 123.885 217.66 123.632 217.34C123.184 216.775 122.976 216.057 123.052 215.34L123.502 211.7C123.629 210.953 124.017 210.276 124.598 209.79C125.179 209.304 125.915 209.042 126.672 209.05M126.672 206.05C125.183 206.035 123.738 206.563 122.609 207.534C121.479 208.506 120.741 209.855 120.532 211.33L120.082 214.97C119.995 215.747 120.063 216.533 120.282 217.284C120.5 218.034 120.866 218.734 121.357 219.342C121.848 219.951 122.455 220.455 123.142 220.827C123.83 221.2 124.585 221.431 125.362 221.51C125.612 221.525 125.863 221.525 126.112 221.51C127.598 221.526 129.038 221 130.163 220.029C131.288 219.059 132.02 217.712 132.222 216.24L132.672 212.52C132.758 211.736 132.684 210.942 132.455 210.187C132.227 209.432 131.848 208.731 131.342 208.126C130.836 207.521 130.213 207.024 129.51 206.666C128.807 206.307 128.039 206.095 127.252 206.04C127.059 206.03 126.866 206.03 126.672 206.04V206.05Z" fill="black"/>
<path d="M196.102 132.15L155.622 164.81L132.622 140.96C130.292 138.53 130.782 134.5 133.742 131.91L159.332 109.54C162.522 106.74 167.262 106.36 169.922 108.74L196.102 132.15Z" fill="#FFF3F8" stroke="black" stroke-width="3" stroke-miterlimit="10"/>
<path d="M155.623 164.81L158.513 167.81C162.453 171.9 168.633 173.89 175.123 173.08C178.292 172.629 181.522 172.898 184.572 173.868C187.623 174.837 190.416 176.482 192.743 178.68L211.273 197.04C214.963 200.7 221.643 201.17 226.173 198.04C230.763 194.85 231.323 189.23 227.443 185.57L208.023 167.24C205.799 165.242 204.204 162.639 203.434 159.75C202.663 156.861 202.75 153.811 203.683 150.97C204.628 148.205 204.731 145.221 203.978 142.397C203.224 139.574 201.65 137.037 199.453 135.11L196.143 132.11L155.623 164.81Z" fill="black" stroke="black" stroke-width="3" stroke-miterlimit="10"/>
<path d="M137.933 128.27L146.263 136.6" stroke="black" stroke-width="3" stroke-miterlimit="10" stroke-linecap="round"/>
<path d="M146.333 120.91L154.923 129.2" stroke="black" stroke-width="3" stroke-miterlimit="10" stroke-linecap="round"/>
<path d="M154.942 113.37L163.782 121.62" stroke="black" stroke-width="3" stroke-miterlimit="10" stroke-linecap="round"/>
<path d="M221.183 188.15C221.512 188.453 221.767 188.829 221.925 189.248C222.084 189.667 222.143 190.117 222.098 190.563C222.052 191.008 221.903 191.437 221.663 191.815C221.422 192.193 221.097 192.51 220.713 192.74C219.89 193.313 218.9 193.594 217.899 193.538C216.898 193.482 215.945 193.092 215.193 192.43C214.869 192.127 214.62 191.752 214.464 191.337C214.309 190.921 214.252 190.475 214.297 190.033C214.343 189.592 214.49 189.167 214.727 188.792C214.963 188.417 215.284 188.101 215.663 187.87C216.483 187.296 217.471 187.012 218.471 187.063C219.47 187.113 220.425 187.496 221.183 188.15Z" fill="white"/>
<path d="M200.162 135.78L159.172 168.5L152.882 161.97L192.982 129.35L200.162 135.78Z" fill="white" stroke="black" stroke-width="3" stroke-miterlimit="10"/>
</svg>
