<svg width="240" height="240" viewBox="0 0 240 240" fill="none" xmlns="http://www.w3.org/2000/svg">
<path d="M184.69 204.13C184.23 204.13 183.76 204.13 183.3 204.07L97.4001 196.85C95.9952 196.738 94.6281 196.339 93.383 195.679C92.1379 195.018 91.0411 194.11 90.1601 193.01C89.1762 191.759 88.46 190.319 88.0558 188.779C87.6515 187.239 87.5679 185.633 87.8101 184.06L100.14 92.72C101.02 86.23 106.95 80.47 113.36 79.88L176 74.14C176.25 74.14 176.49 74.14 176.73 74.14C178.248 74.0917 179.727 74.6206 180.87 75.62L208.53 101.41C209.174 102.009 209.665 102.754 209.96 103.583C210.256 104.411 210.349 105.298 210.23 106.17L200.41 191C199.56 198.38 192.65 204.13 184.69 204.13Z" fill="#E8EDFF"/>
<path d="M176.77 75.6001C177.909 75.5577 179.022 75.943 179.89 76.6801L207.55 102.47C208.027 102.914 208.389 103.467 208.603 104.083C208.817 104.698 208.878 105.356 208.78 106L198.92 190.92C198.16 197.52 191.92 202.68 184.69 202.68C184.27 202.68 183.84 202.68 183.42 202.68L97.5203 195.45C96.3191 195.356 95.1499 195.016 94.0852 194.452C93.0205 193.888 92.0829 193.111 91.3303 192.17C90.4817 191.074 89.8664 189.815 89.5225 188.472C89.1785 187.129 89.1131 185.729 89.3303 184.36L101.67 93.0201C102.46 87.1801 107.78 82.0201 113.53 81.4801L176.21 75.7301H176.81M176.81 72.7301C176.52 72.7154 176.23 72.7154 175.94 72.7301L113.26 78.4701C106.13 79.1201 99.6603 85.4701 98.7003 92.6001L86.3602 183.94C85.3602 191.34 90.2003 197.82 97.3103 198.42L183.21 205.65C183.72 205.65 184.21 205.71 184.73 205.71C193.36 205.71 200.99 199.52 201.94 191.3L211.8 106.38C211.941 105.28 211.819 104.163 211.443 103.12C211.068 102.077 210.45 101.138 209.64 100.38L181.93 74.4901C180.514 73.2255 178.668 72.5495 176.77 72.6001L176.81 72.7301Z" fill="black"/>
<path d="M189.79 108.3C184.05 108.3 179.12 106.3 175.9 102.66C174.543 101.108 173.536 99.2819 172.946 97.3065C172.356 95.3311 172.197 93.2521 172.48 91.21L174.57 74.27L176.04 74.14C176.29 74.14 176.53 74.14 176.77 74.14C178.287 74.0917 179.767 74.6206 180.91 75.62L208.57 101.41C209.214 102.009 209.704 102.754 210 103.583C210.296 104.411 210.389 105.298 210.27 106.17L210.11 107.52L190.81 108.32C190.46 108.3 190.12 108.3 189.79 108.3Z" fill="#E4EAFF"/>
<path d="M176.77 75.6001C177.908 75.5577 179.021 75.943 179.89 76.6801L207.55 102.47C208.027 102.914 208.388 103.467 208.603 104.083C208.817 104.698 208.878 105.356 208.78 106L190.78 106.74C190.45 106.74 190.13 106.74 189.78 106.74C184.48 106.8 180 105 177 101.67C175.783 100.279 174.885 98.6398 174.367 96.8661C173.848 95.0924 173.723 93.2271 174 91.4001L175.94 75.6601H176.2H176.8M176.8 72.6601C176.51 72.6454 176.22 72.6454 175.93 72.6601L173.26 72.9001L171 91.0001C169.71 101.53 177.89 109.77 189.8 109.77C190.15 109.77 190.52 109.77 190.88 109.77L211.46 108.92L211.77 106.29C211.911 105.19 211.788 104.073 211.413 103.03C211.037 101.987 210.419 101.048 209.61 100.29L181.93 74.4901C180.514 73.2255 178.668 72.5495 176.77 72.6001L176.8 72.6601Z" fill="black"/>
<path d="M114.39 146.48C113.422 146.492 112.463 146.295 111.578 145.903C110.693 145.511 109.902 144.934 109.26 144.21C108.601 143.422 108.119 142.502 107.846 141.512C107.573 140.521 107.517 139.484 107.68 138.47C108.027 136.204 109.142 134.126 110.839 132.584C112.536 131.042 114.711 130.129 117 130L180 128.82C181.261 128.782 182.516 129.014 183.68 129.5C184.844 129.986 185.891 130.716 186.75 131.64C187.46 132.454 187.99 133.41 188.304 134.445C188.617 135.479 188.708 136.568 188.57 137.64C187.96 142.8 182.9 147.01 177.31 147.01L114.39 146.48Z" fill="#2E5CFF"/>
<path d="M180 130.32C181.049 130.282 182.093 130.47 183.062 130.87C184.032 131.27 184.904 131.874 185.62 132.64C186.205 133.295 186.639 134.071 186.892 134.913C187.144 135.754 187.208 136.641 187.08 137.51C186.56 141.87 182.08 145.51 177.31 145.51H177.22L114.4 145C113.647 145.01 112.901 144.859 112.211 144.557C111.522 144.255 110.904 143.81 110.4 143.25C109.882 142.621 109.505 141.889 109.293 141.103C109.081 140.317 109.039 139.494 109.17 138.69C109.473 136.789 110.411 135.046 111.831 133.745C113.251 132.445 115.07 131.664 116.99 131.53L179.79 130.34H180M180 127.34H179.76L116.96 128.53C114.317 128.668 111.804 129.716 109.846 131.497C107.888 133.278 106.607 135.682 106.22 138.3C105.51 143.62 109.15 147.97 114.4 148.02L177.19 148.59H177.31C183.62 148.59 189.36 143.81 190.07 137.88C190.77 132 186.23 127.33 180 127.33V127.34Z" fill="black"/>
<path d="M174.44 174.22H174L111.23 171.37C110.249 171.339 109.285 171.103 108.401 170.676C107.518 170.248 106.733 169.64 106.1 168.89C105.429 168.066 104.939 167.112 104.66 166.087C104.381 165.062 104.319 163.99 104.48 162.94C104.795 160.722 105.878 158.685 107.541 157.185C109.205 155.684 111.342 154.816 113.58 154.73L176.5 155.79C177.797 155.78 179.082 156.042 180.272 156.559C181.463 157.076 182.531 157.836 183.41 158.79C184.158 159.652 184.714 160.663 185.043 161.756C185.373 162.848 185.467 163.998 185.32 165.13C184.68 170.15 179.82 174.22 174.44 174.22Z" fill="#2E5CFF"/>
<path d="M113.53 153.21V156.21H113.64L176.42 157.26C177.51 157.249 178.591 157.468 179.591 157.904C180.59 158.34 181.486 158.983 182.22 159.79C182.833 160.491 183.289 161.315 183.558 162.206C183.827 163.098 183.903 164.037 183.78 164.96C183.27 169.22 179.08 172.7 174.44 172.7H174L111.23 169.85C110.461 169.813 109.708 169.616 109.019 169.271C108.33 168.927 107.721 168.443 107.23 167.85C106.695 167.186 106.305 166.418 106.084 165.595C105.864 164.772 105.818 163.912 105.95 163.07C106.204 161.208 107.107 159.495 108.498 158.231C109.89 156.967 111.682 156.234 113.56 156.16V153.16M113.56 153.16C110.952 153.234 108.456 154.231 106.516 155.975C104.577 157.719 103.32 160.095 102.97 162.68C102.76 163.894 102.811 165.138 103.12 166.33C103.429 167.523 103.989 168.635 104.762 169.594C105.535 170.553 106.504 171.336 107.604 171.89C108.704 172.445 109.909 172.758 111.14 172.81L173.91 175.66H174.47C180.6 175.66 186.1 171.1 186.8 165.26C187.51 159.26 182.86 154.26 176.5 154.2L113.72 153.15L113.56 153.16Z" fill="black"/>
</svg>
