<svg width="240" height="240" viewBox="0 0 240 240" fill="none" xmlns="http://www.w3.org/2000/svg">
<path d="M192.32 197C191.53 196.999 190.741 196.939 189.96 196.82L47.9602 175.28C43.9602 174.67 41.1702 170.35 41.8302 165.66L51.4402 97.6601C52.1002 93.0301 56.0402 89.1601 60.2302 89.0301L202.41 84.8001H202.9C204.67 84.742 206.432 85.0535 208.075 85.7147C209.717 86.3759 211.204 87.3722 212.44 88.6401C213.303 89.5725 213.952 90.6818 214.342 91.8907C214.733 93.0996 214.855 94.3791 214.7 95.6401L205 187C204.33 192.81 199 197 192.32 197Z" fill="#093FFF"/>
<path d="M202.86 86.3201C204.421 86.2627 205.977 86.531 207.428 87.1077C208.879 87.6845 210.195 88.5571 211.29 89.6701C212.003 90.4423 212.54 91.3597 212.865 92.3591C213.189 93.3586 213.293 94.4165 213.17 95.4601L203.46 186.85C202.93 191.85 198.24 195.53 192.32 195.53C191.607 195.527 190.896 195.473 190.19 195.37L48.1902 173.83C44.9502 173.34 42.7702 169.78 43.3202 165.9L52.9302 97.9001C53.4802 94.0301 56.8402 90.6601 60.2702 90.5601L202.45 86.3301H202.9M202.9 83.3301H202.36L60.1402 87.5501C55.2102 87.7001 50.6702 92.1401 49.9202 97.4701L40.3102 165.47C39.5302 170.98 42.8002 176.04 47.7002 176.78L189.7 198.32C190.554 198.455 191.416 198.522 192.28 198.52C199.55 198.52 205.7 193.82 206.4 187.16L216.11 95.7701C216.85 88.7701 210.86 83.3101 202.82 83.3101L202.9 83.3301Z" fill="black"/>
<path d="M50.29 105.62L51.42 97.62C52.07 93 56 89.12 60.2 89L202.38 84.75H202.87C204.64 84.692 206.402 85.0035 208.045 85.6647C209.687 86.3258 211.174 87.3221 212.41 88.59C213.269 89.525 213.915 90.6347 214.306 91.8429C214.696 93.0511 214.82 94.3293 214.67 95.59L213.43 107.2L50.29 105.62Z" fill="white"/>
<path d="M202.87 86.25C204.428 86.1921 205.982 86.4592 207.431 87.0342C208.881 87.6092 210.195 88.4796 211.29 89.59C212.002 90.3629 212.538 91.2804 212.862 92.2796C213.187 93.2789 213.292 94.3364 213.17 95.38L212.08 105.64L52.0001 104.13L52.8901 97.83C53.4301 93.96 56.7901 90.6 60.2201 90.5L202.4 86.25H202.85M202.85 83.25H202.31L60.1501 87.49C55.2201 87.64 50.6801 92.08 49.9301 97.41L48.5601 107.11L214.78 108.67L216.16 95.67C216.9 88.67 210.91 83.21 202.87 83.21L202.85 83.25Z" fill="black"/>
<path d="M59.6602 95.47C59.8821 95.4745 60.1003 95.5286 60.2987 95.6283C60.497 95.728 60.6706 95.8708 60.8067 96.0462C60.9428 96.2216 61.038 96.4252 61.0853 96.6422C61.1326 96.8591 61.1309 97.0838 61.0802 97.3C61.016 97.7955 60.7813 98.2532 60.4163 98.5945C60.0513 98.9358 59.5789 99.1392 59.0802 99.17C58.8578 99.1639 58.6395 99.1085 58.4412 99.0076C58.2428 98.9068 58.0694 98.7631 57.9335 98.587C57.7976 98.4108 57.7025 98.2067 57.6553 97.9893C57.608 97.7718 57.6097 97.5466 57.6602 97.33C57.7227 96.8347 57.9573 96.3772 58.3228 96.0372C58.6884 95.6973 59.1617 95.4965 59.6602 95.47ZM59.6602 92.47H59.6002C58.3905 92.5104 57.2348 92.9805 56.3405 93.7961C55.4461 94.6116 54.8717 95.7191 54.7202 96.92C54.6186 97.5836 54.6616 98.2614 54.8463 98.907C55.0309 99.5525 55.3529 100.15 55.7902 100.66C56.2026 101.135 56.7126 101.516 57.2855 101.777C57.8584 102.038 58.4808 102.172 59.1102 102.17C60.3312 102.141 61.5014 101.675 62.408 100.857C63.3145 100.038 63.8972 98.9217 64.0502 97.71C64.1474 97.0525 64.1041 96.3819 63.9231 95.7423C63.7421 95.1028 63.4276 94.509 63.0002 94C62.5873 93.5258 62.0769 93.1464 61.5039 92.8875C60.931 92.6286 60.3089 92.4964 59.6802 92.5L59.6602 92.47Z" fill="black"/>
<path d="M69.5901 95.3301C69.8181 95.3326 70.0427 95.3856 70.2477 95.4854C70.4527 95.5852 70.633 95.7293 70.7756 95.9072C70.9182 96.0852 71.0194 96.2926 71.0721 96.5144C71.1247 96.7363 71.1275 96.9671 71.0801 97.1901C71.0172 97.69 70.784 98.1528 70.4197 98.5008C70.0554 98.8487 69.5823 99.0604 69.0801 99.1001C68.851 99.098 68.6253 99.0448 68.4194 98.9444C68.2135 98.8441 68.0326 98.699 67.8899 98.5199C67.7471 98.3407 67.6461 98.132 67.5943 97.9089C67.5424 97.6857 67.541 97.4539 67.5901 97.2301C67.6568 96.7328 67.8915 96.2733 68.2553 95.9277C68.619 95.5821 69.09 95.3713 69.5901 95.3301ZM69.5901 92.3301H69.5301C68.2977 92.358 67.1161 92.826 66.1989 93.6496C65.2818 94.4732 64.6898 95.5979 64.5301 96.8201C64.4334 97.4876 64.4798 98.168 64.6659 98.8162C64.8521 99.4644 65.174 100.066 65.6101 100.58C66.0335 101.061 66.5553 101.446 67.1401 101.708C67.7249 101.97 68.3592 102.104 69.0001 102.1C70.2309 102.062 71.4083 101.589 72.3236 100.765C73.2389 99.9414 73.8328 98.8201 74.0001 97.6001C74.1107 96.9399 74.0786 96.2637 73.9062 95.6168C73.7337 94.97 73.4247 94.3676 73.0001 93.8501C72.5781 93.3698 72.0581 92.9855 71.475 92.7233C70.8919 92.4611 70.2594 92.327 69.6201 92.3301H69.5901Z" fill="black"/>
<path d="M79.9302 95.1799C80.1658 95.1813 80.3981 95.2348 80.6107 95.3364C80.8232 95.438 81.0107 95.5853 81.1597 95.7678C81.3087 95.9502 81.4156 96.1634 81.4727 96.3919C81.5299 96.6205 81.5358 96.8588 81.4902 97.0899C81.4107 97.6019 81.1577 98.0711 80.7736 98.4188C80.3895 98.7665 79.8975 98.9717 79.3802 98.9999C79.145 99 78.9128 98.9479 78.7002 98.8474C78.4877 98.747 78.3 98.6006 78.1508 98.4189C78.0016 98.2372 77.8946 98.0246 77.8374 97.7965C77.7802 97.5685 77.7743 97.3305 77.8202 97.0999C77.8923 96.5846 78.1392 96.1096 78.5197 95.7547C78.9002 95.3997 79.3911 95.1862 79.9102 95.1499M79.9102 92.1499H79.8402C78.6046 92.1936 77.4244 92.6736 76.5091 93.5047C75.5938 94.3358 75.0025 95.4643 74.8402 96.6899C74.7421 97.3605 74.7897 98.0442 74.9795 98.6948C75.1693 99.3453 75.4969 99.9473 75.9402 100.46C76.3687 100.947 76.8966 101.336 77.4883 101.602C78.0799 101.867 78.7216 102.003 79.3702 102C80.619 101.969 81.8164 101.496 82.7487 100.664C83.6809 99.8328 84.2875 98.6972 84.4602 97.4599C84.5556 96.7894 84.5068 96.1063 84.3171 95.4562C84.1274 94.8061 83.8012 94.2039 83.3602 93.6899C82.9308 93.2041 82.4028 92.8155 81.8113 92.55C81.2198 92.2844 80.5785 92.148 79.9302 92.1499H79.9102Z" fill="black"/>
<path d="M120.22 34.24C119.833 34.2574 119.446 34.1924 119.086 34.0493C118.726 33.9062 118.4 33.6884 118.13 33.41C117.89 33.1158 117.717 32.773 117.622 32.4053C117.527 32.0376 117.512 31.6537 117.58 31.28L118.65 23C118.899 21.8049 119.5 20.7115 120.375 19.8599C121.25 19.0083 122.359 18.4373 123.56 18.22C123.772 18.1889 123.986 18.1722 124.2 18.17C124.572 18.1572 124.942 18.2227 125.286 18.3623C125.631 18.5018 125.942 18.7123 126.2 18.98C126.431 19.2653 126.598 19.597 126.689 19.9524C126.781 20.3078 126.794 20.6787 126.73 21.04L125.65 29.49C125.411 30.7 124.801 31.8054 123.905 32.653C123.009 33.5006 121.871 34.0483 120.65 34.22L120.22 34.24Z" fill="#66B3FF"/>
<path d="M124.2 19.6599C124.358 19.6238 124.524 19.6303 124.679 19.6787C124.834 19.7272 124.974 19.8158 125.083 19.9357C125.193 20.0556 125.269 20.2025 125.304 20.3613C125.338 20.5201 125.33 20.6853 125.28 20.8399L124.2 29.2899C124.004 30.1608 123.551 30.9529 122.901 31.5642C122.25 32.1755 121.431 32.578 120.55 32.7199H120.22C120.051 32.7531 119.876 32.742 119.712 32.6877C119.549 32.6334 119.402 32.5377 119.286 32.4099C119.17 32.2821 119.09 32.1265 119.052 31.9583C119.014 31.7901 119.02 31.615 119.07 31.4499L120.14 23.1599C120.349 22.2916 120.803 21.5016 121.448 20.8845C122.094 20.2674 122.903 19.8492 123.78 19.6799C123.92 19.671 124.06 19.671 124.2 19.6799M124.2 16.6799C123.909 16.6842 123.618 16.7075 123.33 16.7499C121.807 17.0129 120.4 17.7353 119.299 18.8202C118.198 19.9052 117.455 21.3008 117.17 22.8199L116.09 31.1099C115.992 31.6981 116.028 32.3005 116.193 32.8733C116.358 33.4461 116.65 33.9747 117.045 34.4204C117.441 34.8661 117.932 35.2178 118.481 35.4495C119.03 35.6813 119.624 35.7873 120.22 35.7599C120.446 35.7746 120.674 35.7746 120.9 35.7599C122.443 35.5435 123.88 34.848 125.006 33.7714C126.133 32.6949 126.893 31.2917 127.18 29.7599L128.25 21.3099C128.357 20.7358 128.332 20.1449 128.177 19.5818C128.022 19.0187 127.742 18.4981 127.357 18.0591C126.972 17.62 126.492 17.2741 125.954 17.0474C125.416 16.8206 124.833 16.7189 124.25 16.7499L124.2 16.6799Z" fill="black"/>
<path d="M113.55 161.54C112.617 161.547 111.694 161.351 110.845 160.966C109.995 160.581 109.24 160.016 108.63 159.31L86.8299 133.85C86.2819 133.175 85.9428 132.355 85.8539 131.49C85.7651 130.625 85.9305 129.752 86.3299 128.98C86.7112 128.106 87.3347 127.359 88.1267 126.827C88.9187 126.295 89.8463 126.002 90.7999 125.98H90.9999L105.28 126.57L114.73 53.41C114.957 52.2422 115.546 51.1754 116.412 50.3606C117.279 49.5458 118.38 49.0244 119.56 48.87H119.98C120.399 48.8534 120.817 48.9269 121.205 49.0856C121.593 49.2443 121.943 49.4845 122.23 49.79C122.489 50.1041 122.678 50.4702 122.783 50.8636C122.888 51.257 122.908 51.6684 122.84 52.07L120.72 68.75C120.653 69.2272 120.689 69.7132 120.825 70.1754C120.961 70.6376 121.195 71.0654 121.51 71.43C121.842 71.7964 122.248 72.0876 122.702 72.2842C123.155 72.4808 123.646 72.5783 124.14 72.57H124.36C125.359 72.5029 126.307 72.0983 127.046 71.4224C127.786 70.7465 128.274 69.8395 128.43 68.85L129.05 63.85C129.294 62.6331 129.924 61.5274 130.846 60.6969C131.769 59.8665 132.934 59.3555 134.17 59.24H134.54C135.018 59.2131 135.496 59.2884 135.943 59.4609C136.389 59.6333 136.794 59.8989 137.13 60.24C137.408 60.5698 137.612 60.9559 137.728 61.3718C137.844 61.7877 137.868 62.2237 137.8 62.65L129.8 127.53L146.4 128.21C147.488 128.199 148.55 128.537 149.432 129.174C150.314 129.811 150.969 130.714 151.3 131.75C151.6 132.824 151.546 133.966 151.146 135.007C150.746 136.048 150.022 136.933 149.08 137.53L117.6 160.22C116.438 161.069 115.039 161.53 113.6 161.54H113.55Z" fill="#85A0FF"/>
<path d="M120 50.31C120.205 50.2962 120.41 50.3256 120.603 50.3963C120.796 50.4669 120.972 50.5772 121.12 50.72C121.236 50.8759 121.317 51.0543 121.361 51.2437C121.404 51.433 121.407 51.6293 121.37 51.82L119.23 68.5C119.138 69.1888 119.194 69.8894 119.394 70.555C119.594 71.2206 119.933 71.8359 120.39 72.36C120.864 72.8824 121.443 73.2986 122.089 73.5812C122.736 73.8639 123.434 74.0066 124.14 74H124.44C125.788 73.9211 127.068 73.3813 128.066 72.4711C129.064 71.5608 129.718 70.3353 129.92 69L130.54 64C130.735 63.1226 131.203 62.3296 131.876 61.7349C132.55 61.1401 133.395 60.7743 134.29 60.69H134.54C134.808 60.6705 135.077 60.7086 135.328 60.8017C135.58 60.8949 135.809 61.0409 136 61.23C136.14 61.4007 136.241 61.6006 136.295 61.815C136.348 62.0295 136.353 62.2532 136.31 62.47L135.4 69.84L132.56 92.92L128.56 125.73L128.16 128.96L131.42 129.1L146.42 129.71C147.195 129.687 147.956 129.914 148.591 130.36C149.225 130.805 149.698 131.443 149.94 132.18C150.149 132.957 150.101 133.781 149.801 134.527C149.502 135.274 148.968 135.903 148.28 136.32L116.72 159C115.794 159.656 114.685 160.006 113.55 160C112.834 160.002 112.126 159.851 111.474 159.556C110.822 159.261 110.241 158.829 109.77 158.29L87.9998 132.87C87.6538 132.407 87.4442 131.856 87.3947 131.28C87.3452 130.704 87.4578 130.125 87.7198 129.61C87.976 128.988 88.4052 128.453 88.9565 128.069C89.5079 127.684 90.1581 127.466 90.8298 127.44H90.9598L103.88 127.97L106.62 128.09L106.97 125.36L112.52 82.43L113.85 72.14L116.25 53.56C116.425 52.7263 116.855 51.9676 117.48 51.389C118.105 50.8103 118.895 50.4403 119.74 50.33H120.01M120.01 47.33H119.44C117.922 47.5142 116.503 48.1811 115.392 49.2325C114.281 50.2838 113.537 51.6641 113.27 53.17L110.87 71.74L109.51 82L104 125L91.0898 124.46H90.7998C85.6098 124.46 82.3598 130.95 85.6898 134.85L107.49 160.3C108.239 161.173 109.169 161.872 110.215 162.349C111.262 162.825 112.4 163.068 113.55 163.06C115.321 163.058 117.046 162.498 118.48 161.46L150 138.76C155.46 134.82 153.14 127 146.5 126.76L131.5 126.15L135.55 93.33L138.39 70.26L139.3 62.89C139.396 62.2256 139.344 61.5481 139.145 60.9068C138.946 60.2655 138.607 59.6766 138.152 59.1831C137.697 58.6896 137.137 58.304 136.514 58.0543C135.891 57.8046 135.22 57.6972 134.55 57.74H134.07C132.486 57.8773 130.991 58.5325 129.816 59.6043C128.641 60.6761 127.852 62.1049 127.57 63.67L126.95 68.61C126.835 69.2491 126.51 69.8316 126.026 70.2647C125.543 70.6978 124.928 70.9566 124.28 71H124.14C123.864 71.0154 123.588 70.9688 123.332 70.8635C123.077 70.7583 122.848 70.5971 122.663 70.3918C122.478 70.1866 122.341 69.9424 122.262 69.6773C122.184 69.4122 122.166 69.1329 122.21 68.86L124.32 52.19C124.425 51.5735 124.391 50.9412 124.22 50.3397C124.048 49.7382 123.744 49.1828 123.33 48.7145C122.915 48.2462 122.401 47.8769 121.824 47.6338C121.248 47.3907 120.625 47.2801 120 47.31L120.01 47.33Z" fill="black"/>
<path d="M134.65 46.7199C134.197 46.7367 133.746 46.6561 133.327 46.4835C132.907 46.311 132.53 46.0506 132.22 45.7199C131.961 45.4095 131.773 45.0468 131.668 44.6567C131.562 44.2666 131.543 43.8583 131.61 43.4599L132.04 40.0499C132.301 38.8141 132.938 37.6894 133.864 36.83C134.789 35.9706 135.958 35.4187 137.21 35.2499C137.4 35.2357 137.59 35.2357 137.78 35.2499C138.23 35.2341 138.678 35.3152 139.094 35.4877C139.51 35.6603 139.884 35.9202 140.19 36.2499C140.445 36.5562 140.631 36.9142 140.734 37.2991C140.838 37.6841 140.857 38.0869 140.79 38.4799L140.36 41.9499C140.111 43.2068 139.466 44.3509 138.519 45.2146C137.573 46.0783 136.374 46.6164 135.1 46.7499C134.95 46.7499 134.799 46.7399 134.65 46.7199Z" fill="#66B3FF"/>
<path d="M137.78 36.7399C138.013 36.7242 138.246 36.756 138.466 36.8334C138.686 36.9108 138.888 37.0321 139.06 37.1899C139.176 37.3379 139.258 37.5097 139.299 37.693C139.341 37.8763 139.341 38.0665 139.3 38.2499L138.87 41.7199C138.657 42.6267 138.173 43.4469 137.481 44.0706C136.79 44.6943 135.924 45.0919 135 45.2099H134.7C134.462 45.2291 134.222 45.1981 133.996 45.1189C133.771 45.0396 133.564 44.914 133.39 44.7499C133.271 44.5998 133.186 44.425 133.143 44.2382C133.1 44.0513 133.099 43.8572 133.14 43.6699L133.57 40.2599C133.782 39.3534 134.264 38.5328 134.954 37.9075C135.643 37.2822 136.507 36.8819 137.43 36.7599C137.56 36.7504 137.69 36.7504 137.82 36.7599M137.82 33.7599C137.574 33.7454 137.326 33.7454 137.08 33.7599C135.492 33.9638 134.009 34.6645 132.844 35.7619C131.678 36.8593 130.889 38.2972 130.59 39.8699L130.16 43.2699C130.06 43.906 130.106 44.5565 130.293 45.1726C130.48 45.7887 130.804 46.3546 131.24 46.8278C131.677 47.301 132.215 47.6693 132.814 47.9052C133.413 48.1411 134.058 48.2384 134.7 48.1899C134.893 48.1997 135.087 48.1997 135.28 48.1899C136.892 48.0176 138.406 47.3302 139.597 46.2295C140.788 45.1289 141.592 43.6737 141.89 42.0799L142.32 38.5999C142.418 37.9699 142.373 37.3257 142.187 36.7156C142.001 36.1056 141.68 35.5454 141.247 35.0771C140.815 34.6087 140.282 34.2442 139.688 34.011C139.094 33.7777 138.456 33.6816 137.82 33.7299V33.7599Z" fill="black"/>
</svg>
