<svg width="24" height="24" viewBox="0 0 24 24" fill="none" xmlns="http://www.w3.org/2000/svg">
<path d="M21.3899 6.315V21C21.3899 22.6575 20.0474 24 18.3899 24H5.60986C3.95236 24 2.60986 22.6575 2.60986 21V3C2.60986 1.3425 3.95236 0 5.60986 0H15.0749C15.8699 0 16.6349 0.315 17.1974 0.8775L20.5124 4.1925C21.0749 4.755 21.3899 5.52 21.3899 6.315Z" fill="#001E36"/>
<path d="M15.0749 1.125C15.5774 1.125 16.0499 1.32 16.4024 1.6725L19.7174 4.9875C20.0699 5.34 20.2649 5.8125 20.2649 6.315V21C20.2649 22.035 19.4249 22.875 18.3899 22.875H5.60986C4.57486 22.875 3.73486 22.035 3.73486 21V3C3.73486 1.965 4.57486 1.125 5.60986 1.125H15.0749ZM15.0749 0H5.60986C3.95236 0 2.60986 1.3425 2.60986 3V21C2.60986 22.6575 3.95236 24 5.60986 24H18.3899C20.0474 24 21.3899 22.6575 21.3899 21V6.315C21.3899 5.52 21.0749 4.755 20.5124 4.1925L17.1974 0.8775C16.6349 0.315 15.8699 0 15.0749 0Z" fill="#31A8FF"/>
<path d="M12.3672 7.7175C12.3672 9.09 11.2722 10.185 9.85469 10.185H8.56469V12.6H7.11719V5.25H9.86219C11.2797 5.25 12.3672 6.345 12.3672 7.7175ZM10.9272 7.7175C10.9272 7.08 10.4772 6.6075 9.85469 6.6075H8.56469V8.835H9.85469C10.4772 8.835 10.9272 8.3475 10.9272 7.7175Z" fill="#31A8FF"/>
<path d="M16.882 11.07C16.882 12.2025 15.892 12.75 14.767 12.75C13.717 12.75 12.937 12.3075 12.562 11.4975L13.7395 10.8375C13.8895 11.265 14.242 11.52 14.767 11.52C15.1945 11.52 15.4945 11.37 15.4945 11.07C15.4945 10.305 12.787 10.725 12.787 8.87245C12.787 7.79995 13.702 7.19995 14.782 7.19995C15.6295 7.19995 16.372 7.58995 16.777 8.31745L15.622 8.94745C15.4645 8.60995 15.172 8.41495 14.782 8.41495C14.4445 8.41495 14.1745 8.56495 14.1745 8.84245C14.1745 9.62245 16.882 9.14245 16.882 11.07Z" fill="#31A8FF"/>
<path d="M10.2822 16.5975C10.2822 17.19 9.81723 17.655 9.20973 17.655H8.65473V18.69H8.03223V15.54H9.20973C9.81723 15.54 10.2822 16.005 10.2822 16.5975ZM9.66723 16.5975C9.66723 16.32 9.47223 16.1175 9.20973 16.1175H8.65473V17.07H9.20973C9.47223 17.07 9.66723 16.8675 9.66723 16.5975Z" fill="#31A8FF"/>
<path d="M10.4399 17.97L10.9724 17.6625C11.0849 17.955 11.3024 18.1425 11.6999 18.1425C12.0749 18.1425 12.2024 17.985 12.2024 17.8125C12.2024 17.58 11.9924 17.49 11.5199 17.355C11.0399 17.2125 10.5674 17.01 10.5674 16.4175C10.5674 15.825 11.0624 15.48 11.6024 15.48C12.1199 15.48 12.5174 15.7425 12.7274 16.185L12.2024 16.485C12.0899 16.245 11.9174 16.08 11.6024 16.08C11.3399 16.08 11.1899 16.215 11.1899 16.395C11.1899 16.59 11.3099 16.695 11.7899 16.8375C12.2924 16.995 12.8174 17.16 12.8174 17.805C12.8174 18.3975 12.3449 18.7575 11.6774 18.7575C11.0324 18.75 10.6049 18.435 10.4399 17.97Z" fill="#31A8FF"/>
<path d="M15.9672 17.115C15.9672 18 15.3222 18.69 14.4522 18.69H13.1997V15.54H14.4522C15.3147 15.54 15.9672 16.2225 15.9672 17.115ZM15.3747 17.115C15.3747 16.5375 14.9997 16.1325 14.4522 16.1325H13.8222V18.09H14.4522C14.9922 18.09 15.3747 17.6925 15.3747 17.115Z" fill="#31A8FF"/>
</svg>
