<svg width="40" height="40" viewBox="0 0 40 40" fill="none" xmlns="http://www.w3.org/2000/svg">
<path fill-rule="evenodd" clip-rule="evenodd" d="M25.6619 1.27615C23.9672 -0.0478871 21.6949 -0.367242 19.7009 0.438383L6.61119 5.72697C4.61719 6.5326 3.20447 8.34083 2.90516 10.4705L0.940345 24.4508C0.64104 26.5805 1.50063 28.708 3.19533 30.032L14.3202 38.7237C16.015 40.048 18.2873 40.3671 20.2813 39.5617L33.3711 34.2731C35.3651 33.4674 36.7777 31.6591 37.0771 29.5294L39.042 15.5492C39.3411 13.4195 38.4817 11.2919 36.7868 9.96789L25.6619 1.27615ZM23.2753 8.63837C22.7995 7.11251 20.8437 6.83766 19.9658 8.17323L17.0415 12.6216C16.6929 13.152 16.118 13.4727 15.5041 13.4794L10.3554 13.535C8.80961 13.5517 7.93256 15.4071 8.87127 16.6747L11.9979 20.8966C12.3706 21.3999 12.4796 22.065 12.2891 22.675L10.6919 27.7915C10.2124 29.3277 11.6261 30.7491 13.0842 30.1971L17.9408 28.3579C18.5198 28.1386 19.1621 28.2289 19.6582 28.5991L23.8197 31.7057C25.0692 32.6386 26.82 31.6617 26.7824 30.0529L26.6574 24.6943C26.6424 24.0554 26.9305 23.4462 27.4275 23.0651L31.5968 19.8685C32.8485 18.9088 32.5168 16.8835 31.0354 16.4414L26.1016 14.9687C25.5134 14.7932 25.0491 14.3264 24.8602 13.7205L23.2753 8.63837Z" fill="#FED7A0"/>
</svg>
