<svg id="Layer_1" data-name="Layer 1" xmlns="http://www.w3.org/2000/svg" viewBox="0 0 48 48"><defs><style>.cls-1{fill:#0080ff;}.cls-1,.cls-2,.cls-3,.cls-4,.cls-5{stroke:#000;}.cls-1,.cls-2,.cls-4,.cls-5{stroke-linejoin:round;}.cls-2,.cls-5{fill:#66b3ff;}.cls-3{fill:#fff;stroke-miterlimit:10;}.cls-4{fill:none;stroke-width:1.12px;}.cls-4,.cls-5{stroke-linecap:round;}</style></defs><path class="cls-1" d="M31.45,26.83H15.72L13.29,36l-1.24,4.67-.48,1.77a1.83,1.83,0,0,0,1.76,2.29H33.84a1.83,1.83,0,0,0,1.76-2.29Z"/><circle class="cls-1" cx="5.28" cy="21.13" r="5.69"/><circle class="cls-1" cx="41.89" cy="21.13" r="5.69"/><rect class="cls-2" x="4.78" y="2.55" width="38.07" height="24.55" rx="11.47"/><rect class="cls-3" x="7.96" y="8.11" width="31.72" height="21.43" rx="10.71"/><path class="cls-4" d="M25.66,23.37a1.84,1.84,0,1,1-3.68,0"/><path class="cls-4" d="M19.13,20.16a3.78,3.78,0,1,0-7.55,0"/><path class="cls-4" d="M36.05,20.16a3.77,3.77,0,1,0-7.54,0"/><path class="cls-2" d="M21.87,2.55h3.9a9.62,9.62,0,0,1,9.62,9.62v0a1.49,1.49,0,0,1-1.49,1.49H13.74a1.49,1.49,0,0,1-1.49-1.49v0a9.62,9.62,0,0,1,9.62-9.62Z"/><line class="cls-5" x1="18.64" y1="13.66" x2="18.64" y2="10.48"/><line class="cls-5" x1="23.59" y1="13.66" x2="23.59" y2="10.48"/><line class="cls-5" x1="28.53" y1="13.66" x2="28.53" y2="10.48"/></svg>